<svg width="1200" height="1200" xmlns="http://www.w3.org/2000/svg">

 <g>
  <title>background</title>
  <rect fill="none" id="canvas_background" height="402" width="582" y="-1" x="-1"/>
 </g>
 <g>
  <title>Layer 1</title>
  <g id="svg_1">
   <g id="svg_2">
    <path id="svg_3" d="m276.11,589.254c-1.643,1.808 -3.262,3.661 -5.651,4.861c1.024,-2.768 2.062,-5.531 3.064,-8.306c0.27,-0.748 0.736,-0.775 1.387,-0.514c0.397,0.159 0.798,0.31 1.199,0.461l0,-12.536c-3.724,-2.596 -7.453,-5.183 -11.374,-7.515c-0.349,-0.207 -0.545,-0.645 -0.812,-0.975c-0.225,-0.092 -0.45,-0.184 -0.674,-0.276c-0.92,0.192 -1.487,-0.497 -2.211,-0.795c-4.806,-1.449 -9.261,-3.55 -13.32,-6.396c-0.47,-0.33 -0.983,-0.604 -1.476,-0.904c-0.196,3.661 0.45,7.267 0.758,10.897c0.097,1.148 0.623,2.928 -0.326,3.36c-1.146,0.522 -1.821,-1.268 -2.792,-1.947c-3.483,-2.435 -6.133,-5.727 -9.48,-8.305c-1.744,0.955 -2.594,2.649 -3.672,4.123c-1.173,1.604 -2.386,2.192 -4.472,1.397c-3.039,-1.157 -6.214,-1.992 -9.316,-3.006c-1.223,-0.4 -1.52,-0.135 -1.095,1.033c1.117,3.072 2.228,6.148 3.241,9.252c0.286,0.877 0.94,1.186 1.641,1.594c11.546,6.733 23.086,13.477 34.616,20.236c0.499,0.293 0.91,0.731 1.331,1.13c6.481,6.134 12.958,12.272 19.433,18.412l0,-25.281l0.001,0z" fill="#5F5D5A"/>
    <path id="svg_4" d="m276.11,614.533c-6.476,-6.139 -12.952,-12.278 -19.433,-18.412c-0.422,-0.399 -0.832,-0.837 -1.331,-1.13c-11.53,-6.758 -23.07,-13.502 -34.616,-20.236c-0.701,-0.409 -1.355,-0.717 -1.641,-1.594c-1.013,-3.104 -2.124,-6.18 -3.241,-9.252c-0.425,-1.168 -0.128,-1.433 1.095,-1.033c3.102,1.014 6.277,1.848 9.316,3.006c2.086,0.794 3.299,0.207 4.472,-1.397c1.078,-1.474 1.928,-3.167 3.672,-4.123c1.517,-2.029 0.028,-2.843 -1.587,-3.741c-9.87,-5.488 -19.718,-11.012 -29.566,-16.534c-0.971,-0.544 -1.892,-0.714 -2.941,-0.155c-0.704,0.376 -1.496,0.604 -2.249,0.898c-2.275,2.095 -5.24,3.149 -7.909,4.638c-4.208,2.348 -8.307,4.888 -12.766,6.816c0.039,-0.205 0.009,-0.473 0.135,-0.599c4.84,-4.815 9.388,-9.897 14.654,-14.32c0.513,-1.568 2.009,-2.351 3.119,-3.428c0.533,-0.517 1.109,-0.906 0.973,-1.719c-2.193,-1.32 -4.615,-2.161 -7.055,-2.934c-0.994,-0.315 -1.943,-0.108 -2.907,0.565c-3.108,2.17 -6.326,4.2 -9.503,6.283c-5.561,3.646 -11.11,7.308 -16.688,10.93c-7.722,5.015 -15.436,10.043 -23.213,14.982c-5.43,3.449 -10.958,6.758 -16.442,10.13c1.076,0.247 1.864,-0.419 2.71,-0.817c9.247,-4.358 18.496,-8.711 27.701,-13.147c1.506,-0.726 2.583,-0.727 4.07,0.168c10.764,6.482 21.569,12.905 32.44,19.223c3.305,1.921 6.856,3.465 10.305,5.162c4.711,2.318 9.535,4.449 14.119,6.973c4.162,2.291 8.8,2.53 13.291,3.365c8.015,1.491 16.083,2.732 24.129,4.076c1.316,0.22 2.632,0.442 3.949,0.654c0.489,0.078 1.146,-0.154 1.355,0.47c0.255,0.763 -0.544,0.954 -0.988,1.221c-2.833,1.705 -5.622,3.501 -8.588,4.971c-1.647,0.816 -1.349,1.522 -0.48,2.496c2.837,3.18 5.775,6.281 8.521,9.529c1.375,1.627 3.332,2.88 3.917,5.062c6.4,0.107 12.8,0.16 19.2,0.094l0,-7.141l0.001,0zm-57.262,-29.879c-3.739,-0.706 -7.464,-1.493 -11.222,-2.099c-5.157,-0.832 -12.007,-4.643 -15.033,-9.019c8.797,3.487 17.594,6.973 26.391,10.46c-0.045,0.22 -0.09,0.439 -0.136,0.658z" fill="#344759"/>
    <path id="svg_5" d="m102.333,583.248c0.121,-0.109 0.241,-0.219 0.362,-0.328c0.429,0.01 0.808,-0.06 0.933,-0.53c0.753,-0.783 1.698,-1.27 2.745,-1.6c0.006,0.447 0.204,0.805 0.515,1.139c3.246,3.492 6.471,7.001 9.735,10.478c0.52,0.554 0.998,1.225 2.03,1.083c2.347,-0.322 4.71,-0.541 7.061,-0.84c6.392,-0.813 12.77,-1.751 19.18,-2.4c1.716,-0.174 3.42,-0.904 5.28,-0.233c7.451,2.687 14.935,5.292 22.428,7.87c1.981,0.681 2.076,1.524 0.633,2.833c-1.341,1.217 -0.974,1.989 0.731,2.526c4.456,1.405 8.885,2.888 13.329,4.329c0.635,0.206 1.469,0.283 1.647,0.951c1.166,4.367 2.927,8.582 3.709,13.045c-0.596,0.034 -1.191,0.099 -1.787,0.099c-44.399,-0.004 -88.798,-0.013 -133.198,-0.024c-0.448,0 -0.895,-0.041 -1.343,-0.064c0.135,-1.081 0.953,-1.73 1.701,-2.423c6.687,-6.192 13.449,-12.314 20.032,-18.604c3.495,-3.339 7.178,-6.381 11.432,-8.816c0.969,-0.555 2.254,-0.933 2.531,-2.246c0.425,-0.338 0.658,-0.916 1.326,-0.952c0.298,0.298 0.385,0.109 0.435,-0.168c0.131,-0.114 0.261,-0.227 0.392,-0.341c0.436,0.018 0.812,-0.066 0.97,-0.516c0.126,-0.112 0.251,-0.224 0.377,-0.336c0.421,0.015 0.794,-0.049 0.932,-0.504c1.608,-1.005 3.091,-2.194 4.875,-2.935c0.453,0.049 0.834,-0.033 1.007,-0.493zm6.503,32.142c0.606,0.496 1.137,0.353 1.614,0.247c11.138,-2.47 22.276,-4.943 33.406,-7.444c2.373,-0.533 2.472,-1.06 0.8,-2.844c-2.421,-2.582 -4.871,-5.144 -7.172,-7.821c-1.782,-2.072 -1.713,-2.146 -3.972,-0.487c-5.992,4.4 -11.996,8.787 -17.974,13.206c-2.254,1.666 -4.668,3.162 -6.702,5.143z" fill="#344759"/>
    <path id="svg_6" d="m120.46,572.175c1.076,0.247 1.864,-0.419 2.71,-0.817c9.247,-4.358 18.496,-8.711 27.701,-13.147c1.506,-0.726 2.583,-0.727 4.07,0.168c10.764,6.482 21.569,12.905 32.441,19.223c3.305,1.921 6.856,3.465 10.305,5.162c4.711,2.318 9.535,4.449 14.119,6.973c4.162,2.291 8.8,2.53 13.291,3.365c8.015,1.492 16.083,2.732 24.129,4.076c1.316,0.22 2.632,0.442 3.949,0.654c0.489,0.079 1.146,-0.154 1.355,0.47c0.255,0.763 -0.544,0.954 -0.988,1.221c-2.833,1.705 -5.622,3.501 -8.589,4.971c-1.647,0.816 -1.349,1.522 -0.48,2.496c2.837,3.179 5.775,6.281 8.521,9.529c1.375,1.627 3.332,2.88 3.917,5.062c-0.742,-0.006 -1.483,-0.012 -2.225,-0.018c0.124,-1.281 -1.038,-1.433 -1.854,-1.809c-9.88,-4.561 -19.778,-9.087 -29.655,-13.655c-0.878,-0.406 -1.581,-0.484 -2.505,-0.063c-3.701,1.686 -7.47,3.238 -11.166,4.934c-1.093,0.501 -1.94,0.421 -2.909,-0.174c-2.879,-1.768 -5.793,-3.484 -8.685,-5.233c-13.014,-7.869 -25.957,-15.84 -38.526,-24.341c-1.9,-1.285 -3.852,-2.3 -6.263,-2.573c-4.274,-0.485 -8.534,-1.117 -12.77,-1.841c-1.002,-0.171 -1.736,-0.046 -2.508,0.429c-4.881,3.002 -9.767,5.995 -14.637,9.012c-3.979,2.465 -3.841,2.425 -5.736,-1.714c-1.233,-2.692 -1.77,-5.71 -3.916,-8.004c1.997,-1.886 4.558,-2.968 6.904,-4.356z" fill="#736846"/>
    <path id="svg_7" d="m113.555,576.529c2.145,2.295 2.682,5.312 3.916,8.004c1.896,4.138 1.757,4.179 5.736,1.714c4.87,-3.017 9.757,-6.01 14.637,-9.012c0.772,-0.475 1.506,-0.6 2.508,-0.429c4.236,0.724 8.496,1.356 12.77,1.841c2.411,0.274 4.363,1.288 6.263,2.573c12.569,8.501 25.512,16.472 38.526,24.341c2.892,1.749 5.807,3.465 8.685,5.233c0.969,0.595 1.816,0.675 2.909,0.174c3.696,-1.696 7.465,-3.248 11.166,-4.934c0.924,-0.421 1.627,-0.343 2.505,0.063c9.877,4.568 19.775,9.094 29.655,13.655c0.816,0.377 1.978,0.529 1.854,1.809c-0.743,0.039 -1.485,0.111 -2.228,0.111c-19.192,0.006 -38.384,0.006 -57.576,0c-0.743,0 -1.487,-0.066 -2.23,-0.101c-0.782,-4.463 -2.543,-8.678 -3.709,-13.045c-0.178,-0.668 -1.012,-0.746 -1.647,-0.951c-4.444,-1.44 -8.873,-2.924 -13.329,-4.329c-1.705,-0.537 -2.072,-1.309 -0.731,-2.526c1.443,-1.309 1.348,-2.152 -0.633,-2.833c-7.494,-2.578 -14.978,-5.183 -22.428,-7.87c-1.86,-0.671 -3.564,0.06 -5.28,0.233c-6.41,0.649 -12.788,1.587 -19.18,2.4c-2.351,0.299 -4.714,0.518 -7.061,0.84c-1.032,0.142 -1.51,-0.53 -2.03,-1.083c-3.263,-3.477 -6.489,-6.986 -9.735,-10.478c-0.311,-0.335 -0.509,-0.692 -0.515,-1.139c1.586,-1.041 3.063,-2.24 4.85,-2.99c0.18,-0.101 0.36,-0.202 0.54,-0.303c0.614,-0.295 0.962,-1.032 1.792,-0.968z" fill="#535454"/>
    <path id="svg_8" d="m234.403,560.362c1.517,-2.029 0.028,-2.843 -1.587,-3.741c-9.87,-5.488 -19.718,-11.012 -29.566,-16.534c-0.971,-0.544 -1.892,-0.714 -2.941,-0.155c-0.704,0.376 -1.496,0.604 -2.249,0.898c-1.689,-1.571 -4.359,-1.645 -5.885,-3.465c0.513,-1.568 2.009,-2.351 3.119,-3.428c0.533,-0.517 1.109,-0.906 0.973,-1.719c5.052,1.471 9.724,3.819 14.595,5.708c7.409,2.873 14.762,5.878 22.119,8.87c0.94,0.382 1.762,1.025 2.639,1.546c0.204,0.483 0.666,0.706 1.064,1.019c3.1,2.438 6.728,4.23 9.559,6.996c-0.196,3.661 0.45,7.267 0.758,10.897c0.097,1.148 0.623,2.928 -0.326,3.359c-1.146,0.522 -1.821,-1.268 -2.792,-1.947c-3.483,-2.434 -6.133,-5.727 -9.48,-8.304z" fill="#98928C"/>
    <path id="svg_9" d="m276.11,571.175c-2.367,-1.396 -4.742,-2.78 -7.139,-4.129c-1.57,-0.883 -2.946,-2.39 -5.047,-2.317c0.267,0.33 0.463,0.768 0.812,0.975c3.921,2.332 7.65,4.92 11.374,7.515l0,-2.044z" fill="#E3E3E2"/>
    <path id="svg_10" d="m92.02,589.494c-0.278,1.313 -1.563,1.691 -2.531,2.246c-4.255,2.436 -7.938,5.477 -11.432,8.816c-6.583,6.29 -13.345,12.412 -20.032,18.604c-0.748,0.693 -1.567,1.342 -1.701,2.423c-0.587,0.195 -1.156,0.131 -2.324,-0.165c2.381,-2.185 4.352,-4.298 6.651,-6.016c2.129,-1.592 3.946,-3.449 5.873,-5.212c5.697,-5.213 11.264,-10.557 17.079,-15.646c2.43,-2.127 5.358,-3.744 8.417,-5.05z" fill="#7E684E"/>
    <path id="svg_11" d="m246.243,556.358c-2.831,-2.766 -6.459,-4.558 -9.559,-6.996c-0.398,-0.313 -0.86,-0.536 -1.064,-1.019c3.397,0.368 5.857,2.506 8.577,4.127c4.389,2.615 8.728,5.307 13.089,7.966c0.085,0.55 0.397,0.827 1.004,0.751c0.106,0.057 0.221,0.091 0.343,0.101c0.086,0.55 0.396,0.829 1.005,0.75c0.107,0.057 0.221,0.091 0.343,0.101c0.353,0.506 0.706,1.013 1.058,1.519c-4.806,-1.449 -9.261,-3.55 -13.32,-6.396c-0.47,-0.329 -0.983,-0.604 -1.476,-0.904z" fill="#A2A3A2"/>
    <path id="svg_12" d="m261.039,563.658c-0.352,-0.506 -0.705,-1.013 -1.058,-1.519c1.49,0.264 2.88,0.655 3.269,2.314c-0.92,0.192 -1.487,-0.497 -2.211,-0.795z" fill="#E3E3E2"/>
    <path id="svg_13" d="m259.638,562.038c-0.609,0.079 -0.92,-0.201 -1.005,-0.75c0.612,-0.084 0.962,0.148 1.005,0.75z" fill="#E3E3E2"/>
    <path id="svg_14" d="m258.29,561.186c-0.607,0.076 -0.919,-0.201 -1.004,-0.751c0.611,-0.082 0.961,0.15 1.004,0.751z" fill="#E3E3E2"/>
    <path id="svg_15" d="m103.628,582.39c-0.125,0.47 -0.504,0.54 -0.933,0.53c0.149,-0.433 0.525,-0.506 0.933,-0.53z" fill="#7E684E"/>
    <path id="svg_16" d="m102.333,583.248c-0.173,0.461 -0.553,0.542 -1.005,0.494c0.211,-0.39 0.588,-0.478 1.005,-0.494z" fill="#7E684E"/>
    <path id="svg_17" d="m96.453,586.677c-0.138,0.455 -0.511,0.519 -0.932,0.504c0.149,-0.435 0.523,-0.497 0.932,-0.504z" fill="#7E684E"/>
    <path id="svg_18" d="m95.143,587.517c-0.158,0.45 -0.534,0.534 -0.97,0.516c0.162,-0.445 0.553,-0.503 0.97,-0.516z" fill="#7E684E"/>
    <path id="svg_19" d="m111.763,577.497c-0.18,0.101 -0.36,0.202 -0.54,0.303c0.179,-0.102 0.359,-0.203 0.54,-0.303z" fill="#7E684E"/>
    <path id="svg_20" d="m93.781,588.374c-0.05,0.277 -0.137,0.466 -0.435,0.168c0.145,-0.056 0.29,-0.112 0.435,-0.168z" fill="#7E684E"/>
    <path id="svg_21" d="m276.11,585.756c-0.401,-0.151 -0.802,-0.302 -1.199,-0.461c-0.651,-0.261 -1.117,-0.234 -1.387,0.514c-1.002,2.775 -2.039,5.538 -3.064,8.306c2.388,-1.2 4.007,-3.053 5.651,-4.861l0,-3.498l-0.001,0z" fill="#958564"/>
    <path id="svg_22" d="m192.175,537.365c1.526,1.819 4.196,1.894 5.885,3.465c-2.275,2.095 -5.24,3.149 -7.909,4.639c-4.21,2.349 -8.311,4.891 -12.773,6.819l0.006,0.005c0.042,-0.206 0.008,-0.48 0.136,-0.608c4.84,-4.815 9.389,-9.897 14.655,-14.32z" fill="#5F5D5A"/>
    <path id="svg_23" d="m218.848,584.654c-3.739,-0.706 -7.464,-1.493 -11.222,-2.099c-5.157,-0.832 -12.007,-4.643 -15.033,-9.019c8.797,3.487 17.594,6.973 26.391,10.46c-0.045,0.22 -0.09,0.439 -0.136,0.658z" fill="#5F5D5A"/>
    <path id="svg_24" d="m177.378,552.287c-0.034,0.059 -0.068,0.118 -0.101,0.177c0.036,-0.057 0.071,-0.114 0.107,-0.171c0,0 -0.006,-0.006 -0.006,-0.006z" fill="#645337"/>
    <path id="svg_25" d="m108.836,615.39c2.034,-1.981 4.448,-3.477 6.703,-5.143c5.978,-4.418 11.981,-8.805 17.974,-13.206c2.259,-1.659 2.19,-1.585 3.972,0.487c2.301,2.676 4.752,5.238 7.172,7.821c1.672,1.784 1.572,2.311 -0.8,2.844c-11.13,2.501 -22.268,4.975 -33.406,7.444c-0.478,0.106 -1.009,0.248 -1.615,-0.247z" fill="#958564"/>
   </g>
   <g id="svg_26">
    <g id="svg_27">
     <path id="svg_28" d="m1130.404,584.255c-0.607,-0.848 -1.277,-1.492 -2.166,-1.846c-3.995,-1.595 -7.962,-3.307 -11.96,-4.888c-6.55,-2.59 -12.925,-5.933 -19.696,-7.572c-1.829,-1.316 -3.853,-2.005 -5.791,-2.969c-1.72,-0.855 -3.444,-1.693 -5.169,-2.531c-0.355,2.429 0.016,4.799 1.328,6.577c2.248,4.264 8.993,5.863 13.49,9.593c1.686,1.599 4.497,1.599 6.745,2.665c1.124,1.066 1.686,2.665 2.248,2.665c2.81,0.533 3.935,2.665 5.621,3.731c-9.555,0.533 -19.673,-2.132 -26.98,4.264c4.497,0.533 7.869,2.665 12.366,2.665c3.935,0 6.745,4.264 10.117,5.863c1.124,0.533 2.81,-0.533 3.373,0s0.562,2.665 0,2.665c-10.31,5.377 -21.091,8.516 -28.444,16.4c0.498,0.128 0.995,0.141 1.494,0.006c0.417,0.03 0.835,0.086 1.252,0.086c5.424,0.004 10.849,0.002 16.274,0c10.421,-9.643 21.677,-18.1 34.159,-25.869c-2.757,-3.834 -5.512,-7.667 -8.261,-11.505z" fill="#6E7372"/>
     <path id="svg_29" d="m1153.411,616.576c-0.32,-0.558 -0.601,-1.162 -0.965,-1.668c-4.267,-5.946 -8.548,-11.875 -12.822,-17.813c-0.321,-0.445 -0.64,-0.892 -0.961,-1.338c-12.482,7.769 -23.738,16.226 -34.159,25.869c2.392,-0.001 4.784,0.003 7.177,0c2.477,-0.003 4.954,-0.049 7.432,-0.076c0.419,0.026 0.838,0.049 1.257,0.08c4.325,0.328 8.596,-0.543 12.881,-1.014c1.698,-0.187 3.395,-0.453 5.094,-0.663c3.022,-0.374 6.037,-0.828 9.056,-1.248c1.944,-0.271 3.891,-0.513 5.828,-0.845c0.235,-0.04 0.683,0.079 0.759,-0.354c0.086,-0.49 -0.311,-0.689 -0.577,-0.93z" fill="#887B4D"/>
     <path id="svg_30" d="m1113.929,605.135c0.562,0 0.562,-2.132 0,-2.665s-2.248,0.533 -3.373,0c-3.372,-1.599 -6.183,-5.863 -10.117,-5.863c-4.497,0 -7.869,-2.132 -12.366,-2.665c7.307,-6.396 17.425,-3.731 26.98,-4.264c-1.686,-1.066 -2.81,-3.198 -5.621,-3.731c-0.562,0 -1.124,-1.599 -2.248,-2.665c-2.248,-1.066 -5.059,-1.066 -6.745,-2.665c-4.497,-3.731 -11.242,-5.33 -13.49,-9.593c-1.312,-1.777 -1.682,-4.148 -1.328,-6.577c-2.535,-1.231 -5.071,-2.455 -7.606,-3.686c-0.044,-0.111 -0.087,-0.222 -0.131,-0.333c-0.09,-0.091 -0.18,-0.181 -0.27,-0.272c-0.593,-0.214 -1.078,-0.877 -1.765,-0.696c-0.676,-0.383 -1.336,-0.822 -2.031,-1.137c-2.025,-0.918 -3.913,-2.353 -6.092,-2.696c-0.082,-0.015 -0.163,-0.033 -0.244,-0.055c-0.091,-0.329 -0.274,-0.375 -0.506,-0.275c-0.527,-0.324 -1.089,-0.581 -1.577,-0.984c-4.489,-3.711 -9.018,-7.338 -13.462,-11.143c-4.373,-3.745 -8.935,-7.123 -13.346,-10.798c-1.138,-0.948 -1.572,-0.707 -2.358,0.619c-1.538,2.595 -3.323,4.946 -5.006,7.399c-0.519,1.107 -1.32,1.668 -2.153,2.167c-0.119,0.071 -0.239,0.141 -0.359,0.211c0.12,-0.07 0.239,-0.14 0.359,-0.211c0.833,-0.498 1.635,-1.059 2.153,-2.167c-0.435,-0.205 -0.816,-0.003 -1.209,0.224c-3.904,2.252 -7.816,4.48 -11.716,6.742c-8.639,5.01 -17.186,10.293 -26.168,14.276c-1.138,0.505 -2.464,0.675 -3.336,1.991c-1.54,0.727 -3.251,0.859 -4.619,2.189c-1.943,1.079 -3.532,2.843 -5.205,4.445c-0.155,0.387 -0.348,0.722 -0.566,1.024c-0.218,0.301 -0.46,0.569 -0.713,0.82c0.253,-0.251 0.496,-0.519 0.713,-0.82c0.218,-0.301 0.411,-0.637 0.566,-1.024c-0.542,-0.131 -0.846,0.446 -1.206,0.752c-5.35,4.548 -10.709,9.08 -15.999,13.742c-1.395,1.229 -2.85,1.631 -4.461,1.746c-2.38,0.169 -4.757,0.413 -7.132,0.682c-3.452,0.391 -6.908,0.761 -10.348,1.289c-1.505,0.231 -3.047,-0.039 -4.495,0.385c-1.449,0.424 -2.888,0.541 -4.345,0.651c-0.049,0.102 -0.104,0.188 -0.164,0.26c0.06,-0.072 0.115,-0.159 0.164,-0.26c-0.545,-0.033 -1.09,-0.095 -1.635,-0.096c-8.836,-0.006 -17.671,-0.009 -26.507,0.004c-0.734,0.001 -1.368,-0.177 -2.013,-0.709c-3.633,-2.999 -7.266,-6.004 -10.977,-8.839c-0.884,-0.675 -1.658,-1.827 -2.841,-1.772c-0.127,-0.07 -0.253,-0.14 -0.38,-0.211c-0.219,-1.268 -1.002,-1.567 -1.84,-1.769c-0.069,-0.008 -0.133,-0.034 -0.193,-0.077c-0.024,-0.46 -0.221,-0.638 -0.566,-0.574c-0.069,-0.008 -0.133,-0.034 -0.193,-0.078c-0.024,-0.46 -0.221,-0.637 -0.565,-0.574c-2.455,-2.033 -4.897,-4.09 -7.368,-6.09c-1.531,-1.239 -2.916,-2.873 -4.828,-3.155c-0.494,-0.399 -0.957,-0.89 -1.486,-1.182c-4.142,-2.287 -8.281,-4.584 -12.452,-6.781c-2.742,-1.444 -5.372,-3.239 -8.216,-4.363c-1.234,-1.009 -2.598,-1.652 -3.971,-2.243c-0.56,-0.241 -1.094,-0.082 -1.637,0.432c-1.75,1.659 -3.561,3.211 -5.349,4.803c-3.13,2.787 -6.254,5.587 -9.394,8.356c-4.347,3.834 -8.69,7.677 -13.067,11.453c-3.057,2.636 -6.168,5.167 -9.256,7.744c-1.321,1.061 -2.762,1.889 -3.887,3.329c-0.467,-0.049 -0.663,0.514 -1.009,0.74c-0.101,0.077 -0.203,0.154 -0.304,0.231c-1.006,0.573 -1.837,1.49 -2.73,2.286c-0.589,0.253 -1.122,0.625 -1.545,1.223c-0.229,0.019 -0.441,0.075 -0.525,0.405c-0.068,0.084 -0.136,0.167 -0.204,0.251c-0.234,0.013 -0.447,0.08 -0.566,0.378c-1.004,0.567 -1.839,1.476 -2.744,2.244c-0.23,0.005 -0.44,0.053 -0.525,0.385c-0.071,0.086 -0.142,0.171 -0.212,0.257c-0.235,0.01 -0.455,0.054 -0.546,0.394c-0.074,0.087 -0.147,0.174 -0.221,0.261c-0.082,0.043 -0.163,0.086 -0.245,0.129c-0.376,0.027 -0.507,0.469 -0.746,0.727c-1.722,0.998 -3.37,2.234 -4.738,3.86c-3.274,3.891 -6.408,7.976 -9.615,11.961c-1.085,1.348 -2.108,2.768 -3.306,3.985c-1.294,1.314 -2.404,2.929 -3.744,4.599c0.657,0.226 0.978,0.276 1.308,0.126c0.252,0.017 0.504,0.049 0.756,0.049c24.994,0.009 49.988,0.016 74.982,0.018c0.335,0 0.67,-0.049 1.006,-0.076c0.418,0.027 0.837,0.077 1.255,0.077c10.804,0.004 21.608,0.004 32.412,0c0.418,0 0.836,-0.055 1.254,-0.085c0.418,0.005 0.835,0.009 1.253,0.014c4.897,0.111 9.794,0.15 14.691,-0.02c0.587,0.032 1.175,0.091 1.762,0.091c29.265,0.005 58.531,0.004 87.796,0.002c0.588,0 1.175,-0.036 1.763,-0.056c0.631,0.019 1.261,0.056 1.892,0.056c30.07,0 60.141,-0.003 90.211,-0.011c1.429,0 2.858,-0.055 4.286,-0.085c0.005,0.001 0.01,0.002 0.015,0.003c7.354,-7.88 18.135,-11.02 28.445,-16.396zm-275.628,-36.554c0,0 0,0 0,0c0.011,-0.077 0.013,-0.166 0.019,-0.248c-0.006,0.082 -0.008,0.17 -0.019,0.248zm11.639,-8.756c-0.8,1.001 -1.753,1.691 -2.721,2.346c0.968,-0.655 1.92,-1.346 2.721,-2.346c0.318,-0.169 0.648,-0.309 0.961,-0.49c-0.313,0.181 -0.643,0.321 -0.961,0.49zm56.889,30.623c-0.567,-0.005 -1.136,-0.047 -1.704,-0.066c0.567,0.019 1.137,0.06 1.704,0.066c0.242,1.798 0.475,3.597 0.714,5.396c-0.239,-1.799 -0.472,-3.599 -0.714,-5.396zm23.048,3.865c0.028,-0.184 0.04,-0.375 0.031,-0.574c0.009,0.2 -0.004,0.39 -0.031,0.574zm1.24,-0.275c0,0 0,-0.001 0,0c1.022,-0.034 2.021,0.181 3.019,0.399c-0.998,-0.219 -1.997,-0.433 -3.019,-0.399zm21.78,-2.676c0.042,0.094 0.071,0.183 0.087,0.269c-0.016,-0.085 -0.045,-0.175 -0.087,-0.269zm23.619,13.353c-0.253,-0.001 -0.505,-0.007 -0.758,0c0.253,-0.007 0.506,-0.001 0.758,0c1.116,0 1.613,-0.111 1.727,-0.738c-0.114,0.627 -0.611,0.738 -1.727,0.738zm41.902,-53.698c0.044,-0.036 0.089,-0.069 0.134,-0.105c-0.045,0.037 -0.09,0.069 -0.134,0.105zm0.865,0.162c0.071,-0.003 0.141,-0.01 0.212,-0.02c-0.07,0.01 -0.141,0.017 -0.212,0.02zm44.907,35.914c0,0 0,0 0,0c0.065,0.12 0.108,0.228 0.135,0.328c-0.027,-0.099 -0.071,-0.208 -0.135,-0.328zm2.553,-11.684l0,0c0.079,0.835 0.15,1.673 0.223,2.51c0.079,0.907 0.159,1.814 0.254,2.718c-0.094,-0.904 -0.175,-1.811 -0.254,-2.718c-0.072,-0.837 -0.143,-1.674 -0.223,-2.51z" fill="#535454"/>
     <path id="svg_31" d="m1066.966,577.919c0.079,0.907 0.159,1.814 0.254,2.718c-0.095,-0.904 -0.175,-1.811 -0.254,-2.718z" fill="#535454"/>
     <path id="svg_32" d="m1077.615,560.158c0.09,0.091 0.18,0.181 0.27,0.272c-0.015,-0.216 -0.11,-0.296 -0.27,-0.272z" fill="#535454"/>
    </g>
    <g id="svg_33">
     <path id="svg_34" d="m704.268,613.896c0.076,0.433 0.524,0.313 0.759,0.354c1.938,0.332 3.884,0.574 5.828,0.845c3.018,0.42 6.034,0.874 9.055,1.248c1.7,0.21 3.397,0.476 5.094,0.663c4.286,0.471 8.557,1.342 12.882,1.014c0.419,-0.032 0.838,-0.054 1.257,-0.08c2.477,0.026 4.955,0.073 7.432,0.076c7.817,0.01 15.633,0.005 23.45,0c0.417,0 0.835,-0.056 1.252,-0.086c0.503,0.136 1.006,0.122 1.508,-0.009c1.429,0.03 2.857,0.084 4.286,0.085c30.07,0.008 60.141,0.011 90.211,0.011c0.631,0 1.261,-0.036 1.892,-0.056c0.588,0.019 1.175,0.056 1.763,0.056c29.265,0.003 58.531,0.003 87.796,-0.002c0.587,0 1.175,-0.06 1.762,-0.091c4.897,0.17 9.794,0.131 14.691,0.02c0.418,-0.005 0.835,-0.009 1.253,-0.014c0.418,0.029 0.836,0.085 1.254,0.085c10.804,0.005 21.608,0.005 32.412,0c0.418,0 0.837,-0.05 1.255,-0.077c0.335,0.026 0.671,0.076 1.006,0.076c24.994,-0.003 49.988,-0.01 74.982,-0.018c0.252,0 0.504,-0.032 0.756,-0.049c0.33,0.149 0.651,0.1 1.308,-0.126c-1.34,-1.67 -2.45,-3.285 -3.744,-4.599c-1.199,-1.217 -2.221,-2.636 -3.306,-3.985c-3.207,-3.985 -6.341,-8.07 -9.615,-11.961c-1.368,-1.626 -3.016,-2.862 -4.738,-3.86c-0.24,-0.258 -0.371,-0.701 -0.746,-0.727c-0.082,-0.043 -0.163,-0.086 -0.245,-0.129c-0.074,-0.087 -0.147,-0.174 -0.221,-0.261c-0.091,-0.34 -0.311,-0.384 -0.546,-0.394c-0.071,-0.086 -0.141,-0.171 -0.212,-0.257c-0.084,-0.333 -0.295,-0.38 -0.525,-0.385c-0.905,-0.768 -1.74,-1.677 -2.744,-2.244c-0.119,-0.298 -0.331,-0.365 -0.566,-0.378c-0.068,-0.084 -0.136,-0.167 -0.204,-0.251c-0.084,-0.331 -0.296,-0.386 -0.525,-0.405c-0.424,-0.599 -0.956,-0.971 -1.545,-1.223c-0.893,-0.796 -1.724,-1.713 -2.73,-2.286c-0.101,-0.077 -0.203,-0.154 -0.304,-0.231c-0.346,-0.225 -0.542,-0.789 -1.009,-0.74c-1.125,-1.44 -2.567,-2.267 -3.887,-3.329c-3.087,-2.578 -6.199,-5.108 -9.256,-7.744c-4.378,-3.776 -8.72,-7.619 -13.067,-11.453c-3.14,-2.769 -6.264,-5.569 -9.394,-8.356c-1.788,-1.592 -3.6,-3.144 -5.349,-4.803c-0.543,-0.514 -1.077,-0.673 -1.637,-0.432c-1.373,0.591 -2.737,1.234 -3.971,2.243c-2.844,1.125 -5.474,2.919 -8.216,4.363c-4.171,2.196 -8.31,4.493 -12.452,6.781c-0.529,0.292 -0.992,0.783 -1.486,1.182c-1.912,0.282 -3.297,1.915 -4.828,3.155c-2.471,1.999 -4.913,4.057 -7.368,6.09c-0.344,-0.063 -0.541,0.114 -0.565,0.574c-0.06,0.044 -0.124,0.07 -0.193,0.078c-0.345,-0.064 -0.542,0.113 -0.566,0.574c-0.06,0.043 -0.124,0.069 -0.193,0.077c-0.839,0.202 -1.621,0.5 -1.84,1.769l0,0c-0.126,0.07 -0.253,0.141 -0.38,0.211c-1.183,-0.055 -1.958,1.096 -2.841,1.772c-3.711,2.835 -7.344,5.84 -10.977,8.839c-0.645,0.532 -1.278,0.71 -2.013,0.709c-8.836,-0.013 -17.671,-0.01 -26.507,-0.004c-0.545,0 -1.09,0.062 -1.635,0.096c0.049,0.102 0.104,0.188 0.164,0.26c-0.06,-0.072 -0.115,-0.159 -0.164,-0.26c-1.457,-0.11 -2.896,-0.227 -4.345,-0.651c-1.448,-0.423 -2.99,-0.154 -4.495,-0.385c-3.44,-0.528 -6.896,-0.897 -10.348,-1.289c-2.375,-0.269 -4.752,-0.513 -7.132,-0.682c-1.611,-0.115 -3.066,-0.516 -4.461,-1.746c-5.29,-4.662 -10.649,-9.194 -15.999,-13.742c-0.361,-0.307 -0.664,-0.884 -1.206,-0.752c0.155,0.387 0.348,0.722 0.566,1.024c0.218,0.301 0.46,0.569 0.714,0.82c-0.253,-0.251 -0.496,-0.519 -0.714,-0.82c-0.218,-0.301 -0.411,-0.637 -0.566,-1.024c-1.673,-1.602 -3.262,-3.367 -5.205,-4.445c-1.368,-1.33 -3.079,-1.462 -4.619,-2.189c-0.872,-1.316 -2.197,-1.486 -3.336,-1.991c-8.981,-3.983 -17.528,-9.267 -26.168,-14.276c-3.9,-2.262 -7.813,-4.49 -11.716,-6.742c-0.393,-0.227 -0.774,-0.43 -1.209,-0.224c0.593,1.266 1.554,1.818 2.512,2.378c-0.957,-0.56 -1.919,-1.112 -2.512,-2.378c-1.683,-2.452 -3.469,-4.804 -5.006,-7.399c-0.786,-1.327 -1.22,-1.567 -2.358,-0.619c-4.411,3.675 -8.973,7.053 -13.346,10.798c-4.444,3.805 -8.974,7.432 -13.462,11.143c-0.488,0.403 -1.049,0.659 -1.577,0.984c-0.232,-0.099 -0.415,-0.053 -0.506,0.275c-0.081,0.022 -0.162,0.04 -0.244,0.055c-2.179,0.343 -4.066,1.778 -6.092,2.696c-0.695,0.315 -1.355,0.755 -2.031,1.137c-0.687,-0.18 -1.172,0.483 -1.765,0.696c-0.09,0.091 -0.18,0.181 -0.27,0.272c-0.044,0.111 -0.087,0.222 -0.131,0.333c-4.26,2.068 -8.528,4.105 -12.775,6.217c-1.938,0.964 -3.962,1.653 -5.791,2.969c-6.771,1.639 -13.147,4.982 -19.696,7.572c-3.998,1.581 -7.965,3.293 -11.96,4.888c-0.888,0.355 -1.559,0.999 -2.166,1.846c-3.069,4.285 -6.143,8.564 -9.221,12.84c-4.274,5.938 -8.555,11.867 -12.822,17.813c-0.364,0.506 -0.645,1.11 -0.965,1.668c-0.265,0.24 -0.661,0.439 -0.575,0.929zm89.798,-30.413c-0.064,0.12 -0.108,0.228 -0.135,0.328c0.027,-0.1 0.07,-0.209 0.135,-0.328c0,0 0,0 0,0zm44.695,-35.934c0.07,0.01 0.141,0.016 0.212,0.02c-0.071,-0.004 -0.142,-0.011 -0.212,-0.02zm0.943,-0.247c0.044,0.036 0.09,0.068 0.134,0.105l0,0c-0.044,-0.036 -0.089,-0.069 -0.134,-0.105zm-48.192,24.497c-0.165,1.741 -0.295,3.49 -0.476,5.228c0.181,-1.738 0.311,-3.487 0.476,-5.228c0,0 0,0 0,0zm113.847,15.953c-0.042,0.094 -0.071,0.183 -0.087,0.269c0.016,-0.086 0.045,-0.175 0.087,-0.269l0,0zm23.02,2.951c-0.028,-0.184 -0.04,-0.374 -0.031,-0.574l0,0c-0.009,0.199 0.003,0.389 0.031,0.574zm-1.24,-0.276c0,0 0,0 0,0c-1.022,-0.034 -2.021,0.181 -3.019,0.399c0.998,-0.218 1.997,-0.433 3.019,-0.399zm81.177,-34.213c0.8,1.001 1.752,1.691 2.721,2.346c-0.969,-0.655 -1.921,-1.345 -2.721,-2.346c-0.318,-0.168 -0.648,-0.309 -0.961,-0.49c0.313,0.181 0.643,0.321 0.961,0.49zm11.619,8.508c0.007,0.082 0.009,0.171 0.02,0.248c0,0 0,0 0,0c-0.012,-0.077 -0.013,-0.166 -0.02,-0.248zm-69.222,27.511c0.239,-1.798 0.473,-3.598 0.714,-5.396c0.567,-0.005 1.137,-0.047 1.704,-0.066c-0.568,0.019 -1.138,0.061 -1.704,0.066c-0.242,1.798 -0.475,3.597 -0.714,5.396zm-70.7,8.133c0.114,0.627 0.611,0.738 1.727,0.738c0.253,0 0.505,-0.007 0.758,0.001c-0.252,-0.007 -0.505,-0.001 -0.758,0c-1.117,-0.001 -1.614,-0.112 -1.727,-0.739z" fill="#2E3A4D"/>
     <path id="svg_35" d="m780.641,556.548c-0.09,0.091 -0.18,0.181 -0.27,0.272c0.014,-0.216 0.11,-0.297 0.27,-0.272z" fill="#2E3A4D"/>
    </g>
    <g id="svg_36">
     <path id="svg_37" d="m550.64,406.297c0.279,0.769 0.865,1.198 1.762,1.336c4.564,0.699 7.094,3.793 10.117,6.49c5.264,4.695 9.85,10.039 16.109,13.815c-0.253,10.932 -0.498,21.865 -0.773,32.797c-0.021,0.838 -0.352,1.67 -0.363,2.507c-0.053,3.947 -2.324,7.855 -0.112,11.849c3.006,5.429 6.06,10.845 8.801,16.381c2.481,5.012 6.521,9.832 3.316,15.872c-0.562,1.059 0.297,1.767 1.69,1.79c3.459,0.058 6.742,0.045 9.929,-1.791c7.287,-4.197 14.826,-8.046 22.229,-12.087c1.766,-0.964 2.517,-0.464 2.924,1.165c0.722,2.888 1.534,5.757 2.285,8.639c3.76,14.431 8.576,28.64 12.213,43.074c6.121,24.287 13.882,48.325 15.902,73.328c-1.9,0 -3.8,-0.001 -5.7,-0.001c-0.005,-7.983 -0.049,-15.966 0.012,-23.949c0.014,-1.863 -0.419,-3.514 -1.351,-5.189c-5.935,-10.668 -11.785,-21.372 -17.648,-32.072c-0.415,-0.758 -0.856,-1.543 -1.033,-2.359c-1.258,-5.806 -2.315,-11.649 -3.702,-17.43c-1.319,-5.501 -1.425,-11.313 -4.983,-16.672c-0.527,0.745 -0.977,1.215 -1.227,1.759c-6.357,13.834 -12.683,27.678 -19.041,41.512c-1.113,2.422 -1.416,4.799 -0.823,7.44c1.253,5.587 2.124,11.241 3.208,16.859c1.942,10.07 2.757,20.332 6.441,30.105c-13.129,0.003 -26.257,0.007 -39.386,0.01c0,-2.726 0,-5.453 0,-8.179c-0.167,-0.014 -0.335,-0.028 -0.502,-0.042c-0.56,2.74 -1.12,5.481 -1.68,8.221c-3.934,0 -7.868,0 -12.903,0c4.631,-2.228 3.278,-5.6 3.595,-8.572c0.288,-2.696 -2.479,-2.057 -3.96,-2.635c-1.478,-0.577 -2.502,0.166 -2.471,1.724c-0.294,-0.324 -0.674,-0.612 -0.871,-0.978c-7.535,-13.982 -10.274,-29.189 -14.117,-44.112c-0.351,-1.364 0.107,-2.521 1.945,-2.89c1.386,-0.278 2.718,-0.784 4.11,-1.02c2.382,-0.404 3.148,-1.511 3.292,-3.732c0.258,-3.988 1.292,-7.931 1.696,-11.917c0.466,-4.602 1.903,-9.132 1.26,-13.841c-2.071,6.513 -4.141,13.026 -6.416,20.182c-0.808,-1.151 -1.227,-1.549 -1.396,-2.018c-2.979,-8.274 -6.042,-16.527 -8.84,-24.849c-1.724,-5.127 -3.424,-10.168 -8.598,-13.506c-0.731,-0.472 -1.197,-1.616 -2.267,-1.229c-1.096,0.398 -0.623,1.514 -0.589,2.295c0.468,10.625 -1.168,21.21 -0.766,31.833c0.03,0.789 0.418,1.818 -0.68,2.294c-1.1,0.477 -1.694,-0.432 -2.421,-0.939c-6.26,-4.365 -12.656,-8.585 -18.721,-13.155c-2.095,-1.578 -4.919,-2.451 -5.57,-5.745c-2.487,-12.575 -5.629,-25.046 -8.244,-37.602c-0.566,-2.717 -1.453,-2.288 -3.288,-1.173c-4.521,2.747 -9.184,5.318 -13.582,8.211c-2.689,1.769 -3.443,0.929 -3.908,-1.499c-0.837,-4.369 -1.733,-8.731 -2.732,-13.073c-0.786,-3.419 -1.064,-3.47 -4.079,-1.314c-0.463,0.331 -0.824,0.78 -1.299,1.094c-3.599,2.378 -6.539,5.511 -10.613,7.343c-1.684,-3.606 -3.494,-7.17 -5.013,-10.83c-1.305,-3.144 -3.467,-6.036 -3.69,-9.514c1.053,-0.149 2.014,-0.13 3.094,0.234c2.031,0.684 4.064,1.396 6.4,0.378c1.01,-0.441 2.503,-0.198 3.813,0.204c1.78,0.547 3.748,0.767 5.46,-0.136c3.936,-2.076 8.337,-1.808 12.368,-1.215c3.213,0.473 5.981,0.288 8.282,-1.299c3.446,-2.376 7.874,-3.131 11.119,-5.779c0.53,-0.432 1.456,-1.166 2.535,-0.715c-1.728,3.271 -5.006,5.355 -7.848,7.678c-2.624,2.144 -3.056,4.026 -1.657,6.89c2.938,6.016 5.466,12.191 8.261,18.264c1.484,3.226 2.483,6.668 5.053,10.183c2.874,-12.642 5.593,-24.607 8.515,-37.459c5.02,6.591 8.099,12.933 13.187,19.109c0.195,-2.116 0.237,-3.275 0.417,-4.416c1.61,-10.225 3.143,-20.461 4.924,-30.663c0.67,-3.839 0.353,-7.949 2.234,-11.469c2.961,-5.541 6.695,-10.75 9.818,-16.228c2.458,-4.312 6.077,-8.125 7.219,-13.016c2.362,-0.823 2.479,-3.336 4.314,-4.556c1.67,0 3.342,0 5.014,0z" fill="#313E4A"/>
     <path id="svg_38" d="m1045.157,607.921c2.135,0.784 3.856,2.4 4.148,4.127c0.757,4.471 4.711,6.34 7.916,8.882c0,0.213 0,0.426 0,0.639c-3.595,-0.032 -7.19,-0.064 -10.784,-0.096c0.173,-4.563 -1.783,-8.965 -1.28,-13.552z" fill="#98928C"/>
     <path id="svg_39" d="m446.823,490.654c4.072,-1.832 7.013,-4.966 10.612,-7.343c0.475,-0.314 0.836,-0.763 1.299,-1.094c3.015,-2.156 3.293,-2.105 4.079,1.314c0.998,4.342 1.895,8.704 2.732,13.073c0.465,2.428 1.219,3.268 3.908,1.499c4.398,-2.893 9.061,-5.464 13.582,-8.211c1.835,-1.115 2.722,-1.544 3.288,1.173c2.615,12.557 5.757,25.028 8.244,37.602c0.651,3.294 3.475,4.167 5.57,5.745c6.065,4.57 12.462,8.79 18.721,13.155c0.728,0.507 1.321,1.416 2.421,0.939c1.098,-0.476 0.71,-1.504 0.68,-2.294c-0.402,-10.624 1.234,-21.208 0.766,-31.833c-0.034,-0.781 -0.507,-1.898 0.589,-2.295c1.07,-0.388 1.536,0.757 2.267,1.229c5.174,3.338 6.874,8.379 8.598,13.506c2.799,8.323 5.861,16.575 8.84,24.849c0.169,0.469 0.588,0.867 1.396,2.018c2.275,-7.156 4.346,-13.669 6.416,-20.182c0.643,4.71 -0.794,9.239 -1.26,13.841c-0.404,3.986 -1.438,7.93 -1.696,11.917c-0.144,2.221 -0.91,3.328 -3.292,3.732c-1.392,0.236 -2.724,0.742 -4.11,1.02c-1.837,0.369 -2.296,1.526 -1.945,2.89c3.842,14.923 6.581,30.13 14.117,44.112c0.197,0.366 0.577,0.654 0.871,0.978c0,0 0.147,0.096 0.147,0.096s-0.044,0.157 -0.044,0.158c-0.11,2.319 1.686,4.126 2.123,6.298c-0.844,1.024 -1.377,-0.218 -2.066,-0.215c-0.642,0.003 -1.881,-0.026 -1.515,0.75c1.736,3.686 -1.676,2.4 -3.08,2.426c-5.914,0.111 -11.833,-0.007 -17.75,-0.041c0,-2.948 0,-5.895 0,-8.842c-0.262,0 -0.525,0 -0.787,0c0,2.948 0,5.895 0,8.843c-3.573,0.002 -7.146,0.003 -10.719,0.005c-0.952,-5.194 -1.994,-10.376 -2.832,-15.584c-1.058,-6.581 -1.983,-13.18 -2.896,-19.779c-0.37,-2.672 -2.953,-2.329 -4.674,-2.471c-1.772,-0.146 -1.078,1.635 -0.997,2.5c0.463,4.945 1.073,9.88 1.673,14.814c0.83,6.819 1.696,13.634 2.546,20.451c-1.406,0.022 -2.813,0.044 -4.22,0.066c0.712,-3.226 -0.891,-5.016 -4.394,-5.625c0.025,-0.531 -0.049,-1.083 0.091,-1.589c1.31,-4.769 1.877,-9.529 0.728,-14.43c-0.398,-1.697 -2.115,-3.961 1.17,-5.155c0.156,-0.057 0.19,-0.617 0.114,-0.908c-1.725,-6.609 -3.474,-13.214 -5.211,-19.792c-1.118,0.185 -1.14,0.668 -1.077,1.05c0.993,6.047 1.844,12.118 3.115,18.119c0.5,2.363 -0.414,2.849 -2.635,2.894c-4.263,0.087 -8.502,0.473 -12.691,1.173c-1.723,0.288 -2.696,-0.573 -3.642,-1.547c-7.53,-7.754 -15.111,-15.47 -22.523,-23.312c-1.983,-2.098 -4.282,-4.011 -4.192,-7.374c0.087,-3.239 -0.969,-6.503 -1.524,-9.756c-0.45,4.675 0.009,9.304 0.171,13.94c0.211,6.035 0.934,12.043 1.056,18.087c0.058,2.846 -0.095,5.933 1.165,8.748c-0.005,1.044 -0.01,2.087 -0.015,3.131c-0.44,0.273 -0.437,0.542 0.012,0.805c0.041,7.206 0.576,14.385 1.445,21.547c-0.92,-0.023 -1.84,-0.046 -2.759,-0.069c0,-3.449 0,-6.897 0,-10.346c-0.509,0.014 -1.018,0.028 -1.528,0.041c0,3.443 0,6.887 0,10.33c-4.281,0.01 -8.563,0.021 -12.844,0.031c-0.004,-7.551 -0.027,-15.102 0.005,-22.653c0.006,-1.417 -0.261,-2.696 -1.055,-3.957c-4.711,-7.491 -9.272,-15.058 -14.074,-22.501c-2.282,-3.538 -4.059,-7.366 -7.03,-10.65c-1.301,1.091 -0.742,2.33 -0.756,3.414c-0.073,5.636 0.274,11.291 -0.132,16.905c-0.727,10.057 -1.459,20.071 0.767,30.067c0.689,3.094 1.838,6.156 1.475,9.39c-1.046,0.273 -1.95,-0.105 -2.852,-0.494c1.162,-6.733 -3.645,-11.285 -7.377,-16.309c-0.512,5.666 -0.37,11.26 -1.254,16.796c-1.426,-0.001 -2.853,-0.003 -4.279,-0.004c-0.66,-1.734 -0.988,-3.524 -0.631,-5.328c2.304,-11.64 4.766,-23.256 6.906,-34.92c0.52,-2.835 2.024,-5.819 0.219,-8.721c-4.154,-6.679 -8.402,-13.312 -12.548,-19.995c-1.845,-2.974 -3.535,-6.024 -5.669,-9.681c9.346,3.46 17.792,6.588 26.965,9.984c-4.385,-13.102 -8.409,-25.391 -12.629,-37.627c-2.337,-6.778 -2.511,-6.898 5.348,-7.933c9.18,-1.209 17.929,-3.003 24.285,-9.776c0.939,-1.001 2.763,-1.33 2.905,-2.983c2.394,-0.718 4.391,-1.91 5.777,-3.832zm61.483,65.875c-0.808,0.803 -0.476,1.373 -0.198,1.973c6.112,13.204 12.233,26.405 18.297,39.627c0.799,1.742 1.888,1.948 3.571,1.048c2.646,-1.415 5.215,-2.999 8.014,-4.12c2.96,-1.186 2.479,-2.313 0.833,-4.212c-7.463,-8.607 -14.727,-17.35 -22.202,-25.948c-2.55,-2.932 -5.158,-5.874 -8.315,-8.368zm-60.297,15.123c0.299,-0.197 0.597,-0.394 0.896,-0.592c-3.723,-4.653 -7.445,-9.305 -11.168,-13.958c-0.312,0.206 -0.624,0.412 -0.935,0.618c3.453,4.831 6.361,10.023 11.207,13.932zm-14.802,-20.312c-1.103,-2.213 -2.017,-3.803 -4.689,-5.118c1.128,2.4 1.806,4.157 4.689,5.118zm66.874,21.204c0.492,-1.758 -0.322,-2.8 -0.775,-4.579c-0.195,2.536 -0.195,2.536 0.775,4.579zm-46.537,4.682c0.199,-0.83 -0.196,-1.215 -0.631,-1.538c-0.475,-0.353 -0.981,-1.017 -1.721,0.03c0.524,0.674 0.9,1.522 2.352,1.508zm-2.483,-3.582c-0.413,-0.402 -0.643,-0.773 -0.995,-0.932c-0.45,-0.204 -0.994,-0.079 -0.851,0.491c0.082,0.329 0.501,0.641 0.855,0.839c0.134,0.074 0.51,-0.195 0.991,-0.398zm-15.51,-17.696c0.2,0.078 0.4,0.156 0.6,0.234c0.087,-0.179 0.286,-0.394 0.231,-0.525c-0.054,-0.127 -0.413,-0.268 -0.554,-0.217c-0.145,0.052 -0.189,0.328 -0.277,0.508zm-1.186,-2.465c-0.086,0.178 -0.172,0.357 -0.258,0.535c0.2,0.077 0.444,0.252 0.589,0.202c0.143,-0.05 0.296,-0.368 0.239,-0.496c-0.057,-0.127 -0.369,-0.164 -0.57,-0.241z" fill="#565144"/>
     <path id="svg_40" d="m656.669,621.464c-2.021,-25.004 -9.781,-49.041 -15.902,-73.328c-3.638,-14.434 -8.453,-28.644 -12.213,-43.074c-0.751,-2.882 -1.563,-5.752 -2.285,-8.639c-0.407,-1.629 -1.159,-2.129 -2.924,-1.165c-7.402,4.04 -14.941,7.889 -22.229,12.087c-3.187,1.835 -6.47,1.849 -9.929,1.791c-1.394,-0.023 -2.252,-0.732 -1.69,-1.79c3.206,-6.04 -0.835,-10.86 -3.316,-15.872c-2.741,-5.537 -5.795,-10.952 -8.801,-16.381c-2.212,-3.995 0.059,-7.902 0.112,-11.849c0.011,-0.837 0.342,-1.669 0.363,-2.507c0.275,-10.932 0.52,-21.864 0.773,-32.797c3.85,1.572 5.426,5.149 8.357,7.538c4.595,3.745 6.161,9.237 9.599,13.698c2.379,3.088 5.386,5.328 8.229,7.836c0.537,0.474 1.214,0.688 1.576,1.461c1.135,2.424 2.583,4.096 6.002,2.193c1.35,-0.752 3.038,-0.746 3.275,-2.676c0.078,-0.636 1.094,-1.383 2.238,-1.251c2.149,1.533 4.28,3.11 7.337,2.591c2.283,-0.388 5.147,2.007 6.637,-0.076c1.098,-1.534 0.367,-4.109 0.45,-6.22c1.703,-0.376 3.241,0.06 4.025,1.375c1.596,2.677 4.428,3.389 7.295,3.572c10.88,0.693 18.16,6.102 23.733,13.901c1.651,2.31 3.417,4.501 6.516,5.425c-0.073,1.294 -0.051,2.476 1.584,3.173c4.446,1.896 8.841,3.888 13.561,5.214c0.018,1.335 -0.558,2.374 -1.55,3.422c-2.895,3.06 -5.665,6.03 -5.255,10.656c0.192,2.171 -0.349,4.604 -0.522,6.923c-0.062,0.832 -0.247,1.859 -1.3,2.057c-0.975,0.183 -1.253,-0.872 -1.672,-1.427c-5.176,-6.864 -10.282,-13.771 -15.437,-20.648c-0.477,-0.636 -0.721,-1.287 -0.946,-2.016c-1.925,-6.223 -3.964,-12.418 -5.874,-18.645c-0.582,-1.899 -1.382,-2.325 -3.442,-1.294c-3.519,1.762 -7.171,3.323 -10.831,4.846c-1.93,0.803 -2.192,1.788 -1.522,3.547c2.333,6.122 4.503,12.294 6.662,18.468c0.72,2.059 1.863,3.845 3.339,5.549c7.613,8.791 15.189,17.608 22.707,26.464c3.758,4.426 7.954,8.066 13.844,10.512c11.003,4.569 21.578,9.95 32.401,14.872c3.801,1.729 7.436,3.813 11.618,4.826c2.47,1.488 4.689,3.176 5.764,5.771c-0.745,5.754 -1.485,11.508 -2.239,17.26c-0.105,0.799 0.407,1.837 -0.639,2.314c-1.255,0.573 -1.893,-0.528 -2.693,-1.086c-6.617,-4.62 -13.224,-9.25 -19.841,-13.87c-3.505,-2.447 -3.487,-2.426 -6.057,0.893c-2.49,3.216 -5.174,6.319 -7.527,9.611c-6.398,8.954 -11.145,18.705 -16.804,28.018c-0.85,1.398 -1.257,3.303 -2.548,4.13c-2.082,1.333 -1.958,-2.343 -4.003,-1.981c-0.816,-3.145 -1.631,-6.29 -2.445,-9.436c-0.165,0.014 -0.329,0.028 -0.494,0.042c0,0.823 0,1.646 0,2.469c-1.47,0.01 -1.894,-1.015 -2.544,-1.919c-2.43,-3.382 -4.946,-6.715 -7.414,-10.076c-0.388,-0.528 -0.699,-1.261 -1.527,-1.08c-0.888,0.195 -0.706,1.018 -0.678,1.615c0.553,11.606 -1.378,23.29 1.383,34.825c-1.412,0.402 -2.849,0.298 -4.287,0.158z" fill="#535454"/>
     <path id="svg_41" d="m872.783,517.998c3.125,0.648 4.841,1.94 5.503,5.194c0.692,3.4 4.635,5.297 7.283,7.766c5.404,5.039 12.752,7.997 17.786,13.49c1.559,1.701 3.609,3.521 6.917,3.094c2.868,-0.371 3.402,2.993 5.835,3.614c0.219,4.588 -1.31,8.988 -1.838,13.498c-0.555,4.747 -2.585,9.329 -0.429,14.282c2.202,5.057 3.648,10.376 5.425,15.58c3.084,-4.3 5.088,-8.804 7.674,-13.024c2.458,-4.01 2.844,-8.149 2.814,-12.564c-0.037,-5.494 -0.752,-11.037 0.724,-16.487c1.889,0.34 3.239,1.531 4.106,2.831c1.973,2.957 4.598,5.144 7.578,7.332c2.432,1.786 5.02,1.937 7.607,2.671c-0.694,5.12 -1.834,10.18 1.495,15.096c3.003,4.435 5.018,9.432 8.265,13.7c6.351,8.348 6.763,18.054 8.871,27.396c-16.495,-0.003 -32.989,-0.006 -49.484,-0.008c-0.741,-4.373 -1.578,-8.735 -2.192,-13.122c-0.46,-3.283 -1.751,-6.023 -4.819,-8.067c-4.784,-3.186 -8.696,-7.219 -12.998,-10.874c-1.093,-0.928 -2.284,-1.939 -4.639,-2.028c3.773,4.185 7.305,7.858 10.515,11.743c2.417,2.925 5.877,5.24 6.715,9.148c0.932,4.347 2.092,8.656 3.153,12.981c-5.896,0.731 -11.821,0.222 -17.731,0.301c-6.043,0.081 -12.088,-0.04 -18.133,-0.072c-0.117,-0.832 -0.122,-1.691 -0.369,-2.49c-2.384,-7.723 -4.829,-15.431 -7.216,-23.153c-2.17,-7.019 -4.426,-14.003 -8.819,-20.25c-0.321,-1.644 -1.445,-2.96 -2.266,-4.401c-0.136,-0.51 -0.18,-1.057 -0.423,-1.522c-5.171,-9.912 -10.369,-19.813 -15.548,-29.722c-0.551,-1.054 -1.525,-2.056 -0.783,-3.737c0.471,0.756 0.746,1.209 1.033,1.656c3.369,5.242 6.008,11.029 10.292,15.589c5.702,6.071 12.681,11.19 19.125,16.706c0.478,0.409 1.004,1.09 1.774,0.504c0.524,-0.399 0.197,-0.977 -0.008,-1.48c-1.583,-3.885 -3.475,-7.697 -4.674,-11.675c-2.693,-8.928 -8.563,-17.395 -5.016,-27.293c1.586,-4.423 2.918,-8.885 6.895,-12.203z" fill="#6E7372"/>
     <path id="svg_42" d="m274.789,564.125c7.008,-3.961 13.632,-8.475 21.16,-11.688c1.24,0.24 2.542,0.026 3.686,0.877c3.617,2.691 7.205,5.436 11.041,7.864c4.102,2.597 7.553,5.975 12.127,7.992c1.452,3.958 2.562,7.98 2.879,12.152c-1.305,5.158 -1.716,10.425 -2.424,15.657c-1.104,8.161 -2.238,16.319 -3.359,24.478c-23.64,0 -47.28,0.001 -70.92,0.001c-0.009,-2.963 0.008,-5.926 -0.046,-8.888c-0.014,-0.744 -0.261,-1.611 -1.366,-1.476c-0.942,0.115 -0.748,0.982 -0.711,1.558c0.193,2.968 -1.218,5.824 -0.736,8.806c-11.386,-0.085 -22.763,0.416 -34.169,-0.25c-3.518,-0.206 -7.3,0.193 -10.961,0.316c0.012,-2.307 2.176,-3.451 3.527,-4.982c3.736,-4.238 6.979,-9.11 11.617,-12.376c15.267,-10.752 31.121,-20.837 46.614,-31.339c3.414,-2.314 7.522,-3.973 9.891,-7.42c0.147,-0.121 0.311,-0.221 0.49,-0.299c0.983,0.246 1.604,0.01 1.66,-0.983z" fill="#344759"/>
     <path id="svg_43" d="m441.048,494.486c-0.142,1.653 -1.966,1.982 -2.905,2.983c-6.356,6.773 -15.105,8.567 -24.285,9.776c-7.859,1.035 -7.685,1.154 -5.348,7.933c4.219,12.236 8.243,24.525 12.629,37.627c-9.173,-3.396 -17.619,-6.524 -26.965,-9.984c2.134,3.656 3.824,6.707 5.669,9.681c4.146,6.683 8.394,13.316 12.548,19.995c1.805,2.902 0.301,5.887 -0.219,8.721c-2.14,11.663 -4.602,23.28 -6.906,34.92c-0.357,1.804 -0.029,3.594 0.631,5.328c-3.069,-0.02 -6.138,-0.04 -9.207,-0.06c-2.65,-5.106 -5.895,-9.91 -9.317,-14.624c-0.255,-1.87 -2.854,-2.424 -3.055,-4.324c-0.24,-0.7 -0.346,-1.467 -0.74,-2.089c-3.796,-5.998 -7.591,-11.998 -11.485,-17.945c-4.04,-6.171 -7.358,-12.866 -15.139,-16.34c-2.214,-0.988 -4.195,-2.404 -6.237,-3.681c-2.154,-1.348 -3.757,-2.729 -3.82,-5.567c-0.044,-2.004 -0.44,-4.178 -0.8,-6.261c-1.028,-5.937 -1.74,-11.917 -2.577,-17.881c1.059,-0.743 2.233,-1.212 3.607,-1.206c2.337,0.882 1.592,3.773 4.055,5.158c0.155,-2.682 1.23,-4.807 0.962,-7.118c6.226,-2.83 11.959,-6.593 19.315,-7.165c4.281,-0.333 7.413,-3.04 10.273,-5.596c1.09,-0.974 1.99,-1.823 3.451,-2.258c0.979,-0.291 2.389,-0.594 2.723,-1.25c2.034,-3.99 6.743,-4.657 10.207,-6.845c3.222,-2.035 5.421,-4.813 7.372,-7.822c1.534,-2.366 3.284,-4.596 6.555,-5.37c1.767,-0.418 2.832,-2.03 3.021,-3.198c0.642,-3.967 3.368,-6.436 6.27,-9.187c4.1,-3.887 9.064,-6.582 13.856,-9.564c0.205,1.823 -1.536,2.544 -2.651,3.547c-10.153,9.134 -10.167,9.122 -10.155,22.019c0,0.425 0.039,0.853 -0.006,1.275c-0.308,2.885 0.983,2.904 3.526,1.855c4.942,-2.04 9.921,-4.044 15.147,-5.483z" fill="#313E4A"/>
     <path id="svg_44" d="m674.677,604.865c2.044,-0.361 1.92,3.315 4.002,1.982c1.291,-0.827 1.698,-2.731 2.548,-4.13c5.659,-9.313 10.406,-19.064 16.804,-28.018c2.353,-3.292 5.037,-6.395 7.527,-9.611c2.569,-3.319 2.552,-3.34 6.057,-0.893c6.617,4.62 13.224,9.25 19.841,13.87c0.8,0.558 1.437,1.659 2.693,1.086c1.046,-0.477 0.534,-1.515 0.639,-2.314c0.754,-5.753 1.494,-11.507 2.238,-17.26c0.621,0.276 1.424,0.415 1.836,0.849c4.601,4.834 9.886,9.172 14.209,14.148c3.312,3.812 7.12,5.59 12.141,6.043c1.294,0.117 2.576,0.374 3.842,0.508c4.357,0.463 8.566,2.046 13.064,1.44c4.709,1.677 8.849,4.313 11.15,8.221c3.359,5.709 5.999,11.769 8.696,17.769c1.94,4.316 4.617,8.363 5.937,12.903c-11.005,0.003 -22.01,0.007 -33.015,0.01c0.129,-2.171 -1.2,-4.111 -1.341,-6.201c-0.369,-5.489 -2.654,-9.442 -9.362,-10.321c-0.78,-0.102 -1.551,-0.878 -2.327,-0.336c-1.012,0.708 -0.089,1.551 0.071,2.333c1.001,4.888 3.061,9.561 3.698,14.522c-3.825,-0.004 -7.65,-0.007 -11.476,-0.011c-0.08,-0.842 0.196,-2.158 -0.295,-2.451c-3.897,-2.323 -3.008,-6.212 -3.947,-9.412c-2.063,-7.029 -3.046,-14.317 -8.113,-20.448c-1.711,-2.07 -3.414,-3.892 -5.774,-5.444c-6.116,-4.021 -12.656,-7.515 -18.396,-12.03c-1.7,-1.337 -3.216,-3.464 -6.329,-3.506c7.046,17.933 17.191,34.664 21.325,53.29c-12.122,0.037 -24.245,0.07 -36.367,0.119c-0.869,0.004 -1.643,-0.142 -2.307,-0.654c-2.286,-6.921 -6.915,-12.808 -10.373,-19.233c-0.785,6.697 0.873,13.215 0.326,19.784c-1.423,-0.002 -2.845,-0.003 -4.268,-0.005c-2.787,-5.261 -3.393,-11.043 -4.954,-16.599z" fill="#887B4D"/>
     <path id="svg_45" d="m807.9,621.458c-1.321,-4.54 -3.998,-8.586 -5.937,-12.903c-2.696,-6 -5.336,-12.06 -8.696,-17.769c-2.3,-3.909 -6.441,-6.544 -11.15,-8.221c-0.297,-2.118 -2.762,-2.456 -3.959,-3.834c-0.253,-0.951 -0.924,-1.563 -1.718,-2.258c-2.525,-2.211 -5.492,-3.929 -8.068,-6.051c-1.185,-0.976 -3.747,-2.053 -2.861,-3.365c0.867,-1.283 2.771,0.923 4.415,0.861l-0.051,-0.032c0.308,0.499 0.611,0.301 0.913,-0.005c3.035,-0.223 1.777,2.781 3.673,3.757c8.747,4.5 17.294,9.309 25.926,13.987c0.586,0.318 1.309,0.861 1.961,0.47c0.821,-0.493 0.558,-1.34 0.216,-2.026c-5.035,-10.094 -7.969,-21.088 -16.919,-29.49c-2.875,-2.699 -5.661,-5.74 -8.076,-9.896c7.212,2.224 13.894,3.628 19.897,6.262c16.243,7.129 32.403,14.371 49.535,19.704c5.143,1.601 9.99,3.935 15.379,4.926c4.393,6.247 6.65,13.231 8.819,20.25c2.387,7.722 4.832,15.43 7.216,23.153c0.247,0.8 0.252,1.659 0.369,2.49c-1.908,-0.003 -3.817,-0.006 -5.726,-0.008c-4.528,-9.458 -10.694,-18.183 -15.499,-27.517c-0.371,-0.721 -0.976,-1.289 -1.799,-1.44c-3.815,-0.697 -7.476,-2.38 -11.404,-2.14c-3.212,0.196 -3.925,3.432 -6.047,5.039c-0.362,0.274 -0.652,0.622 -1.016,0.893c-1.486,1.103 -1.586,2.321 -0.993,3.967c0.901,2.498 2.366,4.877 2.385,7.6c0.033,4.541 -0.291,9.097 0.731,13.595c-10.504,0.002 -21.01,0.002 -31.516,0.001z" fill="#5C5943"/>
     <path id="svg_46" d="m610.822,621.466c-3.685,-9.773 -4.499,-20.036 -6.441,-30.105c-1.083,-5.618 -1.954,-11.272 -3.208,-16.859c-0.593,-2.641 -0.29,-5.018 0.823,-7.44c6.358,-13.833 12.684,-27.678 19.041,-41.512c0.25,-0.544 0.7,-1.014 1.227,-1.759c3.559,5.359 3.664,11.171 4.983,16.672c1.386,5.781 2.444,11.624 3.702,17.43c0.177,0.816 0.617,1.602 1.033,2.359c5.863,10.699 11.714,21.404 17.648,32.072c0.932,1.676 1.365,3.327 1.351,5.189c-0.061,7.983 -0.017,15.966 -0.012,23.949c-3.343,-0.008 -6.685,-0.015 -10.028,-0.023c0.265,-2.375 -0.734,-4.572 -1.469,-6.844c0,2.284 0,4.568 0,6.852c-7.869,0.006 -15.737,0.013 -23.606,0.019c-1.003,-5.72 -3.846,-11.051 -3.73,-17.063c0.111,-5.783 -0.896,-11.579 -1.282,-17.376c-0.379,-5.684 -0.595,-11.377 -0.882,-17.066c-0.681,7.313 0.135,14.549 0.769,21.808c0.764,8.749 1.043,17.532 1.501,26.301c0.061,1.168 -0.063,2.345 0.688,3.393c-0.702,0.003 -1.405,0.003 -2.108,0.003z" fill="#605D3F"/>
     <path id="svg_47" d="m968.398,621.468c-2.108,-9.342 -2.52,-19.048 -8.871,-27.396c-3.247,-4.268 -5.262,-9.265 -8.265,-13.7c-3.329,-4.916 -2.189,-9.976 -1.495,-15.096c5.903,-0.633 9.484,-5.068 14.577,-7.094c4.134,-1.644 6.509,-1.223 8.609,2.347c1.824,3.099 2.497,6.735 5.445,9.309c-0.265,1.802 0.66,3.541 0.585,5.253c-0.142,3.219 1.576,3.599 4.325,2.739c0.976,-0.305 2.169,0.012 2.947,-0.817c1.534,0.071 2.479,1.07 3.589,1.809c0.155,0.609 0.14,1.312 0.49,1.813c6.579,9.437 12.302,19.242 16.235,29.819c1.369,3.682 3.705,7.079 4.113,11.046c-14.094,-0.011 -28.189,-0.021 -42.284,-0.032z" fill="#535454"/>
     <path id="svg_48" d="m541.31,410.853c-1.142,4.892 -4.76,8.704 -7.219,13.016c-3.123,5.478 -6.856,10.687 -9.818,16.228c-1.881,3.521 -1.564,7.63 -2.234,11.469c-1.781,10.202 -3.314,20.438 -4.924,30.663c-0.18,1.141 -0.222,2.3 -0.417,4.416c-5.088,-6.177 -8.167,-12.518 -13.187,-19.109c-2.921,12.852 -5.641,24.817 -8.515,37.459c-2.57,-3.515 -3.569,-6.957 -5.053,-10.183c-2.795,-6.073 -5.323,-12.247 -8.261,-18.264c-1.398,-2.864 -0.967,-4.746 1.657,-6.89c2.843,-2.323 6.121,-4.406 7.848,-7.678c1.813,-1.313 3.646,-2.564 5.659,-3.671c4.05,-2.227 6.49,-5.94 9.556,-9.064c4.646,-4.733 7.38,-10.788 12.735,-15.006c1.819,-1.433 1.752,-4.339 4.154,-4.807c4.159,-0.811 4.992,-3.856 7.002,-6.385c2.407,-3.028 4.493,-6.427 7.875,-8.759c1.401,-0.963 0.048,-3.816 3.142,-3.435z" fill="#0D1B34"/>
     <path id="svg_49" d="m325.683,581.322c-0.317,-4.172 -1.428,-8.194 -2.88,-12.152c-0.076,-0.95 -0.033,-1.921 -0.246,-2.846c-1.451,-6.303 -2.943,-12.6 -4.461,-18.89c-0.178,-0.737 -0.631,-1.607 0.08,-2.085c0.882,-0.592 1.479,0.325 2.037,0.811c3.745,3.257 7.62,6.397 11.391,9.621c9.894,8.459 19.49,17.197 29.127,25.892c1.972,1.779 3.975,3.61 5.086,6.003l-0.068,0.063c-1.068,0.041 -1.242,0.683 -1.454,1.477c-0.683,2.557 -1.619,5.064 -2.218,7.634c-1.912,8.2 -6.111,15.986 -5.637,24.619c-1.174,-0.021 -2.348,-0.042 -3.522,-0.063c0.071,-10.604 -1.251,-21.181 -0.758,-31.793c0.005,-0.106 0.013,-0.214 -0.002,-0.318c-0.099,-0.693 0.329,-1.691 -0.739,-1.883c-0.49,-0.088 -1.242,0.51 -1.725,0.933c-2.978,2.603 -5.716,5.46 -8.915,7.82c-3.881,2.863 -5.984,6.156 -5.143,10.702c-0.462,-0.952 -1.001,-1.881 -1.374,-2.86c-2.878,-7.557 -5.723,-15.122 -8.579,-22.685z" fill="#736846"/>
     <path id="svg_50" d="m458.145,595.991c-1.26,-2.815 -1.108,-5.902 -1.165,-8.748c-0.123,-6.045 -0.846,-12.053 -1.056,-18.087c-0.162,-4.636 -0.621,-9.265 -0.171,-13.94c0.554,3.253 1.61,6.516 1.524,9.756c-0.09,3.363 2.209,5.276 4.192,7.374c7.412,7.842 14.993,15.558 22.523,23.312c0.946,0.974 1.92,1.836 3.642,1.547c4.19,-0.701 8.428,-1.087 12.691,-1.173c2.22,-0.045 3.135,-0.531 2.635,-2.894c-1.271,-6.001 -2.122,-12.072 -3.115,-18.119c-0.063,-0.382 -0.041,-0.865 1.077,-1.05c1.737,6.578 3.485,13.183 5.211,19.792c0.076,0.291 0.042,0.851 -0.114,0.908c-3.285,1.194 -1.567,3.458 -1.17,5.155c1.149,4.901 0.582,9.661 -0.728,14.43c-0.139,0.506 -0.065,1.059 -0.09,1.589c-1.606,-0.241 -3.282,-0.299 -4.801,-0.765c-2.179,-0.668 -2.472,0.271 -2.298,1.778c0.178,1.544 0.989,3.016 0.676,4.62c-7.631,-0.022 -15.263,-0.044 -22.894,-0.066c-0.009,-2.128 -0.149,-4.264 0.005,-6.382c0.187,-2.577 -0.748,-4.458 -2.647,-6.544c-3.462,-3.802 -7.915,-6.767 -11.015,-10.837c-0.65,-0.851 -1.55,-1.655 -2.912,-1.656z" fill="#887B4D"/>
     <path id="svg_51" d="m365.818,587.676c-1.111,-2.393 -3.114,-4.224 -5.086,-6.003c-9.637,-8.696 -19.233,-17.433 -29.127,-25.892c-3.77,-3.224 -7.645,-6.364 -11.391,-9.621c-0.558,-0.485 -1.155,-1.403 -2.037,-0.811c-0.711,0.477 -0.258,1.348 -0.08,2.085c1.518,6.291 3.01,12.587 4.461,18.89c0.213,0.925 0.17,1.896 0.246,2.846c-4.574,-2.018 -8.025,-5.396 -12.127,-7.993c-3.836,-2.428 -7.424,-5.173 -11.041,-7.864c-1.145,-0.852 -2.446,-0.638 -3.686,-0.877c4.856,-2.641 9.337,-5.588 14.987,-7.307c5.007,-1.523 10.384,-2.751 15.016,-5.677c3.61,-2.281 8.262,-3.25 12.447,-4.81c1.712,-0.638 3.413,-1.298 5.12,-1.948c0.837,5.963 1.55,11.944 2.577,17.881c0.36,2.083 0.757,4.257 0.8,6.261c0.062,2.837 1.665,4.219 3.82,5.567c2.042,1.278 4.023,2.693 6.237,3.681c7.781,3.474 11.098,10.169 15.139,16.34c3.894,5.948 7.689,11.947 11.485,17.945c0.394,0.622 0.5,1.389 0.741,2.089c-1.463,-0.102 -2.2,-1.147 -3.102,-1.945c-4.106,-3.629 -8.175,-7.291 -12.28,-10.92c-0.904,-0.799 -1.645,-1.844 -3.119,-1.917z" fill="#535454"/>
     <path id="svg_52" d="m421.658,621.476c0.363,-3.235 -0.786,-6.296 -1.475,-9.39c-2.226,-9.995 -1.494,-20.01 -0.767,-30.067c0.406,-5.614 0.058,-11.269 0.132,-16.905c0.014,-1.084 -0.545,-2.323 0.756,-3.414c2.971,3.284 4.747,7.112 7.03,10.65c4.802,7.444 9.363,15.011 14.074,22.501c0.793,1.261 1.06,2.54 1.055,3.957c-0.032,7.551 -0.009,15.102 -0.005,22.653c-6.935,0.005 -13.868,0.01 -20.8,0.015z" fill="#5F5D5A"/>
     <path id="svg_53" d="m1010.684,621.5c-0.408,-3.966 -2.744,-7.363 -4.113,-11.046c-3.933,-10.578 -9.655,-20.383 -16.235,-29.819c-0.349,-0.501 -0.335,-1.204 -0.49,-1.813c5.104,2.858 9.692,6.403 15.013,8.974c-0.295,3.451 0.446,6.804 1.679,10.163c0,-3.238 0,-6.477 0,-9.716c4.78,2.204 7.899,6.007 11.387,9.444c1.58,1.557 3.94,0.92 5.847,1.904c2.856,1.474 5.367,4.057 9.524,3.016c1.205,-0.302 3.262,0.433 4.32,2.2c1.076,1.798 3.725,1.743 5.769,2.238c0.749,0.181 1.244,0.485 1.772,0.877c-0.503,4.586 1.452,8.989 1.28,13.551c-10.254,-0.001 -20.508,-0.003 -30.762,-0.004c-0.343,-2.003 -0.685,-4.006 -1.166,-6.821c-1.902,2.865 0.387,4.844 -0.291,6.821c-1.178,0.01 -2.356,0.021 -3.534,0.031zm2.842,-7.943c0.33,-2.704 -0.28,-5.321 -1.221,-8.706c-0.613,3.545 0.663,6.071 1.221,8.706z" fill="#958564"/>
     <path id="svg_54" d="m272.64,565.405c-2.369,3.447 -6.477,5.106 -9.891,7.42c-15.492,10.502 -31.347,20.587 -46.614,31.339c-4.638,3.267 -7.881,8.138 -11.617,12.376c-1.35,1.532 -3.515,2.675 -3.527,4.982c-11.498,0 -22.996,0 -34.493,0c-0.066,-0.204 -0.133,-0.408 -0.199,-0.612c8.04,-4.222 16.077,-8.449 24.121,-12.664c14.632,-7.668 29.434,-15.091 43.852,-23.066c11.992,-6.633 24.548,-12.402 36.366,-19.282c0.587,-0.341 1.225,-0.684 2.002,-0.493z" fill="#98928C"/>
     <path id="svg_55" d="m732.62,621.455c-4.134,-18.625 -14.279,-35.357 -21.325,-53.29c3.113,0.042 4.629,2.169 6.329,3.506c5.74,4.514 12.28,8.009 18.396,12.03c2.36,1.551 4.063,3.374 5.774,5.444c5.067,6.13 6.05,13.419 8.113,20.448c0.939,3.199 0.05,7.089 3.947,9.412c0.491,0.293 0.215,1.609 0.295,2.451c-1.443,-0.002 -2.885,-0.004 -4.327,-0.006c-0.359,-1.57 -0.719,-3.141 -1.078,-4.712c-0.442,1.664 -0.551,3.247 0.356,4.708c-5.494,0.003 -10.987,0.006 -16.48,0.009zm13.923,-8.911c0.306,-3.637 -0.217,-6.833 -2.841,-9.598c-4.658,-4.907 -8.922,-10.111 -13.573,-15.024c-2.232,-2.357 -4.008,-5.159 -7.458,-6.565c7.957,10.396 15.915,20.791 23.872,31.187zm0.945,1.629c-0.084,0.176 -0.279,0.39 -0.222,0.516c0.057,0.126 0.363,0.163 0.56,0.238c0.084,-0.175 0.278,-0.389 0.222,-0.515c-0.056,-0.126 -0.362,-0.163 -0.56,-0.239z" fill="#958564"/>
     <path id="svg_56" d="m839.418,621.459c-1.021,-4.499 -0.698,-9.055 -0.731,-13.595c-0.02,-2.724 -1.484,-5.103 -2.385,-7.6c-0.594,-1.646 -0.493,-2.864 0.993,-3.967c0.364,-0.27 0.655,-0.619 1.016,-0.893c2.122,-1.607 2.835,-4.843 6.047,-5.039c3.928,-0.24 7.589,1.443 11.404,2.14c0.824,0.15 1.428,0.719 1.799,1.44c4.805,9.334 10.971,18.059 15.499,27.517c-11.214,-0.001 -22.428,-0.002 -33.642,-0.003z" fill="#313E4A"/>
     <path id="svg_57" d="m335.636,606.867c-0.842,-4.547 1.262,-7.839 5.143,-10.702c3.2,-2.361 5.937,-5.217 8.915,-7.82c0.484,-0.423 1.235,-1.022 1.725,-0.933c1.068,0.192 0.64,1.19 0.739,1.883c0.015,0.105 0.007,0.212 0.002,0.318c-0.493,10.612 0.829,21.189 0.758,31.793c-5.273,0.009 -10.545,0.017 -15.818,0.026c0.076,-4.9 -0.414,-9.755 -1.464,-14.565z" fill="#958564"/>
     <path id="svg_58" d="m441.048,494.486c-5.226,1.439 -10.206,3.443 -15.15,5.483c-2.543,1.049 -3.834,1.031 -3.526,-1.855c0.045,-0.421 0.006,-0.85 0.006,-1.275c-0.012,-12.897 0.003,-12.885 10.155,-22.019c1.115,-1.003 2.856,-1.725 2.651,-3.547c0.928,-0.443 1.779,-1.071 2.935,-0.964c0.224,3.478 2.386,6.37 3.69,9.514c1.519,3.66 3.328,7.224 5.013,10.83c-1.385,1.923 -3.382,3.115 -5.774,3.833z" fill="#0D1B34"/>
     <path id="svg_59" d="m365.818,587.676c1.475,0.073 2.216,1.118 3.118,1.915c4.105,3.63 8.174,7.292 12.28,10.92c0.902,0.798 1.639,1.843 3.102,1.945c0.2,1.901 2.799,2.455 3.054,4.326c-1.152,0.785 -0.797,1.919 -0.807,2.938c-0.038,3.914 -0.025,7.829 -0.032,11.743c-5.716,0.001 -11.432,0.002 -17.147,0.004c0.108,-2.844 0.103,-5.668 0.47,-8.53c0.492,-3.84 0.618,-7.785 -0.433,-11.684c-1.215,-4.506 -3.251,-8.838 -3.672,-13.514l0.067,-0.063z" fill="#736846"/>
     <path id="svg_60" d="m335.636,606.867c1.05,4.81 1.54,9.665 1.465,14.565c-5.733,0.008 -11.467,0.017 -17.2,0.025c1.121,-8.159 2.255,-16.317 3.359,-24.478c0.707,-5.232 1.118,-10.499 2.424,-15.657c2.856,7.563 5.701,15.129 8.579,22.685c0.372,0.979 0.911,1.908 1.373,2.86z" fill="#5F5D5A"/>
     <path id="svg_61" d="m660.958,621.306c-2.761,-11.535 -0.83,-23.22 -1.383,-34.825c-0.028,-0.597 -0.21,-1.42 0.678,-1.615c0.827,-0.181 1.139,0.552 1.527,1.08c2.468,3.361 4.983,6.694 7.414,10.076c0.65,0.904 1.074,1.929 2.544,1.919c-0.436,7.86 1.25,15.67 0.7,23.532c-3.83,0.102 -7.661,0.272 -11.48,-0.167z" fill="#756654"/>
     <path id="svg_62" d="m365.749,587.739c0.421,4.676 2.457,9.008 3.672,13.514c1.051,3.899 0.925,7.843 0.433,11.684c-0.367,2.862 -0.362,5.686 -0.47,8.53c-4.315,0.001 -8.629,0.001 -12.944,0.002c-0.474,-8.633 3.725,-16.419 5.637,-24.619c0.599,-2.57 1.535,-5.077 2.218,-7.634c0.212,-0.793 0.386,-1.435 1.454,-1.477z" fill="#958564"/>
     <path id="svg_63" d="m458.145,595.991c1.363,0.001 2.262,0.804 2.911,1.656c3.1,4.071 7.553,7.035 11.015,10.837c1.899,2.086 2.834,3.967 2.647,6.544c-0.154,2.119 -0.014,4.254 -0.005,6.382c-5.042,0.021 -10.084,0.042 -15.126,0.063c-0.87,-7.161 -1.404,-14.341 -1.445,-21.547c-0.004,-0.268 -0.008,-0.536 -0.012,-0.804c0.005,-1.044 0.01,-2.087 0.015,-3.131z" fill="#958564"/>
     <path id="svg_64" d="m512.643,621.402c-0.85,-6.817 -1.716,-13.632 -2.546,-20.451c-0.6,-4.934 -1.21,-9.869 -1.673,-14.814c-0.081,-0.865 -0.775,-2.646 0.997,-2.5c1.721,0.142 4.304,-0.201 4.674,2.471c0.913,6.599 1.838,13.198 2.896,19.779c0.838,5.208 1.88,10.39 2.832,15.584c-2.393,-0.024 -4.787,-0.046 -7.18,-0.069z" fill="#736846"/>
     <path id="svg_65" d="m914.65,621.241c-1.061,-4.325 -2.221,-8.634 -3.153,-12.981c-0.838,-3.908 -4.297,-6.223 -6.715,-9.148c-3.211,-3.885 -6.743,-7.558 -10.515,-11.743c2.355,0.09 3.546,1.1 4.639,2.028c4.302,3.655 8.214,7.687 12.998,10.874c3.068,2.043 4.359,4.784 4.819,8.067c0.615,4.387 1.451,8.749 2.192,13.122c-1.436,0.141 -2.869,0.244 -4.265,-0.219z" fill="#887B4D"/>
     <path id="svg_66" d="m765.624,621.466c-0.637,-4.961 -2.697,-9.634 -3.698,-14.522c-0.16,-0.782 -1.083,-1.625 -0.071,-2.333c0.775,-0.543 1.546,0.233 2.327,0.336c6.708,0.879 8.993,4.833 9.362,10.321c0.141,2.09 1.469,4.03 1.341,6.201c-3.087,-0.002 -6.174,-0.002 -9.261,-0.003z" fill="#736846"/>
     <path id="svg_67" d="m683.899,621.472c0.547,-6.569 -1.112,-13.088 -0.326,-19.784c3.458,6.425 8.087,12.312 10.373,19.233c-3.292,1.016 -6.692,0.448 -10.047,0.551z" fill="#958564"/>
     <path id="svg_68" d="m410.175,621.47c0.884,-5.536 0.741,-11.13 1.254,-16.796c3.731,5.023 8.539,9.575 7.377,16.309c-2.804,1.199 -5.752,0.362 -8.631,0.487z" fill="#6E7372"/>
     <path id="svg_69" d="m672.437,621.473c0.55,-7.863 -1.136,-15.672 -0.7,-23.532c0,-0.823 0,-1.646 0,-2.469c0.165,-0.014 0.329,-0.028 0.494,-0.042c0.815,3.146 1.63,6.291 2.445,9.436c1.562,5.555 2.168,11.337 4.955,16.602c-2.398,0.001 -4.796,0.003 -7.194,0.005z" fill="#958564"/>
     <path id="svg_70" d="m386.532,621.464c0.006,-3.914 -0.006,-7.829 0.032,-11.743c0.01,-1.019 -0.344,-2.153 0.807,-2.938c3.423,4.714 6.668,9.518 9.318,14.623c-3.386,0.019 -6.772,0.038 -10.157,0.058z" fill="#887B4D"/>
     <path id="svg_71" d="m497.606,621.476c0.313,-1.604 -0.498,-3.075 -0.676,-4.62c-0.174,-1.508 0.119,-2.446 2.298,-1.778c1.519,0.465 3.196,0.524 4.801,0.765c3.503,0.609 5.105,2.399 4.394,5.625c-3.605,0.003 -7.211,0.005 -10.817,0.008z" fill="#958564"/>
     <path id="svg_72" d="m612.931,621.465c-0.752,-1.048 -0.627,-2.225 -0.688,-3.393c-0.459,-8.769 -0.737,-17.552 -1.501,-26.301c-0.634,-7.259 -1.45,-14.495 -0.769,-21.808c0.287,5.689 0.503,11.382 0.882,17.066c0.386,5.797 1.393,11.593 1.282,17.376c-0.116,6.012 2.727,11.343 3.73,17.063c-0.979,-0.002 -1.958,-0.002 -2.936,-0.003z" fill="#736846"/>
     <path id="svg_73" d="m246.121,621.458c-0.482,-2.982 0.929,-5.838 0.736,-8.806c-0.037,-0.576 -0.232,-1.443 0.711,-1.558c1.105,-0.135 1.353,0.732 1.366,1.476c0.054,2.962 0.037,5.925 0.046,8.888c-0.953,0 -1.906,0 -2.859,0z" fill="#313E4A"/>
     <path id="svg_74" d="m352.141,529.528c0.268,2.311 -0.807,4.437 -0.962,7.118c-2.462,-1.385 -1.718,-4.276 -4.055,-5.158c1.495,-1.015 3.264,-1.471 5.017,-1.96z" fill="#344759"/>
     <path id="svg_75" d="m455.3,621.43c0,-3.443 0,-6.887 0,-10.33c0.509,-0.014 1.018,-0.028 1.528,-0.041c0,3.449 0,6.897 0,10.346c-0.51,0.008 -1.019,0.017 -1.528,0.025z" fill="#958564"/>
     <path id="svg_76" d="m555.74,618.545c-0.437,-2.172 -2.233,-3.979 -2.123,-6.298c1.802,0.801 6.049,0.369 2.411,3.939c-0.354,0.348 0.937,1.63 -0.288,2.359z" fill="#344759"/>
     <path id="svg_77" d="m569.253,621.477c0.56,-2.74 1.12,-5.481 1.68,-8.221c0.167,0.014 0.335,0.028 0.502,0.042c0,2.726 0,5.453 0,8.179c-0.727,0 -1.454,0 -2.182,0z" fill="#565144"/>
     <path id="svg_78" d="m1014.218,621.469c0.678,-1.977 -1.611,-3.956 0.291,-6.821c0.481,2.815 0.823,4.818 1.166,6.821c-0.485,0 -0.971,0 -1.457,0z" fill="#5F5D5A"/>
     <path id="svg_79" d="m639.472,621.448c0,-2.284 0,-4.568 0,-6.852c0.735,2.272 1.733,4.469 1.469,6.844c-0.49,0.003 -0.979,0.005 -1.469,0.008z" fill="#756654"/>
     <path id="svg_80" d="m530.542,621.465c0,-2.948 0,-5.895 0,-8.843c0.262,0 0.525,0 0.787,0c0,2.947 0,5.895 0,8.842c-0.262,0.001 -0.524,0.001 -0.787,0.001z" fill="#736846"/>
     <path id="svg_81" d="m749.099,621.446c-0.907,-1.462 -0.798,-3.045 -0.356,-4.708c0.36,1.571 0.719,3.141 1.078,4.712c-0.241,-0.002 -0.481,-0.003 -0.722,-0.004z" fill="#98928C"/>
     <path id="svg_82" d="m274.789,564.125c-0.057,0.993 -0.678,1.23 -1.659,0.982c0.142,-0.881 0.76,-1.12 1.659,-0.982z" fill="#98928C"/>
     <path id="svg_83" d="m862.381,575.576c-5.389,-0.991 -10.237,-3.325 -15.379,-4.926c-17.132,-5.333 -33.292,-12.576 -49.535,-19.704c-6.002,-2.634 -12.684,-4.038 -19.897,-6.262c2.415,4.156 5.201,7.197 8.076,9.896c8.95,8.402 11.884,19.396 16.919,29.49c0.342,0.686 0.605,1.533 -0.216,2.026c-0.652,0.391 -1.375,-0.152 -1.961,-0.47c-8.632,-4.679 -17.179,-9.487 -25.926,-13.987c-1.896,-0.976 -0.639,-3.979 -3.675,-3.757c-0.305,0.002 -0.608,0.003 -0.912,0.005c0,0 0.051,0.032 0.051,0.032c0.103,-1.009 -0.75,-1.378 -1.459,-1.954c-4.499,-3.651 -9.871,-6.408 -13.753,-10.685c0.269,-1.47 -1.037,-2.328 -1.783,-3.33c-4.518,-6.068 -9.161,-12.06 -13.737,-18.093c-4.521,-5.959 -4.509,-5.969 2.928,-8.042c0.636,-0.177 1.679,0.016 1.634,-0.819c-0.027,-0.506 -0.694,-1.063 -1.208,-1.458c-1.738,-1.331 -4.451,-1.729 -4.989,-4.197c2.528,-2.306 6.352,-3.296 8.129,-6.363c2.188,0.163 2.901,-0.316 2.216,-2.529c-0.901,-2.91 -1.44,-5.979 -1.546,-8.996c-0.097,-2.755 -1.313,-2.605 -3.51,-1.882c-7.205,2.371 -14.444,4.659 -21.67,6.979c0.772,-7.369 3.253,-14.462 4.443,-21.764c0.114,-0.698 0.908,-1.416 0.147,-2.07c-0.911,-0.782 -1.807,-0.047 -2.593,0.314c-4.967,2.283 -9.982,4.496 -14.825,6.975c-2.863,1.465 -5.551,2.223 -8.577,0.61c-0.509,-3.424 -1.01,-6.849 -1.535,-10.27c-0.118,-0.771 0.478,-1.899 -0.765,-2.172c-0.95,-0.208 -1.125,0.9 -1.684,1.387c-2.3,2 -3.262,5.172 -6.743,6.132c-4.72,-1.326 -9.115,-3.318 -13.561,-5.214c-1.635,-0.697 -1.657,-1.879 -1.584,-3.173c5.031,-0.469 9.778,-1.73 14.232,-3.903c0.681,-0.332 1.091,-0.721 1.451,-1.27c3.053,-4.652 6.725,-6.089 12.423,-4.845c2.036,0.444 3.728,-0.537 4.482,-1.786c1.233,-2.042 2.833,-2.155 4.658,-1.342c1.42,0.632 2.634,0.011 3.187,-0.568c3.66,-3.837 10.823,-4.918 11.284,-11.322c0.035,-0.487 1.078,-1.153 1.779,-1.323c3.104,-0.753 3.603,-3.629 5.462,-5.13c3.649,-2.945 7.052,-7.022 12.755,-6.852c4.388,0.13 9.029,-0.271 12.893,2.364c0,3.212 0,6.425 0,9.637c0.215,0 0.431,0 0.646,0c0,-3.145 0,-6.29 0,-9.436c4.533,0.202 7.221,3.607 10.86,5.331c1.297,0.614 2.373,3.52 3.523,5.393c0.754,1.229 1.008,1.746 2.523,0.199c1.62,-1.654 3.493,-3.998 5.998,-4.087c2.36,-0.084 4.948,-0.503 7.373,0.446c4.851,1.899 9.422,4.178 13.479,7.237c1.151,6.174 3.296,12.099 5.679,17.964l0.007,-0.006c-1.086,0.056 -1.7,-0.626 -2.425,-1.182c-5.151,-3.957 -9.945,-8.245 -14.779,-12.501c-1.757,-1.547 -3.643,-3.048 -6.625,-4.292c1.81,3.624 3.315,6.596 4.783,9.583c8.906,18.127 19.139,35.683 29.594,53.11c7.817,13.029 13.194,27.366 25.178,38.283c5.226,4.761 10.346,9.611 15.797,14.171c0.818,1.438 1.942,2.754 2.263,4.398zm-95.35,-110.229c0,-3.933 0.007,-7.866 -0.007,-11.799c-0.002,-0.611 0.162,-1.406 -0.749,-1.585c-0.621,-0.122 -0.98,0.437 -1.347,0.874c-4.2,4.99 -8.434,9.956 -12.625,14.952c-0.846,1.009 -1.215,1.906 0.429,2.845c3.897,2.226 7.698,4.593 11.461,6.997c2.322,1.484 2.865,0.615 2.849,-1.442c-0.029,-3.614 -0.008,-7.228 -0.011,-10.842z" fill="#2E3A4D"/>
     <path id="svg_84" d="m808.585,474.011c-2.383,-5.865 -4.528,-11.789 -5.679,-17.964c1.46,1.007 3.127,1.439 3.949,3.497c0.729,1.827 2.206,4.104 5.27,4.614c2.146,0.357 3.267,1.752 3.717,3.941c1.27,6.166 5.312,10.737 11.589,13.501c2.615,1.152 4.998,2.327 6.467,4.632c0.959,1.504 2.191,3.103 3.889,3.575c2.358,0.656 1.292,2.727 2.946,3.863c8.977,6.168 18.214,12.128 25.245,20.261c1.707,1.974 4.248,3.092 6.805,4.067c-3.976,3.316 -5.309,7.779 -6.894,12.203c-3.547,9.898 2.323,18.365 5.016,27.293c1.2,3.978 3.091,7.79 4.674,11.675c0.205,0.503 0.532,1.08 0.008,1.48c-0.77,0.586 -1.296,-0.095 -1.774,-0.504c-6.443,-5.516 -13.422,-10.635 -19.125,-16.706c-4.283,-4.56 -6.922,-10.348 -10.292,-15.589c-0.287,-0.447 -0.562,-0.9 -1.033,-1.656c-0.742,1.681 0.232,2.683 0.783,3.737c5.178,9.909 10.376,19.81 15.548,29.722c0.243,0.465 0.287,1.012 0.423,1.522c-5.452,-4.56 -10.572,-9.409 -15.798,-14.17c-11.984,-10.917 -17.361,-25.254 -25.178,-38.283c-10.455,-17.427 -20.687,-34.983 -29.594,-53.11c-1.468,-2.987 -2.973,-5.959 -4.783,-9.583c2.982,1.244 4.869,2.745 6.625,4.292c4.834,4.256 9.628,8.544 14.779,12.501c0.724,0.557 1.339,1.238 2.425,1.182c0.1,0.053 0.2,0.106 0.3,0.158c-0.104,-0.049 -0.206,-0.1 -0.308,-0.151z" fill="#5F5D5A"/>
     <path id="svg_85" d="m930.477,552.441c-1.476,5.449 -0.76,10.992 -0.724,16.487c0.029,4.415 -0.356,8.554 -2.814,12.564c-2.587,4.22 -4.59,8.724 -7.674,13.024c-1.777,-5.204 -3.223,-10.523 -5.425,-15.58c-2.156,-4.952 -0.126,-9.534 0.429,-14.282c0.527,-4.51 2.057,-8.91 1.838,-13.498c0.696,0.049 1.499,0.324 2.072,0.111c4.366,-1.625 8.295,0.015 12.298,1.174z" fill="#535454"/>
     <path id="svg_86" d="m632.328,453.033c-0.084,2.111 0.647,4.686 -0.45,6.22c-1.49,2.083 -4.355,-0.312 -6.637,0.076c-3.058,0.519 -5.189,-1.058 -7.337,-2.591c1.294,-2.819 5.491,-4.347 8.826,-4.36c1.989,-0.008 3.73,0.511 5.598,0.655z" fill="#344759"/>
     <path id="svg_87" d="m986.257,577.013c-0.778,0.829 -1.971,0.512 -2.947,0.817c-2.749,0.86 -4.467,0.48 -4.325,-2.739c0.075,-1.712 -0.85,-3.451 -0.585,-5.253c3.152,1.927 6.003,4.117 7.857,7.175z" fill="#98928C"/>
     <path id="svg_88" d="m1006.538,588.243c0,3.239 0,6.477 0,9.716c-1.232,-3.358 -1.974,-6.711 -1.679,-10.163c0.636,-0.081 1.28,-0.183 1.679,0.447z" fill="#5F5D5A"/>
     <path id="svg_89" d="m759.15,441.529c0,3.145 0,6.29 0,9.436c-0.215,0 -0.431,0 -0.646,0c0,-3.212 0,-6.425 0,-9.637c0.236,0.015 0.451,0.082 0.646,0.201z" fill="#535454"/>
     <path id="svg_90" d="m508.306,556.529c3.157,2.494 5.765,5.436 8.315,8.368c7.475,8.598 14.74,17.341 22.202,25.948c1.646,1.899 2.127,3.025 -0.833,4.212c-2.799,1.122 -5.367,2.705 -8.014,4.12c-1.683,0.9 -2.772,0.695 -3.571,-1.048c-6.065,-13.221 -12.185,-26.422 -18.297,-39.627c-0.278,-0.6 -0.61,-1.17 0.198,-1.973z" fill="#605D3F"/>
     <path id="svg_91" d="m448.009,571.652c-4.846,-3.909 -7.754,-9.101 -11.208,-13.931c0.312,-0.206 0.624,-0.412 0.935,-0.618c3.723,4.653 7.445,9.305 11.168,13.958c-0.298,0.197 -0.596,0.394 -0.895,0.591z" fill="#605D3F"/>
     <path id="svg_92" d="m433.207,551.34c-2.884,-0.961 -3.561,-2.718 -4.689,-5.118c2.672,1.315 3.586,2.906 4.689,5.118z" fill="#605D3F"/>
     <path id="svg_93" d="m500.081,572.544c-0.97,-2.044 -0.97,-2.044 -0.775,-4.579c0.453,1.779 1.267,2.822 0.775,4.579z" fill="#887B4D"/>
     <path id="svg_94" d="m453.544,577.226c-1.452,0.014 -1.828,-0.833 -2.352,-1.508c0.74,-1.048 1.246,-0.383 1.721,-0.03c0.434,0.323 0.83,0.708 0.631,1.538z" fill="#605D3F"/>
     <path id="svg_95" d="m451.061,573.644c-0.481,0.203 -0.856,0.472 -0.991,0.397c-0.354,-0.197 -0.772,-0.51 -0.855,-0.839c-0.143,-0.57 0.401,-0.695 0.851,-0.491c0.351,0.16 0.582,0.531 0.995,0.933z" fill="#605D3F"/>
     <path id="svg_96" d="m435.551,555.947c0.088,-0.179 0.132,-0.455 0.277,-0.508c0.141,-0.051 0.501,0.09 0.554,0.217c0.055,0.131 -0.143,0.347 -0.231,0.525c-0.199,-0.077 -0.399,-0.155 -0.6,-0.234z" fill="#605D3F"/>
     <path id="svg_97" d="m434.365,553.483c0.201,0.077 0.512,0.114 0.569,0.242c0.057,0.128 -0.097,0.446 -0.239,0.496c-0.145,0.05 -0.388,-0.125 -0.589,-0.202c0.086,-0.179 0.172,-0.357 0.259,-0.536z" fill="#605D3F"/>
     <path id="svg_98" d="m458.13,599.122c0.004,0.268 0.008,0.536 0.012,0.804c-0.449,-0.262 -0.452,-0.531 -0.012,-0.804z" fill="#887B4D"/>
     <path id="svg_99" d="m689.043,485.692c3.481,-0.961 4.444,-4.133 6.743,-6.132c0.56,-0.487 0.734,-1.595 1.684,-1.387c1.242,0.272 0.646,1.401 0.765,2.172c0.526,3.422 1.026,6.847 1.534,10.27c0.696,4.994 1.439,9.983 2.057,14.985c0.155,1.256 0.848,1.515 2.063,1.645c3.385,0.362 6.755,0.83 10.132,1.257c-2.378,0.975 -4.757,1.95 -7.265,2.978c13.106,1.053 26.042,0.751 38.931,1.497c-1.779,3.067 -5.603,4.057 -8.13,6.363c-2.796,1.907 -5.611,3.793 -8.382,5.729c-1.425,0.995 -2.695,1.353 -4.468,0.394c-3.652,-1.976 -7.465,-3.714 -11.202,-5.565c-7.163,-3.548 -14.306,-7.129 -21.484,-10.654c-4.111,-2.019 -5.674,1.583 -7.951,3.174c-1.793,1.253 0.521,2.312 1.088,3.42c1.802,3.515 5.211,5.838 8.089,8.555c-5.448,-0.915 -10.899,-1.813 -16.34,-2.76c-0.903,-0.157 -2.103,-0.852 -2.545,0.075c-0.597,1.253 1.038,1.425 1.879,1.841c10.04,4.967 20.145,9.832 30.142,14.866c8.145,4.102 16.22,8.321 23.986,12.986c0.297,0.802 0.593,1.603 0.89,2.405c-4.182,-1.014 -7.817,-3.098 -11.618,-4.826c-10.823,-4.922 -21.398,-10.303 -32.401,-14.872c-5.89,-2.446 -10.087,-6.086 -13.844,-10.512c-7.518,-8.856 -15.094,-17.673 -22.707,-26.464c-1.476,-1.704 -2.618,-3.49 -3.339,-5.549c-2.159,-6.173 -4.329,-12.346 -6.662,-18.468c-0.671,-1.76 -0.409,-2.744 1.522,-3.547c3.66,-1.523 7.312,-3.084 10.831,-4.846c2.06,-1.031 2.86,-0.605 3.442,1.294c1.909,6.227 3.949,12.422 5.874,18.645c0.226,0.729 0.47,1.38 0.946,2.016c5.155,6.877 10.261,13.783 15.437,20.648c0.419,0.555 0.697,1.61 1.672,1.427c1.053,-0.198 1.238,-1.225 1.3,-2.057c0.174,-2.319 0.714,-4.753 0.522,-6.923c-0.409,-4.626 2.36,-7.596 5.255,-10.656c0.996,-1.05 1.572,-2.089 1.554,-3.424z" fill="#756654"/>
     <path id="svg_100" d="m731.262,553.805c-0.297,-0.802 -0.593,-1.603 -0.889,-2.405c3.134,-0.453 3.845,2.422 5.929,3.487c10.502,5.366 20.501,11.447 30.496,17.534c3.671,2.236 6.854,5.247 11.359,6.311c1.198,1.378 3.663,1.716 3.959,3.834c-4.498,0.606 -8.707,-0.977 -13.064,-1.44c-1.266,-0.135 -2.548,-0.392 -3.842,-0.508c-5.021,-0.453 -8.829,-2.231 -12.141,-6.043c-4.323,-4.976 -9.607,-9.314 -14.209,-14.148c-0.413,-0.434 -1.216,-0.573 -1.836,-0.849c-1.074,-2.597 -3.292,-4.284 -5.762,-5.773z" fill="#958564"/>
     <path id="svg_101" d="m778.157,578.732c-4.505,-1.064 -7.688,-4.075 -11.359,-6.311c-9.995,-6.087 -19.994,-12.168 -30.496,-17.534c-2.085,-1.065 -2.796,-3.94 -5.929,-3.487c-7.767,-4.664 -15.842,-8.883 -23.987,-12.985c-9.997,-5.034 -20.102,-9.899 -30.142,-14.866c-0.841,-0.416 -2.476,-0.588 -1.879,-1.841c0.441,-0.926 1.642,-0.232 2.545,-0.075c5.441,0.946 10.892,1.845 16.34,2.76c6.339,1.247 12.653,2.609 19.027,3.687c2.735,0.463 5.336,1.009 7.505,2.586c8.155,5.93 16.153,12.038 24.473,17.777c3.406,2.35 6.142,5.583 10.46,6.836c3.882,4.277 9.255,7.034 13.753,10.685c0.709,0.576 1.563,0.945 1.459,1.954c-1.644,0.062 -3.549,-2.144 -4.415,-0.861c-0.886,1.312 1.676,2.389 2.861,3.365c2.575,2.122 5.543,3.84 8.068,6.051c0.792,0.696 1.463,1.308 1.716,2.259z" fill="#98928C"/>
     <path id="svg_102" d="m769.875,567.887c0.303,-0.002 0.607,-0.003 0.912,-0.005c-0.301,0.307 -0.604,0.504 -0.912,0.005z" fill="#98928C"/>
     <path id="svg_103" d="m1013.526,613.557c-0.559,-2.635 -1.834,-5.161 -1.221,-8.706c0.942,3.385 1.551,6.002 1.221,8.706z" fill="#5F5D5A"/>
     <path id="svg_104" d="m746.543,612.544c-7.958,-10.395 -15.915,-20.791 -23.873,-31.186c3.45,1.406 5.227,4.208 7.458,6.565c4.651,4.913 8.916,10.116 13.573,15.024c2.625,2.764 3.149,5.96 2.842,9.597z" fill="#98928C"/>
     <path id="svg_105" d="m747.489,614.173c0.197,0.076 0.503,0.113 0.559,0.239c0.056,0.126 -0.138,0.34 -0.222,0.515c-0.197,-0.076 -0.503,-0.112 -0.56,-0.238c-0.057,-0.126 0.138,-0.34 0.223,-0.516z" fill="#98928C"/>
     <path id="svg_106" d="m754.713,555.28c-4.318,-1.254 -7.054,-4.487 -10.46,-6.836c-8.32,-5.739 -16.318,-11.847 -24.473,-17.777c-2.169,-1.577 -4.77,-2.123 -7.505,-2.586c-6.375,-1.078 -12.689,-2.44 -19.027,-3.687c-2.877,-2.718 -6.287,-5.041 -8.089,-8.556c-0.568,-1.107 -2.881,-2.167 -1.088,-3.42c2.277,-1.591 3.84,-5.194 7.951,-3.174c7.177,3.525 14.321,7.105 21.484,10.654c3.737,1.851 7.55,3.589 11.202,5.565c1.773,0.959 3.043,0.602 4.468,-0.394c2.771,-1.936 5.586,-3.822 8.382,-5.729c0.537,2.468 3.251,2.866 4.988,4.197c0.515,0.394 1.182,0.951 1.208,1.458c0.044,0.835 -0.998,0.642 -1.634,0.819c-7.437,2.073 -7.449,2.083 -2.928,8.042c4.577,6.033 9.22,12.026 13.737,18.093c0.747,1.003 2.054,1.861 1.784,3.331z" fill="#5F5D5A"/>
     <path id="svg_107" d="m714.022,508.502c-3.376,-0.426 -6.747,-0.895 -10.132,-1.257c-1.215,-0.13 -1.908,-0.389 -2.063,-1.645c-0.618,-5.002 -1.361,-9.991 -2.057,-14.985c3.027,1.613 5.714,0.855 8.578,-0.61c4.843,-2.479 9.858,-4.692 14.825,-6.975c0.785,-0.361 1.682,-1.096 2.593,-0.314c0.762,0.654 -0.033,1.373 -0.147,2.07c-1.19,7.302 -3.671,14.395 -4.443,21.764c-2.321,0.836 -4.61,1.765 -7.154,1.952z" fill="#313E4A"/>
     <path id="svg_108" d="m714.022,508.502c2.543,-0.187 4.832,-1.116 7.154,-1.951c7.226,-2.321 14.465,-4.609 21.67,-6.98c2.198,-0.723 3.413,-0.874 3.51,1.882c0.107,3.017 0.645,6.085 1.546,8.996c0.685,2.213 -0.028,2.691 -2.216,2.529c-12.888,-0.746 -25.824,-0.444 -38.93,-1.497c2.509,-1.03 4.888,-2.004 7.266,-2.979z" fill="#344759"/>
     <path id="svg_109" d="m767.032,465.347c0.001,3.614 -0.019,7.228 0.009,10.842c0.016,2.057 -0.527,2.925 -2.849,1.442c-3.763,-2.405 -7.564,-4.771 -11.461,-6.997c-1.645,-0.939 -1.276,-1.837 -0.429,-2.845c4.191,-4.996 8.425,-9.962 12.625,-14.952c0.367,-0.436 0.726,-0.995 1.347,-0.874c0.911,0.179 0.747,0.974 0.749,1.585c0.015,3.933 0.008,7.866 0.009,11.799z" fill="#0D1B34"/>
     <path id="svg_110" d="m808.585,474.011c0.102,0.051 0.205,0.101 0.307,0.152c-0.1,-0.053 -0.2,-0.106 -0.3,-0.158c0,0 -0.007,0.006 -0.007,0.006z" fill="#2E3A4D"/>
    </g>
   </g>
  </g>
 </g>
</svg>