<?xml version="1.0" standalone="no"?>
<!DOCTYPE svg PUBLIC "-//W3C//DTD SVG 20010904//EN"
 "http://www.w3.org/TR/2001/REC-SVG-20010904/DTD/svg10.dtd">
<svg version="1.0" xmlns="http://www.w3.org/2000/svg"
 width="1920.000000pt" height="1080.000000pt" viewBox="0 0 1920.000000 1080.000000"
 preserveAspectRatio="xMidYMid meet">
<metadata>
Created by potrace 1.15, written by Peter Selinger 2001-2017
</metadata>
<g transform="translate(0.000000,1080.000000) scale(0.100000,-0.100000)"
fill="#000000" stroke="none">
<path d="M1109 10780 c13 -11 32 -20 43 -20 10 0 51 -32 89 -70 39 -39 75 -68
80 -64 5 3 9 1 9 -5 0 -6 7 -8 15 -5 8 4 15 1 15 -5 0 -6 7 -8 15 -5 14 6 20
-6 16 -29 -1 -5 3 -6 9 -2 6 3 8 11 5 16 -4 5 -1 9 4 9 6 0 11 -5 11 -11 0 -6
7 -9 15 -5 8 3 22 3 30 -1 14 -5 14 -8 0 -29 -19 -29 -12 -31 13 -3 14 15 26
18 46 13 29 -7 32 -14 14 -33 -11 -11 -10 -12 1 -6 8 4 17 2 23 -6 6 -10 7 -7
3 9 -6 21 -4 22 22 16 40 -10 47 -15 32 -25 -10 -6 -10 -9 -2 -9 6 0 15 5 18
10 5 8 11 7 20 0 8 -7 19 -9 25 -5 5 3 10 1 10 -5 0 -7 7 -9 16 -6 12 5 14 1
9 -17 -5 -19 -4 -20 5 -4 6 9 16 17 21 17 6 0 8 -4 5 -9 -3 -5 1 -12 10 -15 8
-3 12 -2 9 4 -3 6 1 10 9 10 9 0 16 -7 16 -15 0 -8 -5 -15 -12 -15 -6 0 -8 -3
-4 -7 4 -5 13 0 20 10 12 16 16 16 50 2 20 -8 36 -12 36 -9 0 4 7 1 15 -6 8
-7 15 -9 15 -4 0 4 5 3 11 -3 6 -6 18 -9 25 -6 8 3 14 0 14 -6 0 -6 7 -8 17
-4 11 5 14 3 8 -6 -6 -10 -2 -11 15 -6 15 5 20 4 16 -4 -4 -6 -1 -11 6 -11 10
0 9 -3 -2 -11 -13 -9 -13 -10 0 -6 8 2 14 10 13 16 -2 6 4 11 12 11 8 0 15 -3
15 -7 0 -5 14 -9 30 -10 38 -3 86 -26 83 -40 -1 -6 4 -13 11 -16 10 -4 12 1 9
16 -4 16 -2 18 5 8 5 -7 15 -10 22 -6 9 5 10 1 6 -16 -6 -20 -5 -21 4 -6 6 9
18 17 26 17 8 0 13 -4 10 -9 -4 -5 4 -7 16 -3 15 4 19 2 13 -7 -5 -10 -2 -11
14 -6 12 4 21 2 21 -4 0 -6 3 -10 8 -10 4 1 16 1 27 0 17 -1 18 -3 5 -11 -8
-5 -10 -10 -5 -10 6 0 15 4 21 10 11 11 54 2 54 -12 0 -5 10 -6 21 -3 14 5 19
4 15 -4 -5 -7 -1 -8 10 -4 14 5 16 3 10 -13 -6 -15 -5 -17 5 -6 15 14 33 16
24 2 -3 -5 0 -10 7 -10 10 0 9 -3 -2 -11 -13 -9 -13 -10 0 -6 8 2 14 12 12 21
-3 16 0 16 35 1 21 -9 49 -19 63 -21 112 -20 131 -27 126 -48 -5 -20 -4 -20 9
-3 10 15 18 16 33 8 11 -6 23 -7 27 -3 5 4 5 -1 2 -10 -7 -19 8 -25 18 -8 3 6
11 10 16 10 6 0 7 -4 4 -10 -3 -5 -1 -10 5 -10 6 0 8 -5 4 -12 -4 -7 -3 -8 5
-4 6 4 9 12 6 17 -4 5 1 9 10 9 10 0 13 -5 9 -12 -5 -8 -2 -9 9 -5 23 9 49 -2
40 -17 -4 -8 -3 -8 7 1 16 15 73 -4 66 -22 -2 -8 1 -16 8 -18 10 -4 12 1 9 14
-6 22 9 25 29 6 7 -8 20 -11 28 -9 12 4 13 2 3 -9 -10 -12 -8 -15 6 -15 11 0
17 6 14 13 -6 15 50 1 75 -19 13 -11 14 -11 7 2 -8 13 -6 13 8 2 9 -8 21 -11
27 -7 5 3 10 1 10 -5 0 -7 7 -10 15 -6 21 8 46 -4 38 -18 -4 -7 -2 -7 7 1 10
9 20 9 46 -2 18 -7 35 -11 38 -7 3 3 6 0 6 -6 0 -6 7 -9 15 -6 8 4 15 1 15 -5
0 -6 -5 -11 -12 -11 -6 0 -8 -3 -5 -6 4 -4 14 -1 22 6 13 11 18 10 30 -6 13
-16 14 -16 9 -2 -5 16 -3 16 25 7 17 -6 28 -15 25 -21 -4 -6 2 -5 14 1 15 8
23 8 27 0 4 -6 13 -8 21 -5 8 3 14 1 14 -4 0 -5 7 -7 16 -3 13 5 15 2 9 -18
-7 -22 -6 -23 7 -5 11 14 22 17 46 11 21 -4 30 -11 25 -18 -4 -7 1 -6 10 2 13
10 17 10 17 1 0 -7 6 -10 14 -7 8 3 31 1 52 -5 28 -7 34 -12 23 -19 -9 -5 -10
-9 -2 -9 6 0 14 4 17 9 3 4 25 4 50 -2 25 -6 43 -13 41 -17 -2 -3 10 -4 27 -2
26 4 30 2 25 -12 -4 -9 -2 -16 3 -16 6 0 10 4 10 10 0 6 9 6 23 1 12 -4 28 -6
36 -3 10 3 12 0 7 -13 -5 -15 -4 -16 8 -6 16 13 80 6 72 -8 -3 -4 8 -7 25 -6
16 1 32 -2 35 -7 3 -4 10 -6 15 -3 15 10 50 -5 43 -18 -5 -9 -4 -9 5 -1 16 15
154 -15 147 -32 -3 -7 1 -15 9 -18 9 -3 12 0 8 10 -4 12 1 14 28 9 41 -7 48
-13 29 -25 -11 -7 -11 -10 -2 -10 7 0 15 6 18 14 4 11 12 12 35 4 16 -5 26
-14 23 -19 -3 -5 -1 -9 5 -9 5 0 13 5 16 10 3 6 11 10 16 10 6 0 7 -4 4 -10
-3 -5 -1 -10 5 -10 6 0 8 -5 4 -12 -4 -7 -3 -8 5 -4 6 4 9 12 6 17 -8 13 19
11 49 -2 14 -7 23 -16 19 -22 -4 -6 -1 -7 8 -2 7 5 22 10 31 10 14 1 17 -3 13
-19 -5 -19 -5 -19 5 -3 8 13 19 16 43 11 18 -3 38 -7 45 -7 16 0 16 -19 0 -36
-11 -10 -10 -11 4 -6 9 4 19 13 22 21 3 8 10 14 16 14 6 0 9 -3 7 -7 -3 -5 9
-9 26 -9 42 -2 119 -14 129 -20 5 -3 25 -8 46 -10 72 -9 207 -37 219 -46 7 -5
16 -7 22 -4 16 10 40 -5 35 -22 -5 -14 -3 -14 10 2 10 13 21 16 33 11 10 -5
24 -7 31 -6 6 1 12 -3 12 -8 0 -6 7 -7 17 -4 10 4 14 2 10 -4 -4 -6 0 -13 8
-16 9 -4 12 -1 9 8 -4 10 0 12 16 8 16 -4 18 -8 8 -14 -9 -6 -9 -9 -1 -9 6 0
15 5 18 10 3 6 13 10 21 10 8 0 13 -4 10 -9 -3 -4 7 -6 22 -4 21 4 24 2 12 -6
-8 -6 -10 -11 -5 -11 6 0 16 5 23 12 8 8 12 8 12 1 0 -6 7 -14 16 -17 8 -3 12
-2 9 4 -7 11 15 13 39 4 9 -3 13 -11 10 -16 -4 -6 2 -6 14 1 15 8 23 7 31 -3
6 -7 10 -15 8 -17 -1 -2 3 2 10 10 9 10 19 11 44 2 17 -6 35 -8 40 -5 5 3 9 0
9 -6 0 -7 7 -10 15 -6 20 7 46 -4 38 -17 -4 -6 -1 -7 8 -1 31 19 85 12 73 -9
-5 -9 -4 -9 5 -1 18 17 51 6 45 -14 -5 -14 -4 -14 6 1 16 24 32 21 25 -5 l-6
-23 14 23 c7 12 15 20 18 17 6 -5 92 -17 122 -16 14 0 17 -5 12 -17 -5 -14 -4
-15 6 -4 15 14 33 16 25 3 -3 -5 1 -11 9 -14 9 -4 12 -1 8 9 -4 11 0 13 18 6
13 -5 30 -7 38 -4 8 2 11 0 7 -6 -3 -5 1 -12 9 -15 9 -4 12 -1 9 8 -4 10 0 12
15 8 12 -3 18 -10 14 -17 -3 -6 0 -6 8 2 15 14 43 17 35 3 -3 -4 7 -6 22 -4
21 4 24 2 12 -6 -9 -7 -10 -11 -3 -11 6 0 15 5 18 10 3 6 11 10 16 10 6 0 8
-4 5 -9 -3 -5 1 -12 10 -15 9 -3 12 -2 9 4 -4 6 6 10 24 8 17 -1 31 -6 31 -10
0 -5 11 -6 24 -2 33 8 74 -5 55 -17 -8 -5 -9 -9 -4 -9 6 0 16 5 22 11 7 7 24
8 43 4 24 -5 29 -10 19 -16 -8 -5 -9 -9 -4 -9 6 0 16 5 22 11 7 7 24 8 43 4
24 -5 29 -10 19 -16 -9 -6 -10 -9 -2 -9 6 0 15 5 18 10 3 6 11 10 17 10 7 0 7
-4 0 -13 -8 -10 -6 -13 7 -13 10 0 17 5 15 11 -3 7 8 10 31 7 26 -3 33 -7 26
-16 -7 -8 -4 -12 8 -12 11 0 17 6 14 12 -3 9 3 11 17 7 16 -4 18 -8 8 -14 -7
-5 -10 -9 -5 -9 4 0 16 5 26 11 10 7 30 9 46 5 23 -6 26 -9 14 -17 -9 -5 -9
-9 -2 -9 6 0 15 4 18 10 3 5 20 7 38 5 39 -6 89 -12 181 -20 37 -3 77 -10 88
-16 15 -8 19 -8 14 0 -11 18 6 13 20 -6 8 -11 13 -13 14 -5 0 6 7 12 16 12 9
0 12 -5 8 -12 -6 -9 -3 -9 9 1 19 15 67 8 67 -10 0 -8 4 -8 13 -1 15 12 77 13
77 1 0 -5 7 -5 17 -2 10 4 14 2 10 -4 -4 -6 0 -13 8 -16 9 -4 12 -1 8 9 -3 9
2 14 16 14 23 0 29 -15 9 -23 -10 -4 -10 -6 0 -6 7 -1 15 6 18 14 8 19 24 20
24 1 0 -8 4 -18 10 -21 5 -3 7 0 4 8 -3 10 5 14 31 15 37 1 43 -6 23 -26 -7
-7 -9 -12 -5 -12 3 0 15 10 27 22 11 12 20 18 20 12 0 -5 30 -9 68 -9 54 0 66
-3 64 -15 -3 -12 -1 -13 9 -2 15 14 33 16 25 3 -3 -5 1 -11 9 -14 9 -4 12 -1
9 7 -6 16 28 18 38 2 5 -8 8 -7 8 2 0 6 5 12 11 12 6 0 9 -7 5 -15 -3 -8 -1
-15 4 -15 6 0 10 8 11 18 0 9 3 12 5 6 3 -7 24 -9 56 -6 42 4 49 2 43 -9 -8
-12 -6 -12 8 -1 19 16 81 7 71 -10 -5 -7 -2 -8 7 -2 21 12 110 14 102 1 -4 -6
0 -8 10 -4 22 8 49 -2 40 -16 -3 -6 -1 -7 6 -3 6 4 9 12 6 17 -4 5 1 9 10 9 9
0 13 -5 9 -11 -5 -8 -1 -8 14 0 32 17 112 11 113 -8 0 -9 3 -11 5 -4 4 8 78 9
287 5 155 -4 443 -7 640 -7 303 1 360 3 367 15 6 8 10 11 10 5 0 -5 5 -2 11 7
7 13 22 17 57 17 118 -2 140 1 144 19 3 15 19 17 151 18 91 0 152 5 159 12 6
6 17 8 26 5 11 -5 13 -2 8 8 -4 8 -1 6 7 -4 15 -18 15 -18 22 2 5 16 14 21 34
19 27 -2 40 -28 14 -28 -7 0 -13 5 -13 11 0 5 -4 7 -10 4 -22 -14 -7 -22 43
-24 28 -1 68 -3 88 -4 31 -2 35 0 31 17 -3 13 -1 17 6 12 7 -4 12 -1 13 6 0 7
5 3 11 -9 11 -24 37 -27 190 -24 35 0 50 -4 57 -17 6 -9 11 -13 11 -8 0 5 7 3
15 -4 11 -9 49 -10 172 -1 605 45 1281 124 1938 226 360 57 844 146 872 160
15 8 30 12 34 9 4 -2 5 6 1 18 -4 17 -2 20 14 16 15 -4 20 0 21 15 2 24 4 26
31 30 12 2 25 7 29 12 5 4 2 5 -4 1 -16 -9 -17 10 -2 19 6 4 17 -1 25 -11 13
-18 14 -18 8 -1 -5 14 -2 18 11 15 21 -4 32 18 13 25 -7 2 -2 2 10 0 17 -3 22
0 16 9 -6 11 -4 11 7 0 11 -11 12 -14 1 -21 -11 -7 -10 -10 3 -15 25 -9 27 -8
20 14 -5 16 -3 19 11 13 13 -5 15 -3 9 7 -5 8 -4 11 3 6 5 -3 13 0 15 6 4 9 6
9 6 1 1 -6 -6 -18 -14 -27 -8 -8 -11 -17 -6 -21 5 -3 12 4 16 15 3 11 11 20
16 20 6 0 7 5 3 12 -5 7 -3 8 5 4 7 -5 10 -15 7 -23 -4 -8 -1 -11 5 -7 6 3 9
15 6 25 -6 22 -3 23 23 9 16 -9 18 -8 13 7 -5 12 -2 15 10 10 9 -3 19 -2 22 3
4 6 14 10 25 10 13 0 17 -6 14 -22 -3 -17 -1 -15 7 5 7 17 17 27 27 25 10 -1
23 2 31 6 11 7 13 5 8 -7 -3 -10 -2 -17 3 -17 6 0 10 6 10 14 0 16 53 31 71
20 8 -4 9 -3 5 4 -5 8 1 13 16 14 13 0 28 2 33 3 6 2 15 3 21 4 6 0 21 25 34
54 25 58 64 99 86 90 7 -3 17 2 20 11 8 21 30 20 44 -1 10 -16 11 -16 7 4 -4
19 -2 21 20 12 22 -8 24 -7 19 7 -5 14 -4 15 9 4 12 -10 15 -9 16 6 0 18 1 18
9 -1 l9 -20 0 20 c1 16 3 17 11 5 8 -13 11 -13 22 -1 11 11 11 13 -1 6 -10 -6
-12 -4 -6 4 4 7 18 11 31 8 13 -2 21 0 18 4 -3 5 3 9 13 9 15 0 44 30 48 50 1
3 10 24 20 47 14 31 26 43 48 47 18 4 26 10 21 17 -4 8 -3 9 4 5 7 -4 12 -2
12 3 0 6 5 11 11 11 5 0 8 -4 4 -9 -3 -6 4 -9 15 -8 11 1 19 6 16 12 -2 6 5
11 15 11 11 0 19 -5 19 -10 0 -5 8 0 18 11 9 11 36 24 60 30 39 10 43 10 37
-5 -4 -12 1 -10 15 6 25 26 32 28 23 5 -5 -13 -2 -12 14 4 11 11 27 23 34 27
9 4 10 8 3 11 -32 16 -44 35 -50 80 -5 46 -3 53 21 77 22 22 25 30 15 47 -8
16 -8 32 1 64 13 49 41 83 76 92 25 6 103 51 103 60 0 3 -3264 5 -7252 5
-7213 -1 -7253 -1 -7229 -20z"/>
<path d="M11573 4320 c-3 -10 -14 -22 -24 -25 -24 -8 -24 -20 1 -38 20 -14 19
-14 -1 -36 -17 -18 -23 -20 -30 -9 -6 8 -9 9 -9 1 0 -12 -24 -12 -36 0 -12 12
-22 8 -20 -8 1 -8 8 -21 14 -27 7 -7 12 -21 12 -31 0 -16 -3 -17 -15 -7 -19
16 -43 6 -54 -22 l-8 -23 -7 23 c-4 12 -14 22 -23 22 -25 0 -9 -80 22 -105 14
-12 25 -28 25 -36 0 -8 6 -21 13 -28 10 -11 8 -13 -13 -7 -14 4 -32 8 -40 11
-8 2 -24 7 -34 11 -17 6 -18 4 -11 -17 4 -13 7 -37 6 -53 0 -26 2 -28 29 -22
26 5 30 2 30 -15 0 -18 4 -20 25 -15 14 4 25 2 25 -3 0 -5 3 -18 6 -28 6 -15
4 -16 -7 -5 -41 38 -52 -7 -14 -58 14 -19 25 -39 25 -46 0 -6 7 -17 15 -24 8
-7 15 -17 15 -23 0 -6 -12 0 -26 14 -18 16 -28 20 -31 12 -8 -21 -29 -15 -30
9 -2 26 -29 49 -48 42 -7 -3 -16 -1 -20 5 -3 6 -13 11 -22 11 -12 0 -14 -7 -9
-37 12 -64 16 -72 44 -75 35 -4 46 -48 12 -48 -19 0 -21 -4 -17 -26 3 -16 0
-28 -9 -31 -8 -3 -14 -14 -14 -24 0 -15 -5 -17 -30 -12 -26 5 -30 2 -30 -15 0
-12 5 -24 11 -28 7 -4 10 -30 7 -68 -3 -55 -1 -61 17 -61 11 0 19 -6 17 -13
-1 -7 5 -15 13 -18 17 -7 20 -30 4 -39 -5 -4 -24 -9 -40 -12 -41 -6 -65 26
-72 97 -7 60 -40 135 -60 135 -6 0 -12 -10 -12 -22 0 -30 -15 -41 -26 -20 -17
30 -38 20 -41 -20 l-3 -38 -17 38 c-9 20 -21 37 -25 37 -4 0 -17 -20 -27 -43
-40 -88 -41 -88 -80 -3 -33 71 -56 96 -56 62 0 -8 -7 -22 -16 -31 -21 -21 -35
-82 -28 -121 5 -28 3 -32 -21 -36 -20 -4 -25 -2 -21 9 3 8 -4 18 -19 25 -14 6
-24 16 -23 22 0 6 -2 24 -7 40 -4 16 -8 38 -9 50 -2 31 -30 31 -46 -1 -8 -15
-23 -41 -33 -56 -11 -17 -17 -38 -14 -53 2 -13 1 -27 -4 -29 -4 -3 -6 -33 -4
-66 4 -60 4 -61 -20 -57 -26 5 -40 -13 -23 -30 6 -6 8 -21 5 -34 -5 -18 -13
-24 -34 -23 -15 0 -34 5 -42 9 -11 7 -13 5 -8 -10 7 -18 6 -18 -7 -1 -7 9 -16
17 -19 17 -4 0 -4 -8 -1 -17 5 -15 4 -15 -4 -4 -13 19 -56 26 -47 9 4 -7 1 -6
-7 3 -15 18 -51 22 -41 5 4 -6 -1 -5 -10 2 -9 8 -21 11 -27 7 -6 -3 -10 3 -10
15 0 11 -7 23 -15 26 -8 4 -15 13 -15 21 0 23 -49 123 -60 123 -11 0 -57 -70
-53 -81 1 -4 -6 -13 -15 -22 -9 -9 -29 -27 -44 -41 -15 -13 -30 -21 -32 -17
-3 4 -20 7 -38 6 -18 -1 -37 0 -43 4 -22 12 -36 9 -30 -7 5 -13 2 -12 -15 3
-16 15 -20 16 -15 3 8 -19 -11 -33 -21 -17 -4 8 -3 9 4 5 18 -11 14 10 -4 29
-10 10 -26 14 -39 11 -21 -5 -21 -3 -18 58 3 39 0 67 -6 71 -6 3 -8 17 -5 31
5 18 0 34 -13 52 -11 15 -28 43 -38 62 -22 44 -19 42 -39 34 -13 -5 -15 -14
-10 -39 3 -19 1 -35 -5 -39 -6 -4 -11 -18 -11 -31 0 -15 -7 -26 -21 -30 -17
-6 -20 -13 -15 -36 4 -22 2 -29 -10 -29 -13 0 -15 -7 -10 -32 3 -18 2 -40 -4
-48 -7 -12 -13 -10 -33 12 -13 14 -24 32 -25 39 -7 79 -43 183 -65 187 -10 2
-20 -13 -32 -50 -10 -29 -21 -57 -26 -63 -5 -5 -9 -26 -9 -46 0 -25 -5 -39
-16 -43 -13 -5 -14 -9 -4 -22 10 -11 10 -18 2 -26 -17 -17 -20 -10 -33 72 -7
41 -18 80 -25 85 -6 6 -18 40 -25 78 -7 37 -17 67 -23 67 -18 -1 -79 -136 -71
-159 3 -10 1 -22 -4 -25 -5 -4 -8 -34 -6 -67 4 -60 4 -61 -20 -57 -26 5 -40
-13 -23 -30 6 -6 8 -22 4 -35 -5 -23 -9 -24 -42 -17 -30 7 -35 6 -29 -8 5 -13
3 -13 -14 2 -18 16 -19 16 -17 0 1 -13 -7 -17 -36 -18 -31 -1 -37 1 -33 15 3
10 1 20 -4 24 -7 4 -8 -1 -4 -12 6 -16 5 -17 -13 -3 -17 14 -18 14 -6 -2 12
-15 11 -18 -13 -24 -30 -8 -59 11 -37 25 10 6 10 10 -3 21 -13 11 -14 10 -9
-5 6 -14 4 -16 -7 -9 -23 14 -38 13 -32 -3 4 -11 8 -12 13 -2 6 8 11 5 20 -11
14 -26 9 -33 -28 -36 -15 -2 -44 -5 -65 -7 -30 -3 -41 0 -52 17 -17 24 -20 40
-5 31 6 -4 7 1 3 12 -6 16 -5 17 12 3 18 -15 18 -14 1 12 -14 22 -22 26 -36
18 -9 -5 -20 -6 -24 -2 -4 3 -4 -1 -1 -11 6 -14 9 -15 22 -2 17 17 23 19 23 6
0 -15 -31 -42 -41 -36 -5 4 -6 -2 -2 -12 6 -16 5 -17 -12 -3 -18 15 -19 14 -2
-10 21 -30 22 -47 2 -30 -13 11 -14 10 -10 -1 4 -10 -3 -15 -24 -15 -27 -2
-29 1 -26 33 2 34 21 57 37 47 4 -3 5 2 2 10 -5 14 -8 14 -21 1 -8 -8 -16 -15
-19 -15 -9 0 -3 20 11 34 14 13 13 15 -4 13 -13 -1 -17 -6 -13 -17 5 -13 4
-13 -13 0 -18 15 -19 14 -2 -10 9 -13 17 -28 17 -33 0 -5 -8 -3 -17 4 -16 13
-16 13 0 -11 22 -32 22 -46 0 -29 -16 12 -17 12 -7 -1 18 -25 24 -49 13 -55
-5 -4 -8 -1 -7 5 4 18 -30 20 -47 3 -8 -8 -15 -10 -15 -5 0 7 -11 6 -30 -1
-23 -9 -33 -8 -42 1 -10 10 -10 14 1 21 8 6 9 11 3 15 -6 3 -9 25 -7 49 1 23
1 36 -2 29 -3 -6 -10 -9 -16 -5 -19 12 -37 12 -37 2 0 -6 -6 -7 -12 -3 -7 4
-9 3 -5 -1 12 -14 37 -15 37 -2 0 7 7 3 15 -7 18 -24 19 -40 3 -29 -18 11 -32
10 -39 -1 -4 -5 -14 4 -22 20 l-16 29 4 -43 c3 -31 0 -40 -8 -35 -21 13 -36
11 -30 -4 4 -11 8 -11 13 -3 6 9 9 9 15 0 8 -13 -14 -32 -27 -24 -4 3 -5 -1
-2 -9 2 -7 -1 -14 -8 -15 -7 0 -25 -3 -40 -5 -30 -4 -33 0 -19 22 7 11 11 10
20 -5 11 -17 11 -16 5 5 -4 16 -3 21 5 17 7 -5 8 -1 4 11 -6 16 -5 17 12 3 18
-15 19 -14 2 10 -22 31 -22 46 0 29 15 -13 15 -12 2 8 -12 21 -14 21 -23 5
-12 -21 -28 -32 -38 -26 -4 3 -5 -2 -2 -10 5 -14 8 -14 21 -1 17 17 23 19 23
6 0 -15 -31 -42 -41 -36 -5 4 -6 -2 -2 -12 6 -16 5 -17 -13 -3 -18 14 -18 14
-5 -3 13 -16 13 -20 1 -27 -16 -10 -30 -4 -30 11 0 6 4 7 10 4 6 -4 7 1 3 11
-5 15 -7 15 -15 0 -5 -9 -7 -19 -5 -24 3 -4 -1 -13 -9 -20 -8 -7 -14 -8 -14
-3 0 6 -6 8 -14 5 -8 -3 -17 0 -22 7 -5 9 -2 11 9 6 14 -5 14 -3 -1 23 -9 16
-20 26 -24 24 -4 -3 -5 2 -2 10 3 9 11 13 17 9 15 -9 -34 59 -52 73 -8 6 -11
16 -7 22 4 7 1 12 -8 12 -10 0 -16 9 -16 21 0 15 -5 20 -22 17 -19 -3 -23 -8
-20 -37 2 -22 -3 -38 -14 -46 -11 -8 -15 -20 -11 -34 3 -14 1 -21 -9 -21 -8 0
-23 -5 -33 -12 -16 -10 -18 -16 -9 -32 10 -19 10 -20 -6 -6 -25 20 -46 22 -39
3 4 -11 8 -11 13 -3 6 9 9 9 15 0 9 -15 3 -20 -29 -26 -21 -4 -27 0 -32 23 -4
16 -18 48 -31 72 -12 24 -23 50 -23 57 0 8 -9 14 -20 14 -14 0 -23 -11 -31
-41 -7 -23 -18 -43 -25 -46 -7 -3 -10 -11 -8 -18 3 -7 1 -16 -5 -19 -5 -4 -8
-17 -5 -31 2 -13 -1 -27 -7 -31 -8 -4 -9 -3 -5 5 4 6 2 18 -4 26 -7 8 -10 21
-7 30 4 8 -2 20 -11 27 -9 7 -17 18 -17 23 -1 36 -18 125 -23 125 -7 -1 -55
-97 -66 -132 -3 -10 0 -20 6 -24 7 -4 7 -9 0 -13 -5 -3 -12 -20 -15 -38 -8
-47 -14 -52 -61 -50 -36 1 -42 5 -38 19 2 10 0 18 -6 18 -17 0 -64 48 -58 58
3 6 -1 13 -10 16 -8 3 -14 14 -12 23 2 13 -4 18 -22 18 -22 0 -25 -5 -28 -38
-2 -22 -12 -47 -23 -58 -11 -11 -18 -27 -15 -35 4 -10 -1 -13 -16 -10 -12 1
-31 -5 -42 -15 -17 -16 -22 -17 -35 -5 -9 7 -26 12 -38 10 -13 -2 -23 1 -23 7
0 5 5 7 12 3 7 -4 8 -3 4 4 -4 6 -13 9 -20 6 -9 -3 -21 9 -32 35 -23 50 -52
55 -60 11 -4 -17 -15 -32 -25 -35 -11 -4 -17 -11 -14 -16 9 -13 -9 -11 -24 4
-10 8 -12 8 -7 0 4 -7 -1 -11 -12 -10 -11 0 -19 6 -18 12 2 30 -17 135 -25
135 -5 0 -9 -6 -9 -13 0 -18 -24 -67 -32 -67 -5 0 -8 -7 -8 -15 0 -8 -9 -15
-20 -15 -17 0 -19 3 -11 18 12 22 -12 82 -34 82 -8 0 -15 7 -15 16 0 8 -6 22
-14 30 -8 7 -16 18 -18 24 -2 6 -11 8 -21 5 -11 -5 -17 -18 -17 -41 0 -20 -6
-37 -16 -42 -11 -6 -15 -17 -11 -31 4 -17 1 -21 -17 -21 -24 0 -52 -35 -36
-45 18 -11 2 -21 -29 -19 -22 1 -28 -2 -24 -13 4 -10 8 -11 13 -3 5 8 9 7 13
-5 6 -13 0 -15 -31 -14 -34 2 -37 5 -39 33 -4 45 -62 156 -82 156 -11 0 -23
-16 -32 -42 -17 -47 -42 -69 -59 -52 -6 6 -13 40 -17 77 -4 47 -10 67 -19 67
-8 0 -14 -7 -14 -16 0 -20 -38 -104 -48 -104 -4 0 -8 -12 -8 -28 -1 -15 1 -21
3 -14 3 6 9 9 15 6 6 -4 5 -9 -3 -15 -7 -4 -13 -20 -14 -35 0 -15 -6 -29 -12
-32 -7 -2 -13 1 -13 8 0 6 6 8 13 4 7 -4 9 -3 4 2 -13 14 -30 11 -48 -7 -11
-11 -27 -15 -50 -12 -19 3 -46 6 -60 7 -23 1 -25 4 -19 22 6 14 4 21 -5 21 -7
0 -11 -6 -8 -13 5 -12 -21 -14 -33 -2 -3 4 -12 4 -20 1 -8 -3 -14 -1 -14 5 0
18 24 19 38 3 11 -14 12 -13 3 6 -15 31 -14 38 6 22 16 -13 16 -13 0 11 -22
31 -22 46 0 29 14 -12 13 -9 -2 16 -11 17 -20 32 -21 34 -2 2 -1 -15 1 -38 4
-43 -16 -78 -37 -65 -6 4 -8 2 -5 -3 4 -6 -7 -10 -28 -9 -19 0 -35 4 -35 8 0
3 -11 5 -25 3 -19 -2 -29 4 -40 25 -16 32 -49 63 -39 37 4 -11 0 -14 -13 -12
-10 2 -22 4 -26 4 -4 1 -3 10 3 21 6 11 16 17 22 14 7 -4 8 -3 4 5 -4 6 -4 21
0 33 6 21 7 21 20 3 19 -25 18 -41 -1 -25 -13 10 -12 6 2 -18 10 -18 22 -32
27 -32 5 0 3 7 -5 16 -10 13 -10 17 0 24 10 6 10 9 1 15 -6 4 -9 14 -5 23 3 9
3 13 -1 9 -4 -4 -13 -2 -21 4 -7 6 -13 8 -13 4 0 -4 -7 -2 -15 5 -9 7 -23 9
-37 4 -13 -4 -27 -7 -32 -6 -5 2 -5 -5 -2 -15 6 -14 4 -15 -5 -6 -13 13 -3 36
12 27 6 -3 5 3 -2 14 -7 12 -9 27 -4 38 4 11 7 25 6 32 -1 6 7 12 19 12 11 0
20 7 20 15 0 8 -8 15 -17 15 -13 0 -14 3 -5 12 7 7 12 16 12 20 0 15 -38 8
-56 -9 -16 -17 -17 -15 -11 26 4 31 1 48 -9 58 -12 12 -17 10 -39 -14 -13 -15
-25 -40 -25 -55 0 -15 -4 -30 -10 -33 -5 -3 -10 -15 -10 -26 0 -23 -6 -24 -27
-3 -13 13 -17 13 -24 2 -12 -18 -11 -48 1 -48 6 0 10 -8 9 -17 0 -11 -3 -13
-6 -5 -2 6 -10 9 -15 6 -6 -4 -8 -2 -4 4 3 6 2 13 -4 17 -5 3 -10 28 -10 56
l0 49 -50 -4 c-37 -2 -50 0 -50 10 0 8 5 14 10 14 6 0 10 9 10 20 0 25 -11 25
-52 0 -18 -11 -36 -20 -39 -20 -11 0 -17 50 -8 56 18 11 8 42 -17 59 -33 21
-44 9 -44 -52 0 -47 -14 -57 -24 -18 -4 14 -10 25 -15 25 -21 0 -43 -103 -28
-128 5 -6 5 -17 2 -22 -4 -6 0 -22 9 -35 20 -31 3 -44 -27 -19 -12 10 -17 12
-10 5 19 -22 -12 -62 -40 -52 -12 4 -32 7 -44 6 -14 -1 -19 3 -16 12 4 9 0 11
-11 7 -18 -7 -18 -8 -20 63 -2 35 1 50 8 45 20 -12 35 -10 29 5 -4 11 -8 11
-13 3 -6 -9 -9 -9 -15 0 -4 7 -2 16 5 20 8 5 9 10 2 14 -6 3 -13 0 -15 -6 -4
-10 -6 -10 -6 0 -1 6 -6 12 -13 12 -9 0 -9 -3 0 -12 18 -18 14 -32 -5 -17 -16
13 -16 13 0 -11 20 -29 22 -44 5 -33 -21 12 -38 12 -38 0 0 -7 -7 -3 -15 7
-18 24 -19 40 -2 29 21 -13 36 -12 30 4 -4 11 -8 12 -13 2 -6 -8 -11 -6 -19 9
-16 29 -14 37 6 21 14 -12 14 -10 -1 14 -20 30 -29 35 -20 12 4 -8 1 -15 -6
-15 -9 0 -9 -4 1 -17 11 -13 11 -17 1 -20 -6 -3 -9 -10 -5 -16 13 -20 12 -68
-1 -60 -22 14 -38 12 -32 -5 4 -11 -2 -8 -14 7 -22 26 -27 46 -7 34 20 -12 35
-12 40 1 3 7 -1 13 -9 13 -8 0 -14 -5 -14 -11 -1 -13 -30 24 -30 37 0 5 8 3
17 -4 16 -13 16 -13 0 11 -21 31 -22 47 -2 30 13 -11 12 -7 -2 18 -17 30 -56
42 -45 13 3 -9 1 -12 -6 -7 -8 5 -10 2 -5 -10 5 -14 8 -13 18 6 9 17 14 20 20
9 5 -8 4 -14 -3 -17 -7 -2 -9 -9 -5 -15 4 -7 8 -33 9 -59 0 -39 -2 -46 -13
-37 -7 6 -13 8 -13 3 0 -5 -7 0 -15 10 -8 11 -15 17 -15 14 0 -4 -12 -1 -27 7
-15 8 -31 11 -36 8 -6 -3 -7 -1 -3 5 6 11 -12 17 -36 13 -4 0 -5 6 -1 14 4 13
8 13 21 3 14 -12 14 -11 1 9 -11 19 -15 20 -22 8 -16 -29 -24 -14 -22 41 1 35
7 59 16 66 12 8 12 9 -1 5 -8 -2 -21 3 -28 12 -11 14 -12 13 -3 -6 15 -31 14
-38 -6 -22 -16 13 -16 13 0 -11 22 -31 22 -46 0 -29 -14 12 -14 10 2 -14 19
-30 16 -40 -14 -42 -13 -1 -17 3 -13 13 3 10 1 13 -6 8 -6 -3 -13 -2 -16 3 -4
5 -17 8 -30 7 -19 -2 -22 1 -18 17 5 18 6 19 17 3 16 -22 24 -4 20 47 -2 26 0
35 8 30 21 -13 36 -11 30 4 -5 12 -7 12 -14 2 -6 -10 -10 -9 -15 5 -9 24 -26
-1 -18 -28 5 -14 3 -16 -7 -10 -21 13 -39 13 -39 1 0 -7 -7 -3 -15 7 -18 24
-19 40 -2 29 22 -14 36 -12 29 5 -4 12 -7 13 -10 3 -3 -9 -11 -6 -26 11 -11
13 -16 17 -11 9 7 -10 6 -16 -3 -18 -6 -3 -9 -10 -5 -16 13 -20 12 -68 -1 -60
-22 14 -38 12 -32 -5 4 -11 -2 -8 -14 7 -24 28 -26 49 -3 30 16 -13 16 -13 0
11 -22 31 -22 46 0 29 14 -12 14 -10 -1 14 -10 15 -19 27 -20 27 -1 0 -2 -25
-1 -57 0 -40 -4 -58 -14 -61 -9 -3 -12 0 -9 10 4 8 0 15 -8 15 -7 0 -11 -4 -8
-9 3 -4 1 -8 -5 -8 -10 0 -31 31 -31 46 0 3 8 0 17 -7 16 -13 16 -13 0 11 -22
31 -22 46 0 29 14 -12 13 -9 -2 16 -11 17 -20 31 -21 33 -5 9 5 -106 10 -119
4 -10 3 -20 -3 -24 -7 -3 -8 0 -5 9 6 17 4 17 -68 19 -21 1 -38 5 -38 8 0 4
-12 6 -26 4 -18 -2 -24 1 -20 12 3 8 2 12 -3 9 -5 -3 -15 1 -22 10 -10 13 -10
17 0 24 10 5 10 9 2 15 -7 3 -9 15 -6 25 3 10 1 21 -4 25 -7 4 -8 -1 -4 -11 5
-13 3 -15 -8 -8 -22 13 -37 13 -42 0 -3 -7 1 -13 9 -13 8 0 14 5 14 11 1 13
30 -24 30 -37 0 -5 -8 -3 -17 4 -14 12 -14 10 2 -14 14 -22 15 -31 6 -40 -10
-9 -12 -9 -9 3 2 9 -6 15 -19 16 -13 1 -24 3 -25 4 -2 1 -16 3 -31 4 -19 1
-34 11 -47 31 -25 37 -26 52 -2 34 15 -13 16 -12 3 4 -13 17 -15 17 -33 -3
-11 -11 -23 -18 -28 -15 -6 4 -7 -2 -3 -12 6 -16 5 -17 -12 -3 -11 9 -16 10
-11 3 4 -7 4 -13 -1 -14 -4 0 -18 -2 -31 -3 -12 -2 -22 1 -22 5 0 13 31 39 41
34 5 -4 6 1 3 9 -5 14 -8 14 -21 1 -8 -9 -18 -13 -23 -10 -4 3 -7 -3 -6 -12 1
-13 -8 -18 -36 -19 -21 -1 -38 3 -38 8 0 5 4 6 10 3 6 -3 7 1 4 9 -6 14 5 21
28 17 4 0 5 6 1 15 -4 11 -8 12 -13 4 -6 -9 -11 -7 -19 6 -6 12 -11 14 -11 5
0 -11 -3 -11 -17 0 -16 13 -16 13 0 -11 22 -31 22 -46 0 -29 -15 13 -15 12 -4
-11 l12 -25 -20 24 c-22 24 -28 47 -11 36 6 -3 7 1 3 10 -4 12 -8 13 -13 5 -6
-9 -9 -9 -15 0 -4 7 -2 16 4 20 9 5 9 10 -1 18 -8 6 -19 7 -27 3 -9 -6 -10
-11 -2 -15 6 -4 11 -12 11 -18 0 -6 -6 -6 -15 2 -13 11 -15 10 -9 -6 5 -18 5
-18 -10 0 -12 15 -16 16 -16 5 -1 -10 -5 -9 -15 5 -20 27 -19 41 3 25 16 -13
16 -12 3 4 -12 15 -12 20 -2 27 9 5 10 10 2 14 -6 4 -11 1 -11 -6 0 -9 -3 -9
-8 -2 -11 16 -41 13 -35 -4 4 -10 8 -11 13 -2 6 9 9 9 15 0 4 -7 2 -16 -5 -20
-9 -5 -9 -9 -1 -14 6 -4 11 -12 11 -18 0 -6 -7 -5 -17 3 -9 8 -19 13 -22 11
-3 -2 -7 2 -10 9 -2 7 1 9 9 4 9 -6 9 -3 1 14 -14 25 -22 28 -15 4 5 -15 3
-15 -10 1 -18 22 -21 41 -6 31 6 -3 7 1 4 9 -5 14 -8 14 -21 1 -8 -9 -19 -13
-24 -10 -5 4 -6 -2 -2 -12 6 -16 5 -17 -12 -3 -18 15 -18 14 0 -13 10 -15 15
-30 12 -33 -3 -3 -13 8 -23 25 -19 33 -39 23 -28 -14 5 -16 4 -17 -6 -8 -18
17 -21 81 -4 97 12 13 12 15 -5 13 -13 -1 -17 -6 -13 -17 5 -13 4 -13 -13 0
-18 15 -19 14 -2 -10 22 -31 22 -46 0 -29 -16 13 -16 13 0 -11 22 -31 22 -47
0 -29 -9 8 -19 13 -22 11 -3 -2 -7 2 -10 9 -2 7 1 9 8 5 7 -5 9 -1 4 9 -9 24
-24 -4 -17 -30 5 -16 4 -17 -6 -8 -19 18 -21 81 -3 98 8 8 19 13 24 10 5 -4 6
1 2 10 -4 12 -8 13 -13 5 -6 -9 -10 -8 -16 3 -8 12 -11 13 -21 1 -8 -8 -9 -15
-3 -19 6 -3 10 -11 10 -17 0 -6 -7 -5 -17 3 -16 13 -16 13 0 -11 20 -29 22
-44 5 -33 -21 12 -38 12 -38 0 0 -7 -7 -3 -15 7 -18 24 -19 40 -2 29 21 -13
36 -12 30 4 -5 11 -7 12 -14 2 -5 -9 -11 -5 -20 14 -7 15 -16 27 -21 27 -5 0
-6 -6 -1 -12 13 -21 12 -69 -1 -61 -19 12 -36 12 -36 0 0 -7 -7 -3 -15 7 -18
24 -19 40 -2 29 20 -12 35 -12 40 1 3 7 -1 13 -9 13 -8 0 -14 -5 -14 -11 0 -6
-7 -3 -14 7 -18 23 -25 6 -20 -48 2 -37 2 -39 -12 -20 -8 11 -13 24 -10 31 2
6 -2 11 -9 11 -11 0 -11 -5 -4 -20 21 -39 0 -27 -25 14 l-25 43 4 -44 c4 -41
3 -43 -11 -25 -8 11 -13 24 -10 31 2 6 -2 11 -9 11 -11 0 -11 -5 -4 -20 18
-32 3 -30 -19 4 -19 30 -20 31 -27 10 -6 -19 -17 -26 -38 -22 -4 1 -3 -7 3
-18 17 -32 11 -38 -10 -11 -17 21 -19 22 -14 5 6 -20 5 -20 -10 -1 -11 14 -16
15 -16 6 0 -11 -3 -11 -12 -2 -10 10 -10 15 2 22 8 5 18 6 22 4 4 -3 5 3 1 12
-4 12 -8 14 -11 6 -3 -10 -7 -10 -18 -1 -12 10 -13 8 -7 -7 6 -17 5 -18 -13
-4 -15 11 -16 11 -6 0 17 -20 15 -35 -3 -20 -13 11 -15 10 -9 -6 5 -18 5 -18
-10 0 -12 15 -16 16 -16 5 0 -9 -8 -5 -21 11 -11 14 -18 19 -14 11 4 -7 2 -17
-5 -21 -9 -5 -9 -9 -1 -14 6 -4 11 -2 11 4 0 6 5 8 10 5 21 -13 8 -21 -35 -21
-25 -1 -45 2 -45 6 0 3 -13 7 -30 8 -16 1 -41 2 -54 3 -25 2 -38 18 -32 41 1
7 1 9 -2 5 -2 -4 -11 -2 -20 5 -12 10 -11 6 3 -15 22 -34 8 -58 -19 -32 -9 9
-16 13 -16 9 0 -3 -7 -1 -15 6 -9 7 -13 21 -10 31 3 9 1 20 -4 24 -7 4 -8 -1
-4 -12 6 -16 5 -17 -12 -3 -18 15 -18 14 0 -13 14 -22 15 -31 6 -40 -10 -9
-12 -9 -9 3 2 10 -5 15 -22 14 -29 -2 -41 13 -35 41 3 11 2 14 -1 7 -3 -6 -10
-9 -16 -6 -6 4 -5 -3 1 -15 16 -28 8 -39 -26 -35 -15 1 -33 -2 -40 -8 -10 -8
-12 -7 -8 3 4 11 -3 14 -27 14 -18 0 -39 -4 -45 -8 -9 -6 -11 -3 -7 8 5 11 2
14 -10 9 -9 -3 -16 -1 -16 6 0 6 6 8 13 4 6 -4 8 -3 4 1 -12 14 -36 14 -31 1
5 -14 3 -15 -85 -18 -41 -2 -66 1 -68 8 -5 15 26 46 38 39 5 -4 6 1 3 9 -5 14
-8 14 -21 1 -8 -9 -19 -13 -24 -10 -5 4 -6 -2 -2 -12 6 -16 5 -17 -12 -3 -18
15 -19 14 -2 -10 20 -29 22 -47 5 -33 -7 6 -22 9 -33 7 -24 -4 -36 14 -30 41
3 11 2 14 -1 7 -5 -10 -9 -10 -22 0 -14 11 -14 9 1 -12 9 -13 17 -28 17 -31 0
-9 -21 -6 -39 5 -11 7 -13 5 -8 -8 4 -10 3 -15 -3 -11 -6 3 -16 3 -22 -2 -19
-12 -72 -11 -80 1 -12 17 -9 28 4 19 21 -12 38 -12 38 0 0 7 7 4 14 -6 12 -15
14 -16 20 -2 3 8 2 22 -1 32 -5 12 -3 14 8 7 23 -14 38 -13 32 3 -4 11 -8 11
-13 3 -6 -9 -9 -9 -14 -1 -12 18 -27 1 -20 -21 5 -16 3 -18 -7 -12 -21 13 -39
13 -39 1 0 -7 -7 -4 -14 6 -12 15 -14 16 -20 2 -3 -8 -3 -21 0 -29 7 -18 -12
-30 -22 -15 -5 8 -3 9 7 4 8 -5 10 -4 6 0 -12 14 -36 14 -31 1 3 -7 -1 -13 -8
-14 -7 -1 -29 -3 -48 -6 -19 -2 -43 -4 -54 -5 -10 -1 -16 -6 -13 -14 3 -8 -3
-13 -14 -13 -11 0 -19 4 -19 7 0 14 32 39 41 34 5 -4 6 2 2 12 -6 16 -5 17 13
3 18 -14 18 -14 5 3 -13 17 -15 17 -33 -3 -11 -11 -23 -18 -27 -15 -5 2 -8 -3
-7 -13 1 -12 -7 -17 -29 -18 -16 0 -39 -5 -51 -12 -16 -8 -24 -8 -34 1 -10 10
-12 8 -7 -6 4 -11 3 -16 -3 -12 -6 3 -16 3 -22 -2 -19 -12 -72 -11 -80 1 -12
17 -9 28 4 19 21 -12 38 -12 38 0 0 7 7 4 14 -6 12 -15 14 -16 20 -2 3 8 2 22
-1 32 -5 12 -3 14 8 7 23 -14 38 -13 32 3 -4 11 -8 12 -13 2 -6 -8 -11 -6 -19
9 -14 27 -14 35 2 25 21 -13 36 -12 30 4 -4 11 -8 11 -13 3 -6 -9 -9 -9 -15 0
-4 7 -1 17 6 22 11 8 10 9 -4 4 -9 -3 -17 -1 -17 4 0 6 -5 10 -11 10 -8 0 -7
-6 2 -17 11 -13 11 -17 1 -21 -10 -3 -10 -7 -1 -19 10 -11 10 -16 0 -23 -9 -5
-10 -10 -2 -14 6 -4 11 -12 11 -17 0 -6 -6 -7 -12 -2 -21 12 -38 12 -38 0 0
-7 -7 -3 -15 7 -18 24 -19 40 -3 29 21 -12 36 -12 41 1 3 7 -1 13 -9 13 -8 0
-14 -5 -14 -11 -1 -13 -30 24 -30 37 0 5 8 3 17 -4 16 -13 16 -13 0 11 -22 32
-22 46 1 29 15 -13 16 -12 3 3 -9 13 -18 15 -31 8 -9 -5 -20 -6 -24 -2 -4 3
-4 -2 0 -12 5 -13 4 -17 -4 -12 -8 5 -10 2 -5 -10 5 -14 8 -13 18 6 9 16 14
19 20 10 4 -7 2 -16 -5 -20 -7 -4 -8 -10 -3 -13 5 -3 9 -30 7 -59 -2 -70 -2
-70 -14 -63 -15 9 -12 27 3 19 6 -4 8 -3 4 1 -4 5 -14 10 -22 11 -11 2 -12 -2
-5 -16 15 -27 13 -30 -14 -20 -13 5 -27 6 -31 2 -4 -4 -3 3 4 15 6 12 8 29 4
39 -5 13 -3 15 8 8 22 -13 37 -13 42 0 3 7 -1 13 -9 13 -8 0 -14 -5 -14 -11
-1 -13 -30 24 -30 37 0 5 8 3 17 -4 16 -13 16 -13 0 11 -22 31 -22 46 0 29 16
-13 16 -13 0 11 -22 31 -22 46 0 29 15 -13 15 -12 3 7 -12 19 -16 20 -27 8
-20 -20 -25 -17 -19 9 3 12 3 16 0 9 -5 -10 -9 -10 -22 0 -14 11 -14 9 1 -12
22 -31 22 -46 0 -29 -15 13 -15 12 -2 -8 l14 -23 12 23 c15 26 15 26 17 -40 2
-40 -1 -53 -11 -53 -8 0 -12 4 -8 9 3 5 -7 11 -22 13 -14 2 -29 10 -31 18 -5
13 -3 13 13 0 18 -14 18 -14 2 10 -22 31 -22 46 0 29 15 -13 15 -12 2 8 -18
29 -28 12 -24 -39 4 -39 -17 -74 -37 -62 -7 4 -7 0 0 -12 7 -14 6 -22 -3 -31
-10 -10 -14 -9 -19 3 -3 8 -11 13 -18 12 -7 -2 -13 6 -13 17 0 11 5 19 12 18
8 -2 10 4 6 15 -6 15 -5 16 12 2 18 -15 19 -14 2 10 -19 27 -22 44 -7 35 6 -4
7 1 3 11 -5 14 -8 13 -18 -6 -15 -29 -24 -15 -20 32 2 21 -1 40 -6 43 -5 4 -6
-2 -2 -12 6 -16 5 -17 -12 -3 -18 15 -19 14 -2 -10 21 -31 22 -47 2 -30 -13
10 -12 6 2 -18 11 -19 24 -30 32 -27 9 4 11 0 7 -11 -3 -8 -6 -18 -6 -21 0 -3
-13 9 -29 26 -18 19 -35 29 -44 25 -18 -6 -34 15 -19 25 7 4 5 13 -5 26 -15
19 -15 19 -8 -5 7 -23 6 -24 -9 -11 -14 11 -13 6 4 -22 21 -35 21 -39 5 -63
-17 -27 -41 -28 -39 -1 1 9 -1 16 -5 15 -19 -2 -21 4 -6 18 14 15 14 17 -1 29
-9 6 -14 17 -10 23 4 6 -1 10 -13 9 -11 0 -18 -4 -16 -8 5 -7 -40 -29 -60 -29
-8 0 -15 5 -15 11 0 5 5 7 10 4 6 -3 10 -1 10 4 0 6 -7 11 -15 11 -8 0 -15 6
-15 14 0 8 -6 17 -12 19 -10 4 -9 8 2 16 10 7 11 11 3 11 -7 0 -21 8 -31 18
-16 16 -18 16 -35 0 -11 -12 -13 -18 -4 -18 7 0 4 -7 -7 -15 -23 -17 -69 -20
-95 -5 -12 6 -33 4 -64 -5 -43 -13 -46 -13 -52 6 -4 10 -20 26 -36 34 -16 9
-29 24 -29 34 0 23 -36 35 -44 15 -3 -8 -14 -14 -25 -14 -11 0 -23 -5 -26 -11
-4 -5 -18 -14 -31 -19 -13 -5 -24 -17 -24 -27 0 -15 2 -16 10 -3 5 8 10 11 10
5 0 -5 4 -4 9 3 5 8 17 12 27 10 15 -3 10 -8 -20 -21 -37 -16 -39 -16 -52 0
-12 16 -13 16 -8 1 8 -24 -20 -17 -57 13 -35 29 -37 39 -6 39 l22 0 -21 13
c-63 36 -84 53 -84 69 0 17 -2 16 -20 -2 -11 -11 -24 -20 -29 -20 -4 0 -19
-10 -33 -22 -44 -40 -63 -54 -81 -61 -21 -8 -68 9 -85 30 -11 15 -12 15 -12
-4 0 -11 -7 -24 -16 -27 -17 -6 -84 20 -96 38 -4 6 -8 -850 -8 -1901 l0 -1913
9600 0 9600 0 0 1778 c0 1409 -3 1781 -12 1791 -7 8 -8 11 -2 8 7 -4 11 5 12
23 0 17 -3 30 -8 30 -5 0 -7 -6 -4 -14 3 -8 0 -17 -7 -22 -7 -4 -10 -3 -6 4
10 15 -4 44 -18 38 -7 -2 -16 -2 -19 2 -10 10 -36 11 -36 2 0 -15 20 -22 20
-8 1 8 6 6 15 -6 8 -11 15 -14 15 -7 0 7 5 9 11 5 8 -4 7 -9 -2 -15 -11 -6
-11 -11 -1 -21 16 -16 15 -25 -3 -25 -9 0 -25 15 -36 33 -13 21 -25 31 -35 27
-18 -7 -18 -8 3 -41 15 -24 16 -25 1 -14 -11 9 -17 9 -20 2 -2 -6 -17 12 -33
40 -17 30 -35 48 -42 46 -7 -3 -13 -1 -13 4 0 5 -9 8 -19 7 -15 -1 -17 -5 -10
-18 5 -10 6 -25 3 -33 -5 -12 -2 -15 10 -10 18 7 21 20 6 29 -5 3 -10 12 -10
18 0 7 7 4 14 -6 10 -13 15 -15 18 -5 3 7 12 -2 22 -22 17 -35 17 -35 -2 -11
-17 21 -20 22 -26 6 -3 -10 -1 -25 6 -34 8 -10 5 -9 -10 3 -16 14 -22 15 -22
6 0 -9 -4 -8 -13 4 -13 17 -14 17 -30 1 -9 -9 -17 -11 -17 -5 0 6 7 13 15 16
8 4 15 10 15 15 0 6 -10 5 -21 -2 -15 -8 -19 -8 -15 0 4 6 0 21 -8 33 -9 12
-16 17 -16 10 0 -8 -5 -10 -12 -5 -19 11 -38 12 -38 2 0 -6 -6 -7 -12 -2 -19
11 -38 13 -38 3 0 -5 5 -12 10 -15 6 -3 10 -1 10 6 0 7 7 4 15 -7 9 -12 14
-14 15 -6 0 7 5 10 10 7 6 -3 10 0 10 7 0 7 5 5 11 -6 9 -15 13 -16 21 -5 8
11 8 10 4 -4 -3 -10 -2 -26 3 -36 7 -13 5 -17 -10 -18 -10 -1 -19 4 -19 10 0
8 -3 8 -8 2 -12 -17 -32 -16 -25 1 5 14 3 15 -18 4 -16 -9 -24 -10 -27 -2 -2
6 -10 8 -18 5 -8 -3 -14 -1 -14 5 0 11 18 11 35 0 16 -10 39 8 30 22 -5 9 -9
9 -14 1 -5 -7 -12 -2 -21 13 -7 14 -21 24 -31 23 -10 -1 -16 -4 -14 -7 8 -14
-30 -30 -50 -20 -3 1 -10 3 -16 4 -6 0 -16 8 -22 17 -7 9 -20 16 -29 16 -13 0
-15 -4 -7 -19 12 -22 24 -24 15 -3 -10 27 3 16 20 -16 11 -22 18 -28 24 -20 5
10 9 9 13 -2 8 -21 -22 -15 -39 8 -10 13 -14 14 -14 5 0 -8 -11 1 -25 20 -14
19 -25 28 -25 21 0 -7 -5 -9 -12 -4 -20 12 -38 12 -38 1 0 -7 -4 -7 -13 0 -8
7 -18 7 -27 2 -8 -5 -18 -6 -24 -3 -5 3 -6 1 -3 -4 10 -15 -18 -24 -32 -10 -7
7 -11 7 -11 1 0 -6 -6 -11 -12 -11 -7 0 -51 -17 -98 -37 -47 -21 -89 -39 -95
-40 -5 -1 -20 -7 -31 -14 -18 -9 -24 -9 -34 2 -6 9 -22 13 -37 10 -19 -4 -24
-1 -20 9 3 7 -1 14 -8 14 -8 0 -11 -7 -7 -16 4 -13 2 -13 -15 2 -19 17 -33 14
-33 -7 0 -6 4 -5 9 3 5 8 11 9 15 3 13 -21 -24 -20 -40 1 l-16 22 6 -22 c4
-12 2 -24 -5 -29 -8 -4 -9 -3 -5 5 4 6 -2 22 -12 36 -16 20 -21 22 -26 10 -3
-8 -10 -15 -17 -15 -6 0 -8 7 -5 17 4 10 4 14 0 10 -4 -4 -14 -1 -23 5 -13 10
-14 10 -3 -2 19 -22 14 -30 -17 -30 -33 0 -51 18 -31 30 9 5 9 9 1 14 -6 4
-11 2 -11 -4 0 -6 -5 -8 -12 -3 -22 13 -37 12 -31 -4 4 -11 8 -12 13 -2 6 8
11 6 19 -9 10 -19 8 -20 -19 -18 -16 1 -32 5 -36 9 -4 4 -13 -1 -21 -11 -12
-15 -13 -15 -7 0 4 12 0 17 -13 17 -247 8 -245 8 -236 -16 4 -11 2 -14 -5 -9
-17 10 -15 0 5 -32 15 -23 15 -25 1 -14 -13 10 -17 10 -22 -4 -6 -15 -8 -15
-28 2 -19 17 -21 17 -15 2 10 -28 1 -21 -22 16 -27 43 -27 60 0 21 19 -28 20
-28 14 -5 -7 24 -7 24 9 5 20 -25 21 -7 1 19 -8 11 -15 14 -15 7 0 -7 -5 -9
-12 -4 -19 11 -38 12 -38 2 0 -6 -6 -7 -12 -2 -20 12 -39 12 -32 1 4 -6 9 -30
11 -54 3 -37 0 -44 -15 -44 -10 0 -21 -2 -24 -5 -3 -3 -49 -7 -104 -10 -133
-6 -233 -13 -324 -21 -87 -9 -228 -7 -387 4 -92 6 -114 5 -118 -6 -4 -12 -8
-12 -21 -1 -9 7 -22 14 -30 15 -16 3 -19 -12 -4 -21 6 -3 10 -1 10 6 0 7 3 10
6 6 3 -3 3 -11 -1 -17 -5 -8 -13 -6 -27 7 -26 24 -115 34 -128 14 -3 -5 -13
-4 -22 3 -15 11 -11 15 30 30 26 9 63 30 82 47 l35 30 -46 -6 c-32 -4 -49 -2
-57 8 -6 7 -27 19 -47 27 -19 7 -35 17 -35 22 0 17 -38 7 -54 -14 l-17 -23 13
25 c6 14 13 36 14 49 2 18 -1 22 -17 18 -10 -3 -19 -1 -19 4 0 5 -7 9 -15 9
-8 0 -18 8 -23 18 -8 15 -24 80 -26 106 -1 5 -7 11 -13 14 -9 2 -13 -8 -13
-32 0 -23 -7 -43 -20 -56 -23 -23 -26 -50 -8 -68 9 -9 9 -12 0 -12 -7 0 -12 5
-12 10 0 6 -8 10 -18 10 -19 0 -46 -36 -33 -45 5 -3 7 -14 4 -25 -3 -11 0 -20
6 -20 7 0 9 -9 5 -24 -4 -17 3 -37 22 -65 20 -31 24 -45 16 -53 -9 -9 -18 -5
-36 15 -14 15 -28 27 -31 27 -12 0 -22 -45 -13 -57 17 -22 -7 -15 -27 7 -17
19 -19 19 -37 3 -11 -10 -34 -17 -53 -16 -47 1 -53 -13 -14 -35 18 -9 42 -26
53 -37 12 -11 24 -21 29 -21 4 -1 12 -2 17 -3 6 0 10 -6 10 -12 0 -6 -5 -7
-12 -2 -19 11 -50 4 -66 -15 -7 -10 -11 -11 -7 -4 4 7 0 12 -9 12 -8 0 -16 -5
-18 -11 -3 -8 -10 -6 -20 5 -16 15 -18 15 -28 -5 -7 -13 -17 -18 -27 -15 -11
5 -14 2 -9 -11 5 -15 4 -15 -9 1 -11 15 -18 17 -26 9 -6 -6 -18 -9 -25 -6 -8
3 -17 -2 -20 -11 -5 -13 -9 -14 -20 -5 -12 10 -13 8 -7 -7 6 -16 4 -17 -8 -7
-9 7 -20 8 -29 3 -8 -5 -18 -6 -22 -4 -4 3 -5 -3 -1 -13 5 -14 3 -16 -7 -6 -9
8 -19 9 -36 1 -13 -6 -21 -14 -19 -18 2 -4 -2 -7 -10 -7 -8 0 -12 4 -9 8 3 5
-2 22 -11 39 -9 17 -13 35 -10 40 3 4 -8 15 -25 23 -24 12 -30 13 -30 2 0 -7
-7 -18 -15 -25 -9 -7 -13 -15 -11 -17 3 -3 -6 -15 -20 -28 -14 -13 -27 -33
-29 -45 -9 -45 -54 -70 -76 -43 -10 12 -10 17 2 25 11 8 11 9 -3 5 -9 -3 -19
-3 -22 1 -14 13 -35 10 -29 -5 4 -11 8 -12 13 -2 6 8 11 5 20 -11 15 -27 0
-46 -42 -54 -15 -2 -32 -7 -37 -10 -5 -4 -13 -1 -17 5 -4 8 -3 9 4 5 7 -4 12
-2 12 4 0 6 4 8 10 5 6 -3 7 1 4 9 -3 9 -1 16 5 16 8 0 8 5 -1 19 -10 16 -13
17 -26 5 -7 -8 -18 -12 -23 -9 -5 4 -6 -1 -2 -10 4 -12 8 -13 13 -5 6 9 9 9
15 0 8 -13 -14 -32 -27 -24 -4 3 -5 -3 -1 -13 5 -15 4 -16 -8 -7 -8 6 -24 10
-36 8 -13 -2 -23 1 -23 7 0 5 5 7 10 4 6 -3 10 -1 10 5 0 6 4 8 10 5 6 -3 7 1
4 9 -5 14 -8 14 -21 1 -18 -19 -27 -19 -20 -2 3 8 -1 14 -8 14 -10 0 -11 -5
-4 -18 14 -27 11 -33 -8 -18 -11 10 -14 10 -9 2 4 -8 2 -13 -6 -14 -7 -1 -20
-2 -28 -3 -8 0 -23 8 -33 19 -10 11 -16 15 -13 9 3 -7 -1 -15 -10 -18 -10 -4
-13 -2 -7 7 4 6 -6 4 -21 -7 -16 -10 -25 -12 -21 -5 6 9 -2 11 -39 6 -36 -5
-47 -4 -43 6 6 17 -16 57 -50 90 -24 23 -32 25 -46 15 -9 -7 -18 -24 -20 -38
-7 -46 -25 -77 -48 -83 -18 -5 -20 -9 -10 -21 10 -12 9 -15 -6 -14 -23 0 -57
-8 -80 -20 -10 -5 -26 -8 -35 -7 -10 2 -18 -1 -18 -6 0 -6 -5 -7 -11 -3 -7 4
-20 -4 -31 -17 l-19 -24 11 24 c11 22 11 24 -11 18 -13 -4 -37 -7 -52 -7 -20
0 -26 -4 -21 -12 5 -9 2 -9 -9 1 -11 8 -17 9 -17 3 0 -6 -6 -9 -14 -6 -8 3
-17 0 -21 -6 -5 -8 -11 -8 -21 1 -11 9 -14 8 -14 -2 0 -11 -2 -11 -10 1 -5 8
-10 10 -10 4 0 -21 -32 -10 -60 22 -31 35 -45 31 -52 -15 -1 -14 -9 -27 -17
-29 -10 -3 -12 1 -9 15 4 13 -6 33 -28 59 -18 21 -33 33 -34 27 0 -7 -7 -13
-15 -13 -14 0 -20 -17 -16 -47 1 -7 -2 -13 -7 -13 -10 0 -32 44 -32 65 0 8 -8
20 -18 27 -11 8 -21 31 -25 58 -7 52 -49 144 -82 180 -13 14 -26 40 -30 59
-10 47 -34 101 -44 101 -5 0 -12 -22 -16 -48 -9 -68 -18 -79 -38 -48 -10 14
-17 32 -17 39 0 8 -6 20 -14 27 -12 9 -19 4 -40 -29 -16 -24 -26 -55 -26 -76
0 -32 -3 -36 -20 -30 -11 4 -20 2 -20 -4 0 -6 -5 -11 -11 -11 -6 0 -9 7 -6 14
7 18 -18 72 -37 79 -8 3 -17 24 -21 46 -5 33 -11 41 -28 41 -11 0 -18 -3 -14
-6 3 -3 -5 -18 -19 -33 -31 -33 -45 -84 -38 -133 6 -34 4 -38 -16 -38 -20 0
-22 -4 -16 -32 16 -93 15 -106 -15 -117 -22 -8 -27 -14 -23 -33 l6 -23 -21 24
c-12 13 -21 29 -21 37 0 29 -28 13 -33 -18 -9 -57 -24 -98 -37 -98 -4 0 -17
23 -29 50 -12 28 -27 50 -35 50 -7 0 -21 -19 -32 -42 -17 -38 -23 -43 -52 -44
-23 -1 -36 5 -44 19 -8 16 -12 17 -19 6 -8 -12 -11 -12 -19 1 -5 8 -10 22 -10
31 0 9 -3 19 -7 23 -5 4 -8 13 -8 19 0 20 -43 20 -49 0 -8 -24 -66 -88 -66
-73 0 7 -6 10 -14 7 -24 -9 -41 25 -40 84 0 31 4 60 7 66 4 6 -7 25 -23 43
-17 18 -33 44 -36 59 -3 14 -9 33 -15 41 -5 8 -13 25 -19 38 -5 12 -17 22 -26
22 -20 0 -43 -28 -44 -52 0 -25 -20 -23 -20 2 0 23 -38 100 -50 100 -4 0 -10
-19 -14 -42 -4 -23 -11 -47 -15 -53 -5 -5 -11 -21 -13 -35 -2 -20 -8 -13 -27
38 -13 34 -30 62 -37 62 -19 0 -44 -53 -44 -93 0 -34 -20 -64 -33 -50 -4 3 -7
16 -7 28 0 12 -13 34 -30 48 -16 15 -30 33 -31 40 -2 43 -28 117 -40 117 -27
0 -59 -34 -59 -62 0 -19 -4 -27 -12 -22 -6 4 -17 -1 -24 -11 -11 -15 -13 -13
-19 18 -4 19 -4 44 0 56 9 29 -12 66 -30 51 -11 -9 -12 -7 -8 9 5 19 1 21 -38
22 -24 1 -52 1 -61 0 -22 -3 -18 19 10 47 12 12 22 26 22 31 0 5 10 11 23 13
20 3 22 9 24 61 1 38 -3 57 -10 56 -24 -1 -72 -36 -75 -55 -6 -32 -19 -38 -46
-20 -15 9 -26 20 -26 24 0 4 18 15 41 24 33 14 40 21 37 40 -2 17 -8 22 -25
20 -27 -4 -32 22 -7 32 10 4 14 15 12 33 -4 35 -26 41 -34 9 -10 -41 -29 -51
-53 -27 -27 27 -27 28 7 36 21 4 32 15 41 41 14 40 10 52 -9 29 -7 -8 -19 -15
-26 -15 -8 0 -14 -4 -14 -9 0 -5 -15 -20 -32 -33 l-33 -23 22 28 c20 25 21 41
7 87 -3 9 -12 0 -23 -26 -20 -44 -71 -87 -71 -59 0 8 9 23 20 32 11 10 20 25
20 35 0 9 7 24 16 32 14 14 14 19 -1 50 -13 27 -14 39 -5 56 9 16 8 25 -2 37
-10 13 -10 17 0 20 6 3 12 14 12 25 0 14 -5 18 -15 14 -10 -4 -15 1 -15 14 0
29 -19 24 -31 -7 -22 -55 -33 -73 -42 -73 -5 0 -7 7 -3 15 3 9 0 15 -8 15 -11
0 -12 8 -6 35 4 20 4 38 -1 41 -5 3 -9 14 -9 25 0 25 -20 25 -27 -1z"/>
</g>
</svg>
