<?xml version="1.0" standalone="no"?>
<!DOCTYPE svg PUBLIC "-//W3C//DTD SVG 20010904//EN"
 "http://www.w3.org/TR/2001/REC-SVG-20010904/DTD/svg10.dtd">
<svg version="1.0" xmlns="http://www.w3.org/2000/svg"
 width="205.000000pt" height="210.000000pt" viewBox="0 0 205.000000 210.000000"
 preserveAspectRatio="xMidYMid meet">
<metadata>
Created by potrace 1.15, written by Peter Selinger 2001-2017
</metadata>
<g transform="translate(0.000000,210.000000) scale(0.100000,-0.100000)"
fill="#000000" stroke="none">
<path d="M0 1996 c0 -99 1 -104 20 -99 10 3 25 11 31 19 15 18 29 18 29 -1 0
-9 9 -15 25 -15 14 0 25 5 25 11 0 7 11 9 30 6 16 -4 32 -2 35 3 11 18 64 11
82 -10 23 -27 32 -25 44 9 6 16 16 28 22 27 39 -8 75 -21 93 -32 16 -11 27
-11 52 -2 27 10 34 9 52 -7 16 -14 23 -16 32 -7 17 17 25 15 32 -10 l6 -23 20
24 c18 21 26 23 65 18 38 -6 47 -4 57 13 15 23 36 25 63 6 11 -7 35 -13 54
-14 18 0 41 -8 52 -18 12 -11 24 -14 36 -9 24 11 56 6 68 -9 11 -14 11 -14 42
-22 12 -3 24 -12 27 -19 3 -9 0 -12 -10 -8 -7 3 -14 1 -14 -3 0 -12 -811 -11
-830 0 -13 9 -13 8 -1 -7 11 -15 11 -17 -2 -17 -8 0 -20 -7 -27 -15 -7 -8 -18
-15 -24 -15 -6 0 -5 4 3 9 20 13 -10 24 -119 44 -50 10 -55 12 -62 32 -3 11
-6 -27 -5 -85 l1 -105 5 79 c5 70 7 76 18 55 19 -39 22 -69 12 -97 -6 -14 -11
-62 -11 -105 -1 -56 -5 -80 -15 -84 -17 -7 -17 -23 1 -23 8 0 16 -14 20 -33 5
-28 16 -38 71 -68 l65 -34 1 -50 c2 -100 -15 -186 -39 -191 -7 -1 -8 0 -2 3
16 8 12 24 -6 21 -11 -2 -21 9 -30 32 -7 19 -13 29 -13 23 -1 -8 -16 -13 -41
-13 l-40 0 0 -590 0 -590 1025 0 1025 0 -2 888 c-1 488 -5 826 -8 752 -7 -175
-25 -157 -26 26 -1 101 2 135 14 150 14 18 14 18 9 -3 -3 -13 -1 -26 4 -29 5
-3 9 16 8 43 0 26 -3 43 -5 36 -4 -9 -13 -9 -32 -2 -15 6 -28 10 -29 10 -16
-5 -23 6 -32 42 -10 42 -10 42 -5 -13 4 -38 12 -63 28 -80 19 -21 21 -31 15
-70 -4 -25 -5 -53 -3 -62 4 -12 0 -15 -16 -11 -11 3 -20 9 -20 14 0 5 -7 9
-15 9 -11 0 -15 -13 -15 -53 0 -60 6 -72 27 -55 11 9 17 9 24 -3 7 -11 9 -9 9
8 0 12 3 24 8 26 4 3 6 -18 4 -47 -3 -45 -8 -54 -36 -74 -18 -12 -40 -22 -49
-22 -9 0 -17 -5 -17 -11 0 -5 -5 -7 -11 -3 -6 3 -15 0 -20 -7 -7 -9 -8 -5 -3
13 4 21 1 27 -16 33 -12 4 -27 1 -35 -5 -19 -15 -46 -5 -39 14 3 8 1 17 -4 20
-6 3 -13 -2 -17 -11 -3 -10 -1 -19 4 -21 6 -2 11 -10 11 -18 0 -9 -5 -12 -10
-9 -5 3 -10 -1 -10 -9 0 -9 -12 -16 -32 -18 -31 -4 -31 -4 -8 -10 14 -4 50
-11 81 -18 69 -13 70 -17 62 -175 -5 -104 -4 -112 21 -157 l25 -48 -20 -47
c-11 -27 -28 -63 -36 -81 -13 -27 -15 -54 -10 -140 4 -59 11 -130 16 -159 6
-28 10 -135 11 -238 0 -102 3 -197 6 -212 l7 -25 15 33 c8 19 16 28 19 21 3
-6 9 -9 15 -6 6 4 8 -2 3 -16 -7 -21 -7 -22 12 -3 11 10 16 20 12 23 -5 3 -4
12 1 20 9 13 10 13 10 0 0 -13 1 -13 10 0 21 32 9 -5 -17 -52 -28 -51 -67 -78
-86 -59 -12 12 -25 151 -28 290 -1 87 -5 108 -20 125 -21 22 -26 67 -6 64 9
-2 11 25 9 117 -4 145 -14 188 -51 221 -18 15 -39 54 -56 100 -15 41 -30 74
-34 74 -3 0 -21 -9 -39 -20 -41 -25 -52 -25 -100 0 -44 23 -83 28 -125 17 -21
-6 -27 -5 -21 4 4 7 0 17 -10 24 -15 11 -15 13 -1 19 9 3 13 2 10 -4 -3 -6 -2
-10 4 -10 5 0 17 -3 27 -7 13 -5 15 -3 9 7 -4 7 -8 22 -9 34 -1 11 -6 21 -12
21 -6 0 -18 8 -28 18 -17 16 -17 17 0 17 17 0 17 1 0 13 -16 12 -15 15 12 50
16 20 44 50 61 66 17 16 31 33 31 38 0 4 15 18 33 31 26 17 47 22 97 22 85 0
73 8 -17 11 -39 2 -69 7 -67 11 3 4 0 8 -7 8 -10 0 -10 3 -1 12 7 7 12 20 12
30 0 10 5 18 10 18 6 0 10 9 10 20 0 20 14 27 24 11 3 -5 -1 -14 -9 -21 -8 -7
-15 -20 -15 -29 0 -9 -5 -22 -12 -29 -7 -7 -8 -12 -2 -12 6 0 17 12 24 26 11
19 19 24 36 20 13 -4 29 0 38 9 13 13 15 13 19 -3 3 -9 5 -4 6 13 2 62 -7 74
-57 77 -41 3 -46 6 -54 33 -4 17 -8 44 -9 60 0 17 -8 58 -16 93 -14 54 -14 64
-2 80 8 9 23 35 32 57 14 32 14 36 2 20 -37 -48 -45 -54 -61 -48 -14 5 -16 3
-10 -13 7 -17 5 -17 -16 2 -28 26 -68 47 -75 41 -2 -3 8 -11 23 -19 41 -19 94
-93 94 -130 0 -32 -38 -118 -52 -118 -4 0 -10 11 -14 24 -4 16 -11 23 -20 19
-13 -5 -12 -8 2 -24 16 -18 16 -20 0 -38 -15 -16 -15 -19 -2 -24 10 -4 17 2
22 16 7 21 7 21 16 -3 14 -39 7 -231 -9 -237 -7 -3 -10 -9 -7 -14 3 -5 0 -9
-5 -9 -15 0 -14 27 2 33 9 4 8 8 -3 17 -11 9 -12 13 -2 17 6 2 11 14 11 26 -1
17 -2 18 -6 5 -4 -17 -19 -23 -55 -20 -11 1 -15 -3 -12 -13 4 -8 2 -15 -4 -15
-5 0 -13 8 -16 17 -6 15 -8 15 -16 3 -7 -11 -10 -12 -10 -2 0 7 -5 10 -10 7
-5 -3 -10 -30 -10 -60 0 -43 -3 -54 -17 -57 -13 -2 -25 10 -42 41 -26 50 -24
48 -100 125 -29 31 -57 54 -61 51 -4 -2 -13 -25 -20 -50 -22 -77 -22 -42 -1
41 11 44 23 118 25 165 6 96 12 117 41 142 20 17 19 17 -10 6 -25 -8 -28 -8
-17 3 8 8 37 13 73 13 54 0 62 3 90 33 19 20 37 31 46 28 27 -11 61 4 56 24
-4 15 4 19 64 23 102 9 123 5 154 -26 23 -22 34 -26 56 -21 15 4 35 12 43 19
8 7 49 15 91 18 42 3 86 10 96 16 11 6 23 8 25 5 3 -2 18 -6 34 -8 37 -5 64
-16 64 -26 0 -4 11 -10 25 -12 l25 -5 0 84 0 84 -50 -4 c-27 -3 -56 -10 -64
-16 -9 -7 -17 -8 -20 -2 -3 5 0 11 6 14 7 2 -36 4 -97 3 -98 -1 -110 -3 -109
-18 1 -10 -2 -18 -7 -18 -5 0 -9 4 -9 9 0 10 -32 23 -62 26 -10 1 -14 -3 -11
-9 5 -8 2 -7 -8 0 -14 12 -69 11 -88 -1 -6 -3 -11 -1 -11 4 0 14 -53 10 -62
-4 -5 -6 -8 -6 -8 2 0 10 -160 13 -725 13 l-725 0 0 -104z m890 -220 c0 -3
-27 -21 -59 -41 -70 -42 -111 -87 -111 -121 0 -33 37 -33 50 1 12 31 23 33 16
3 -4 -17 -2 -16 6 4 9 22 19 27 55 30 42 3 44 2 40 -19 -2 -13 0 -23 4 -23 5
0 9 -8 10 -17 1 -12 4 -10 9 7 8 24 8 24 9 3 2 -40 19 -25 27 24 8 39 9 27 10
-68 0 -63 -1 -106 -4 -95 -4 17 -5 16 -16 -5 -6 -13 -17 -25 -24 -25 -25 -3
-27 -4 -14 -12 8 -5 -6 -9 -35 -9 -26 0 -51 5 -55 11 -8 11 -12 -19 -10 -64 1
-19 -3 -15 -16 17 -21 52 -30 61 -28 30 0 -14 4 -23 9 -20 4 2 7 -1 7 -6 0
-15 -15 -14 -29 3 -8 10 -8 21 -1 40 6 18 6 25 0 21 -6 -3 -10 -14 -10 -23 -1
-16 -1 -16 -10 0 -10 16 -23 129 -23 195 0 18 -4 30 -8 27 -5 -3 -9 -12 -9
-20 0 -23 -54 -14 -56 9 -1 12 -1 13 3 2 11 -35 22 -11 20 40 -2 30 0 61 5 67
5 9 8 8 8 -4 0 -10 4 -18 10 -18 6 0 6 9 0 24 -6 17 -5 26 3 30 15 6 217 8
217 2z m-445 -46 c-33 -4 -56 -7 -51 -8 5 -1 3 -9 -4 -17 -11 -13 -10 -14 4
-9 19 7 21 -7 4 -24 -15 -15 -3 -16 23 -2 23 13 25 30 4 30 -8 0 -15 5 -15 10
0 15 19 12 36 -5 9 -8 13 -23 9 -34 -3 -12 0 -21 10 -25 8 -3 15 -15 15 -26 0
-11 4 -20 9 -20 5 0 12 -8 14 -17 3 -10 4 -2 3 17 -2 19 0 46 4 60 4 18 8 5
13 -44 4 -39 5 -72 3 -74 -3 -2 -35 -8 -73 -12 -47 -6 -72 -5 -83 3 -12 9 -13
9 -3 -2 9 -11 7 -20 -10 -45 -12 -17 -23 -33 -24 -35 -1 -2 -10 2 -20 10 -14
12 -16 12 -8 0 6 -11 4 -13 -8 -8 -9 3 -19 1 -23 -5 -4 -7 -3 -8 4 -4 7 4 12
2 12 -5 0 -8 5 -7 17 2 14 12 14 10 -1 -13 -21 -32 -28 -36 -19 -10 6 14 4 15
-9 4 -13 -11 -17 -9 -21 10 -9 35 -93 125 -106 113 -6 -6 -17 -35 -25 -65 -14
-53 -15 -53 -15 -18 -1 21 8 61 19 90 25 65 26 86 1 35 -9 -20 -21 -34 -26
-30 -4 5 -5 0 -2 -10 4 -11 3 -16 -3 -12 -6 3 -10 13 -10 21 0 20 -19 18 -27
-3 -5 -14 -9 -9 -14 17 -9 44 0 131 15 135 6 2 25 6 41 10 l30 6 -29 -26 -29
-25 26 0 c20 0 27 -5 27 -20 0 -11 7 -20 15 -20 8 0 15 9 15 20 0 11 4 20 10
20 6 0 7 -18 4 -43 -5 -35 -3 -45 10 -50 15 -6 17 0 15 43 -3 68 8 74 17 9 6
-48 8 -51 17 -28 l10 24 4 -22 c3 -13 8 -23 13 -23 14 0 20 44 7 52 -8 5 -7 8
5 8 9 0 23 3 32 6 11 4 19 -2 26 -17 7 -18 8 -14 3 20 -4 32 -3 42 6 37 7 -5
13 3 17 23 l7 31 71 -2 71 -1 -60 -7z m195 -232 c34 -18 47 -32 60 -68 l18
-45 -31 -45 c-17 -25 -35 -48 -41 -52 -22 -15 -65 -8 -76 12 -6 10 -16 17 -24
14 -7 -3 -16 2 -19 10 -5 13 -12 13 -39 4 -18 -6 -42 -19 -53 -29 -11 -10 -29
-16 -40 -14 -78 16 -79 16 -64 26 10 8 11 12 2 16 -7 2 -22 12 -34 21 l-20 17
21 28 c12 15 26 24 32 21 7 -5 8 -2 3 5 -9 16 55 78 87 86 24 5 80 11 138 13
20 1 55 -8 80 -20z m1381 2 c18 -10 19 -23 19 -174 l0 -163 -70 -5 c-38 -3
-76 -11 -84 -17 -24 -20 -42 57 -29 121 5 28 7 66 3 84 -11 50 15 93 80 132
62 37 56 35 81 22z m-1791 -156 c24 -5 36 -15 46 -39 34 -81 95 -120 213 -135
35 -5 67 -13 70 -19 4 -6 19 -12 33 -13 15 -1 24 -7 21 -12 -4 -5 1 -7 10 -3
17 6 31 -17 21 -36 -3 -7 2 -3 11 8 16 20 16 20 21 0 3 -11 4 -24 4 -29 -1 -5
4 -12 11 -17 10 -6 10 -11 0 -23 -7 -9 -18 -13 -24 -9 -5 3 -8 2 -5 -3 3 -5
-1 -36 -8 -69 -13 -57 -14 -58 -10 -14 2 26 -1 53 -5 62 -12 21 -139 109 -132
91 3 -8 1 -14 -5 -14 -8 0 -22 -43 -27 -85 -1 -5 -7 -28 -14 -50 -27 -91 -42
-211 -49 -400 -4 -141 -8 -185 -13 -150 -12 83 -10 186 6 332 9 76 16 163 15
193 0 30 3 84 6 120 3 36 2 62 -2 57 -4 -4 -7 -29 -5 -56 1 -27 -2 -52 -8 -55
-7 -5 -9 4 -4 26 l6 33 -21 -19 c-12 -11 -22 -14 -22 -9 0 6 7 16 15 23 16 14
21 35 5 25 -12 -8 -93 29 -84 38 4 4 -5 7 -19 7 -33 0 -36 17 -4 23 12 2 2 5
-23 6 -40 1 -48 -3 -84 -41 -22 -24 -36 -34 -31 -23 31 77 37 110 39 192 0 51
4 93 7 93 4 0 21 -3 39 -6z m968 -78 c21 -14 49 -26 63 -26 38 -1 70 -22 59
-40 -5 -8 -10 -27 -10 -41 0 -18 -6 -28 -20 -32 -29 -7 -40 -47 -40 -140 0
-51 -4 -77 -9 -68 -5 8 -7 57 -4 111 l6 96 -39 62 c-22 34 -44 60 -50 58 -6
-2 -17 0 -24 4 -11 7 -11 11 0 24 11 14 10 16 -4 10 -9 -3 -16 -2 -16 4 0 18
48 6 88 -22z m-70 -737 c31 -9 52 -9 84 -1 78 20 98 22 98 13 0 -5 -7 -14 -15
-21 -13 -11 -14 -15 -1 -29 8 -9 16 -25 19 -36 3 -13 5 -8 7 15 1 19 2 38 1
43 0 4 3 7 8 7 5 0 7 -19 4 -42 -5 -32 -3 -39 7 -33 10 6 12 3 8 -13 -4 -12
-3 -22 2 -22 10 0 21 -27 25 -58 3 -20 0 -23 -18 -18 -61 17 -77 15 -186 -23
-63 -22 -118 -46 -123 -53 -6 -11 -8 -11 -8 0 0 15 -79 11 -140 -8 -37 -11
-173 -14 -183 -4 -10 10 26 41 58 49 17 4 24 10 18 12 -20 7 -15 23 7 23 14 0
18 5 13 18 -6 15 -5 15 11 3 15 -13 19 -13 28 0 7 11 11 11 15 2 7 -19 20 -16
26 7 3 14 14 20 31 20 15 0 25 5 24 13 -2 6 5 11 15 9 9 -2 17 2 17 8 0 6 6 8
13 4 9 -5 9 -4 0 6 -24 26 -110 28 -203 6 -24 -6 -24 -6 -2 3 29 14 28 19 -3
13 -14 -2 -25 0 -25 5 0 14 65 34 86 27 14 -4 15 -3 5 4 -13 10 31 23 124 37
22 3 51 13 65 20 14 8 30 13 36 10 7 -2 30 -9 52 -16z m189 -296 c-18 -41 -86
-147 -100 -154 -10 -6 -83 12 -91 23 -1 1 -14 19 -29 38 -14 19 -28 49 -32 65
l-6 30 29 -33 c18 -21 32 -29 36 -23 9 13 46 15 46 2 0 -5 -9 -7 -20 -4 -24 6
-37 -21 -20 -42 18 -22 27 -19 39 15 5 17 16 30 24 30 8 0 18 7 21 16 6 15 8
15 26 -1 11 -10 21 -16 23 -14 24 35 59 79 62 79 3 0 -1 -12 -8 -27z"/>
<path d="M1774 1728 c-99 -69 -105 -77 -102 -125 1 -24 6 -43 10 -43 5 0 8 8
6 18 -2 12 3 16 20 15 14 -2 22 3 22 13 0 12 6 15 21 11 17 -5 18 -3 7 11 -11
14 -11 14 6 5 10 -6 28 -8 40 -6 17 4 18 3 6 -6 -13 -9 -11 -11 7 -11 12 0 25
-4 28 -10 3 -5 19 -10 35 -10 l29 0 -2 64 c-2 50 -7 70 -24 90 -13 14 -29 26
-36 26 -8 0 -40 -19 -73 -42z"/>
</g>
</svg>
