<svg width="750" height="460" xmlns="http://www.w3.org/2000/svg">
 <defs>
  <linearGradient y2="0" x2="0.5" y1="1" x1="0.5" id="SVGID_1_">
   <stop stop-color="#FEFEFE" offset="0"/>
   <stop stop-color="#FDF9AF" offset="0.6392"/>
   <stop stop-color="#DEE476" offset="0.8118"/>
   <stop stop-color="#6B752E" offset="1"/>
  </linearGradient>
 </defs>
 <g>
  <title>background</title>
  <rect fill="none" id="canvas_background" height="462" width="752" y="-1" x="-1"/>
 </g>
 <g>
  <title>Layer 1</title>
  <g id="Capa_x0020_3">
   <g id="_294156392">
    <rect id="svg_1" height="500" width="1000" fill="url(#SVGID_1_)"/>
    <polygon id="svg_2" points="0,28 335,56 0,56   " fill="#EBEC90"/>
    <polygon id="svg_3" points="0,98 277,137 0,137   " fill="#BCC264"/>
    <polygon id="svg_4" points="460,93 230,114 416,124 689,114   " stroke-width="0.9" stroke="#BCC264" fill="#BCC264"/>
    <polygon id="svg_5" points="1000,25 665,56 1000,56   " fill="#EBEC90"/>
    <polygon id="svg_6" points="1000,98 723,137 1000,137   " fill="#BCC264"/>
   </g>
  </g>
  <g id="Capa_x0020_4">
   <path id="svg_7" d="m779,215c0,0 -28,12 -38,38s-29,9 -48,17c-19,9 -13,-5 -33,23s-42,45 -51,31c-10,-14 -43,-42 -62,-33c-18,9 -75,24 -72,26s-29,26 -43,23s-67,-19 -71,-20c-9,-2 -18,-3 -26,-5l1,-12l21,2l-18,-15c0,0 15,0 14,0c-2,0 -18,-10 -18,-10l5,0l-9,-16l-6,15l5,1l-14,7c0,0 11,2 9,2c-1,0 -5,2 -9,5l-4,-11l6,1l0,-15l-12,7l2,5l-11,-2l1,6l-10,-1l7,0l-14,-11l9,1l-14,-22l-11,21l7,3l-10,5l-10,-15l-12,15c0,0 11,0 9,1s-13,7 -13,7s13,0 10,1s-18,11 -18,11l1,1c-51,-2 -19,22 -96,42c-14,3 -46,-21 -43,-23s-55,-17 -73,-26s-53,19 -63,33s-11,-5 -31,-33c-2,-3 -4,-5 -6,-7l4,-5l15,9l-7,-19l8,4l-5,-10l6,2l2,-18l-15,6l3,7l-14,-3l6,8c0,0 -8,-2 -16,-3l-1,-3l6,2l2,-18l-15,6l3,7l-14,-3l6,8c0,0 -27,-6 -26,-5s22,15 22,15l-2,3c-5,0 -11,0 -17,-3c-4,-2 -8,-2 -11,-3l0,-2l18,2l-14,-14l9,0l-9,-8l6,-1l-6,-17l-11,12l6,5l-14,3l9,5c0,0 -27,6 -25,7s27,4 27,4l-1,4c-13,0 -24,4 -32,-15c-11,-26 -39,-38 -39,-38l0,244l500,0l6,0l494,0l0,-244l-2,-4zm-877,53c6,4 12,8 12,8l-4,6c-3,-3 -7,-5 -10,-6l-4,-11l5,3l1,0zm426,47c-12,-2 -23,-4 -33,-6l2,-6l0,0l14,5l-3,-5l10,0l1,0l0,0l10,0l-1,13l0,-1zm-21,-15l-1,-2l3,1l-2,1zm-18,8c-3,-1 -6,-1 -9,-2l0,-3l12,0l-3,5zm-33,-25l-2,1l13,3l-7,3l-9,-6l5,-1zm5,15l6,2l-2,5c-2,0 -4,-1 -6,-1l-4,-5l5,-1l1,0z" fill="#A2DAA9"/>
   <g id="_294160136">
    <g id="svg_8">
     <polygon id="svg_9" points="505,334 511,358 505,357 512,362 515,377 509,378 516,380 521,398 510,396 508,400 523,408 530,439 504,435 506,441 533,449 536,463 472,463 481,425 499,420 499,416 484,417 489,397 504,390 503,384 491,389 494,379 503,374 503,367 496,369 501,353 505,350 504,347 502,347 " fill="#001C1E"/>
     <path id="svg_10" d="m512,362l0,0l1,2l-9,7l0,-3l-7,2l1,-4l15,-4l-1,0zm-3,16l7,3l0,2l-13,7l-1,-5l-12,5l1,-3l10,-2l-9,0l1,-4l16,-3zm10,13l2,7l-11,-1l-2,3l2,1l-17,4l32,9l2,7l-16,1l19,8l2,7l-30,-4l5,3l1,5l14,4l14,8l1,6l-30,-3l16,7l-21,0l-25,-13l1,-5l26,0l-23,-13l2,-6l0,0l19,-1l-6,-4l4,-1l0,-4l-11,1l-3,-2l1,-4l25,3l-23,-9l2,-7l10,-2l-5,-1l9,-4l17,0l-3,0z" fill="#0B3029"/>
     <polygon id="svg_11" points="502,434 505,434 505,463 501,463 " fill="#280D12"/>
    </g>
    <g id="svg_12">
     <polygon id="svg_13" points="579,334 574,358 580,357 573,362 569,377 576,378 568,380 564,398 575,396 577,400 562,408 555,439 581,435 579,441 552,449 549,463 613,463 603,425 586,420 586,416 601,417 596,397 581,390 582,384 594,389 591,379 581,374 582,367 589,369 584,353 580,350 581,347 583,347 " fill="#001C1E"/>
     <path id="svg_14" d="m573,362l0,0l-1,2l9,7l0,-3l7,2l-1,-4l-15,-4l1,0zm3,16l-7,3l0,2l13,7l1,-5l12,5l-1,-3l-10,-2l9,0l-1,-4l-16,-3zm-10,13l-2,7l11,-1l2,3l-2,1l17,4l-32,9l-2,7l16,1l-19,8l-2,7l30,-4l-5,3l-1,5l-14,4l-14,8l-1,6l30,-3l-16,7l21,0l25,-13l-1,-5l-26,0l23,-13l-2,-6l0,0l-19,-1l6,-4l-4,-1l0,-4l11,1l3,-2l-1,-4l-25,3l23,-9l-2,-7l-10,-2l5,-1l-9,-4l-17,0l3,0z" fill="#0B3029"/>
     <polygon id="svg_15" points="583,434 579,434 579,463 584,463 " fill="#280D12"/>
    </g>
    <g id="svg_16">
     <polygon id="svg_17" points="665,334 670,358 664,357 671,362 675,377 668,378 675,380 680,398 669,396 667,400 682,408 689,439 663,435 665,441 692,449 695,463 631,463 640,425 658,420 658,416 643,417 648,397 663,390 662,384 650,389 653,379 662,374 662,367 655,369 660,353 664,350 663,347 661,347 " fill="#001C1E"/>
     <path id="svg_18" d="m671,362l0,0l1,2l-9,7l0,-3l-7,2l1,-4l15,-4l-1,0zm-3,16l7,3l0,2l-13,7l-1,-5l-12,5l1,-3l10,-2l-9,0l1,-4l16,-3zm10,13l2,7l-11,-1l-2,3l2,1l-17,4l32,9l2,7l-16,1l19,8l2,7l-30,-4l5,3l1,5l14,4l14,8l1,6l-30,-3l16,7l-21,0l-25,-13l1,-5l26,0l-23,-13l2,-6l0,0l19,-1l-6,-4l4,-1l0,-4l-11,1l-3,-2l1,-4l25,3l-23,-9l2,-7l10,-2l-5,-1l9,-4l17,0l-3,0z" fill="#0B3029"/>
     <polygon id="svg_19" points="661,434 664,434 664,463 660,463 " fill="#280D12"/>
    </g>
    <g id="svg_20">
     <polygon id="svg_21" points="738,334 733,358 739,357 732,362 728,377 735,378 727,380 723,398 734,396 736,400 721,408 714,439 740,435 738,441 711,449 708,463 772,463 762,425 745,420 745,416 760,417 755,397 740,390 741,384 753,389 750,379 741,374 741,367 748,369 743,353 739,350 740,347 742,347 " fill="#001C1E"/>
     <path id="svg_22" d="m732,362l0,0l-1,2l9,7l0,-3l7,2l-1,-4l-15,-4l1,0zm3,16l-7,3l0,2l13,7l1,-5l12,5l-1,-3l-10,-2l9,0l-1,-4l-16,-3zm-10,13l-2,7l11,-1l2,3l-2,1l17,4l-32,9l-2,7l16,1l-19,8l-2,7l30,-4l-5,3l-1,5l-14,4l-14,8l-1,6l30,-3l-16,7l21,0l25,-13l-1,-5l-26,0l23,-13l-2,-6l0,0l-19,-1l6,-4l-4,-1l0,-4l11,1l3,-2l-1,-4l-25,3l23,-9l-2,-7l-10,-2l5,-1l-9,-4l-17,0l3,0z" fill="#0B3029"/>
     <polygon id="svg_23" points="742,434 739,434 739,463 743,463 " fill="#280D12"/>
    </g>
    <g id="svg_24">
     <polygon id="svg_25" points="420,334 415,358 421,357 414,362 410,377 417,378 409,380 405,398 416,396 418,400 403,408 395,439 422,435 420,441 393,449 390,463 454,463 444,425 427,420 427,416 442,417 437,397 422,390 423,384 435,389 432,379 422,374 423,367 430,369 425,353 421,350 422,347 424,347 " fill="#001C1E"/>
     <path id="svg_26" d="m414,362l0,0l-1,2l9,7l0,-3l7,2l-1,-4l-15,-4l1,0zm3,16l-7,3l0,2l13,7l1,-5l12,5l-1,-3l-10,-2l9,0l-1,-4l-16,-3zm-10,13l-2,7l11,-1l2,3l-2,1l17,4l-32,9l-2,7l16,1l-19,8l-2,7l30,-4l-5,3l-1,5l-14,4l-14,8l-1,6l30,-3l-16,7l21,0l25,-13l-1,-5l-26,0l23,-13l-2,-6l0,0l-19,-1l6,-4l-4,-1l0,-4l11,1l3,-2l-1,-4l-25,3l23,-9l-2,-7l-10,-2l5,-1l-9,-4l-17,0l3,0z" fill="#0B3029"/>
     <polygon id="svg_27" points="424,434 420,434 420,463 425,463 " fill="#280D12"/>
    </g>
    <g id="svg_28">
     <polygon id="svg_29" points="346,334 352,358 346,357 353,362 356,377 350,378 357,380 361,398 351,396 349,400 364,408 371,439 345,435 347,441 374,449 377,463 312,463 322,425 340,420 340,416 325,417 330,397 345,390 344,384 332,389 335,379 344,374 344,367 337,369 342,353 346,350 345,347 343,347 " fill="#001C1E"/>
     <path id="svg_30" d="m353,362l0,0l1,2l-9,7l0,-3l-7,2l1,-4l15,-4l-1,0zm-3,16l7,3l0,2l-13,7l-1,-5l-12,5l1,-3l10,-2l-9,0l1,-4l16,-3zm10,13l2,7l-11,-1l-2,3l2,1l-17,4l32,9l2,7l-16,1l19,8l2,7l-30,-4l5,3l1,5l14,4l14,8l1,6l-30,-3l16,7l-21,0l-25,-13l1,-5l26,0l-23,-13l2,-6l0,0l19,-1l-6,-4l4,-1l0,-4l-11,1l-3,-2l1,-4l25,3l-23,-9l2,-7l10,-2l-5,-1l9,-4l17,0l-3,0z" fill="#0B3029"/>
     <polygon id="svg_31" points="343,434 346,434 346,463 342,463 " fill="#280D12"/>
    </g>
    <g id="svg_32">
     <polygon id="svg_33" points="261,334 256,358 262,357 255,362 251,377 258,378 250,380 246,398 257,396 259,400 244,408 236,439 263,435 261,441 234,449 231,463 295,463 285,425 268,420 268,416 283,417 278,397 263,390 264,384 276,389 273,379 263,374 264,367 270,369 266,353 262,350 263,347 265,347 " fill="#001C1E"/>
     <path id="svg_34" d="m255,362l0,0l-1,2l9,7l0,-3l7,2l-1,-4l-15,-4l1,0zm3,16l-7,3l0,2l13,7l1,-5l12,5l-1,-3l-10,-2l9,0l-1,-4l-16,-3zm-10,13l-2,7l11,-1l2,3l-2,1l17,4l-32,9l-2,7l16,1l-19,8l-2,7l30,-4l-5,3l-1,5l-14,4l-14,8l-1,6l30,-3l-16,7l21,0l25,-13l-1,-5l-26,0l23,-13l-2,-6l0,0l-19,-1l6,-4l-4,-1l0,-4l11,1l3,-2l-1,-4l-25,3l23,-9l-2,-7l-10,-2l5,-1l-9,-4l-17,0l3,0z" fill="#0B3029"/>
     <polygon id="svg_35" points="264,434 261,434 261,463 266,463 " fill="#280D12"/>
    </g>
    <g id="svg_36">
     <polygon id="svg_37" points="187,334 193,358 187,357 194,362 197,377 191,378 198,380 202,398 192,396 190,400 205,408 212,439 186,435 188,441 215,449 218,463 153,463 163,425 181,420 181,416 166,417 171,397 185,390 185,384 173,389 176,379 185,374 185,367 178,369 182,353 187,350 186,347 184,347 " fill="#001C1E"/>
     <path id="svg_38" d="m194,362l0,0l1,2l-9,7l0,-3l-7,2l1,-4l15,-4l-1,0zm-3,16l7,3l0,2l-13,7l-1,-5l-12,5l1,-3l10,-2l-9,0l1,-4l16,-3zm10,13l2,7l-11,-1l-2,3l2,1l-17,4l32,9l2,7l-16,1l19,8l2,7l-30,-4l5,3l1,5l14,4l14,8l1,6l-30,-3l16,7l-21,0l-25,-13l1,-5l26,0l-23,-13l2,-6l0,0l19,-1l-6,-4l4,-1l0,-4l-11,1l-3,-2l1,-4l25,3l-23,-9l2,-7l10,-2l-5,-1l9,-4l17,0l-3,0z" fill="#0B3029"/>
     <polygon id="svg_39" points="184,434 187,434 187,463 183,463 " fill="#280D12"/>
    </g>
    <g id="svg_40">
     <polygon id="svg_41" points="-171,334 -165,358 -171,357 -164,362 -161,377 -167,378 -160,380 -156,398 -167,396 -168,400 -153,408 -146,439 -172,435 -171,441 -143,449 -140,463 -205,463 -195,425 -177,420 -178,416 -192,417 -187,397 -173,390 -174,384 -185,389 -182,379 -173,374 -173,367 -180,369 -176,353 -171,350 -172,347 -174,347 " fill="#001C1E"/>
     <path id="svg_42" d="m-164,362l0,0l1,2l-9,7l0,-3l-7,2l1,-4l15,-4l-1,0zm-3,16l7,3l0,2l-13,7l-1,-5l-12,5l1,-3l10,-2l-9,0l1,-4l16,-3zm10,13l2,7l-11,-1l-2,3l2,1l-17,4l32,9l2,7l-16,1l19,8l2,7l-30,-4l5,3l1,5l14,4l14,8l1,6l-30,-3l16,7l-21,0l-25,-13l1,-5l26,0l-23,-13l2,-6l0,0l19,-1l-6,-4l4,-1l0,-4l-11,1l-3,-2l1,-4l25,3l-23,-9l2,-7l10,-2l-5,-1l9,-4l17,0l-3,0z" fill="#0B3029"/>
     <polygon id="svg_43" points="-174,434 -171,434 -171,463 -175,463 " fill="#280D12"/>
    </g>
    <g id="svg_44">
     <polygon id="svg_45" points="-87,334 -92,358 -86,357 -93,362 -97,377 -90,378 -98,380 -102,398 -91,396 -90,400 -104,408 -112,439 -86,435 -87,441 -114,449 -118,463 -53,463 -63,425 -80,420 -80,416 -65,417 -70,397 -85,390 -84,384 -73,389 -75,379 -85,374 -85,367 -78,369 -82,353 -86,350 -85,347 -83,347 " fill="#001C1E"/>
     <path id="svg_46" d="m-93,362l0,0l-1,2l9,7l0,-3l7,2l-1,-4l-15,-4l1,0zm3,16l-7,3l0,2l13,7l1,-5l12,5l-1,-3l-10,-2l9,0l-1,-4l-16,-3zm-10,13l-2,7l11,-1l2,3l-2,1l17,4l-32,9l-2,7l16,1l-19,8l-2,7l30,-4l-5,3l-1,5l-14,4l-14,8l-1,6l30,-3l-16,7l21,0l25,-13l-1,-5l-26,0l23,-13l-2,-6l0,0l-19,-1l6,-4l-4,-1l0,-4l11,1l3,-2l-1,-4l-25,3l23,-9l-2,-7l-10,-2l5,-1l-9,-4l-17,0l3,0z" fill="#0B3029"/>
     <polygon id="svg_47" points="-84,434 -87,434 -87,463 -82,463 " fill="#280D12"/>
    </g>
    <g id="svg_48">
     <polygon id="svg_49" points="18,334 24,358 18,357 25,362 28,377 22,378 29,380 33,398 22,396 21,400 36,408 43,439 17,435 18,441 46,449 49,463 -16,463 -6,425 12,420 11,416 -3,417 2,397 16,390 16,384 4,389 7,379 16,374 16,367 9,369 13,353 18,350 17,347 15,347 " fill="#001C1E"/>
     <path id="svg_50" d="m25,362l0,0l1,2l-9,7l0,-3l-7,2l1,-4l15,-4l-1,0zm-3,16l7,3l0,2l-13,7l-1,-5l-12,5l1,-3l10,-2l-9,0l1,-4l16,-3zm10,13l2,7l-11,-1l-2,3l2,1l-17,4l32,9l2,7l-16,1l19,8l2,7l-30,-4l5,3l1,5l14,4l14,8l1,6l-30,-3l16,7l-21,0l-25,-13l1,-5l26,0l-23,-13l2,-6l0,0l19,-1l-6,-4l4,-1l0,-4l-11,1l-3,-2l1,-4l25,3l-23,-9l2,-7l10,-2l-5,-1l9,-4l17,0l-3,0z" fill="#0B3029"/>
     <polygon id="svg_51" points="15,434 18,434 18,463 14,463 " fill="#280D12"/>
    </g>
    <g id="svg_52">
     <polygon id="svg_53" points="102,334 97,358 103,357 96,362 92,377 99,378 91,380 87,398 98,396 100,400 85,408 77,439 104,435 102,441 75,449 72,463 136,463 126,425 109,420 109,416 124,417 119,397 104,390 105,384 117,389 114,379 104,374 105,367 111,369 107,353 103,350 104,347 106,347 " fill="#001C1E"/>
     <path id="svg_54" d="m96,362l0,0l-1,2l9,7l0,-3l7,2l-1,-4l-15,-4l1,0zm3,16l-7,3l0,2l13,7l1,-5l12,5l-1,-3l-10,-2l9,0l-1,-4l-16,-3zm-10,13l-2,7l11,-1l2,3l-2,1l17,4l-32,9l-2,7l16,1l-19,8l-2,7l30,-4l-5,3l-1,5l-14,4l-14,8l-1,6l30,-3l-16,7l21,0l25,-13l-1,-5l-26,0l23,-13l-2,-6l0,0l-19,-1l6,-4l-4,-1l0,-4l11,1l3,-2l-1,-4l-25,3l23,-9l-2,-7l-10,-2l5,-1l-9,-4l-17,0l3,0z" fill="#0B3029"/>
     <polygon id="svg_55" points="105,434 102,434 102,463 107,463 " fill="#280D12"/>
    </g>
   </g>
  </g>
  <g id="Capa_x0020_2">
   <path id="svg_56" d="m172.634,0c4,54 11.286,149 8.286,159c-3,14 0,52 3,82s17,170 18,208c0,17 3.269,36 5.269,51l-71.697,0c-3,-55 -7.572,-166 -9.572,-183c-3,-23 -5,-174 -6,-203c0,-13 -2,-64 -5,-114l56,0l1.714,0z" fill="#0A0B06"/>
   <path id="svg_57" d="m194,500c-1,-27 -4,-132 -4,-151c-1,-22 -3,-44 -6,-70s-5,-147 -8,-172c-1,-12 -3.919,-60 -6.919,-107l-13.998,0c3,26 4.917,50 5.917,67c1,45 3,162 10,227c8,66 11,140 11,203l0,2l12,0l0,1z" fill="#131C17"/>
   <path id="svg_58" d="m131,0c6,69 17,180 17,183c0,5 -4,84 -8,111s4,95 6,118c2,15 4,53 5,88l19,0c-2,-50 -4,-102 -4,-124c1,-50 -10,-84 -10,-100s-4,-143 -4,-154c0,-6 -3,-64 -7,-122l-15,0l1,0z" fill="#131C17"/>
   <path id="svg_59" d="m131,0c6,69 17,180 17,183c0,5 -4,84 -8,111s4,95 6,118c2,15 4,53 5,88l19,0c-2,-50 -4,-102 -4,-124c1,-50 -10,-84 -10,-100s-4,-143 -4,-154c0,-6 -3,-64 -7,-122l-15,0l1,0z" fill="#131C17"/>
   <path id="svg_60" d="m127,0c4,83 9,179 8,203c-2,44 -3,161 -3,169c0,5 6,79 10,128l-5,0c-3,-55 -8,-165 -10,-182c-3,-23 -5,-174 -6,-203c0,-13 -2.004,-65 -5.004,-115l9.152,0l1.852,0z" fill="#131C17"/>
   <path id="svg_61" d="m61,0c2,54 5,150 3,160c-1,14 0,52 1,82s7,170 8,208c0,17 1,35 2,50l-30,0c-1,-55 -3,-165 -4,-182c-1,-23 -2,-174 -3,-203c0,-13 -1.115,-65 -2.115,-115l23.473,0l1.642,0z" fill="#0A0B06"/>
   <path id="svg_62" d="m71,500c0,-27 -2,-132 -2,-151c0,-22 -1,-44 -3,-70c-1,-26 -2,-147 -3,-172c-1,-12 -2.318,-60 -3.318,-107l-5.707,0c1,26 2.025,50 2.025,67c1,45 1,162 4,227c3,66 5,140 5,203l0,2l5,0l1,1z" fill="#131C17"/>
   <path id="svg_63" d="m44,0c3,69 7,180 7,183c0,5 -2,84 -3,111c-2,27 2,95 3,118c1,15 2,53 2,88l8,0c-1,-50 -2,-102 -2,-124c1,-50 -4,-84 -4,-100s-2,-143 -2,-154c0,-6 -1,-64 -3,-122l-7,0l1,0z" fill="#131C17"/>
   <path id="svg_64" d="m44,0c3,69 7,180 7,183c0,5 -2,84 -3,111c-2,27 2,95 3,118c1,15 2,53 2,88l8,0c-1,-50 -2,-102 -2,-124c1,-50 -4,-84 -4,-100s-2,-143 -2,-154c0,-6 -1,-64 -3,-122l-7,0l1,0z" fill="#131C17"/>
   <path id="svg_65" d="m42,0c2,83 4,179 3,203c-1,44 -1,161 -1,169c0,5 3,79 4,128l-2,0c-1,-55 -3,-165 -4,-182c-1,-23 -2,-174 -3,-203c0,-13 -1,-64 -2,-114l4,0l1,-1z" fill="#131C17"/>
   <path id="svg_66" d="m798.879,0c-2,54 -4.887,150.345 -1.887,160.345c5,14 2,52 0,82c-3,30 -12,170 -11,208c0,17 -2,35 -4,50l83,0c0,-55 1,-165 3,-182c2,-23 -2,-174 -3,-203c0,-13 0.108,-65.345 0.108,-115.345l-63.314,0l-2.907,0z" fill="#0A0B06"/>
   <path id="svg_67" d="m797,500c0,-27 -2,-132 -2,-151c0,-22 2,-44 4,-70c3,-26 -1,-147 1,-172c1,-12 1.971,-60 2.971,-107l15.936,0c-2,26 -3.907,50 -2.907,67c1,45 5,162 -1,227c-6,66 -7,140 -4,203l0,2l-14,0l0,1z" fill="#131C17"/>
   <path id="svg_68" d="m848,0c-4,69 -12,180 -12,183c0,5 8,84 14,111s0,95 -2,118c-1,15 -2,53 -2,88l-23,0c0,-50 0,-102 -1,-124c-4,-50 8,-84 7,-100s-2,-143 -3,-154c0,-6 1,-64 2,-122l18,0l2,0z" fill="#131C17"/>
   <path id="svg_69" d="m848,0c-4,69 -12,180 -12,183c0,5 8,84 14,111s0,95 -2,118c-1,15 -2,53 -2,88l-23,0c0,-50 0,-102 -1,-124c-4,-50 8,-84 7,-100s-2,-143 -3,-154c0,-6 1,-64 2,-122l18,0l2,0z" fill="#131C17"/>
   <path id="svg_70" d="m853,0c-1,83 -2,179 1,203c4,44 12,161 12,169c0,5 -3,79 -6,128l5,0c0,-55 1,-165 3,-182c2,-23 -2,-174 -3,-203c0,-13 0.1,-65 0.1,-115l-10.014,0l-2.086,0z" fill="#131C17"/>
   <path id="svg_71" d="m929,0c-2,54 -5,150 -3,160c1,14 0,52 -1,82s-7,170 -8,208c0,17 -1,35 -2,50l30,0c1,-55 3,-165 4,-182c1,-23 2,-174 3,-203c0,-13 0.825,-65 1.825,-115l-22.827,0l-1.998,0z" fill="#0A0B06"/>
   <path id="svg_72" d="m920,500c0,-27 2,-132 2,-151c0,-22 1,-44 3,-70c1,-26 2,-147 3,-172c1,-12 1.998,-60 2.998,-107l6.138,0c-1,26 -2.135,50 -2.135,67c-1,45 -1,162 -4,227c-3,66 -5,140 -5,203l0,2l-5,0l-1.001,1z" fill="#131C17"/>
   <path id="svg_73" d="m947,0c-3,69 -7,180 -7,183c0,5 2,84 3,111c2,27 -2,95 -3,118c-1,15 -2,53 -2,88l-8,0c1,-50 2,-102 2,-124c-1,-50 4,-84 4,-100s2,-143 2,-154c0,-6 1,-64 3,-122l7,0l-1,0z" fill="#131C17"/>
   <path id="svg_74" d="m947,0c-3,69 -7,180 -7,183c0,5 2,84 3,111c2,27 -2,95 -3,118c-1,15 -2,53 -2,88l-8,0c1,-50 2,-102 2,-124c-1,-50 4,-84 4,-100s2,-143 2,-154c0,-6 1,-64 3,-122l7,0l-1,0z" fill="#131C17"/>
   <path id="svg_75" d="m949,0c-2,83 -4,179 -3,203c1,44 1,161 1,169c0,5 -3,79 -4,128l2,0c1,-55 3,-165 4,-182c1,-23 2,-174 3,-203c0,-13 1.148,-65 2.148,-115l-3.338,0l-1.81,0z" fill="#131C17"/>
  </g>
  <g id="Capa_x0020_1">
   <path id="svg_76" d="m491,78c3,3 5,7 8,10l23,0l3,13c7,32 14,63 21,95l5,21l-51,0l0,-2l-1,4l-39,1c-8,7 -18,10 -29,10c-8,0 -15,-3 -21,-8l-29,1l-4,-11c0,0 0,-1 -1,-1l-11,0l0,2l-20,1l0,8l-43,2l-4,-11c0,0 0,-1 -1,-1l-40,1l0,-18c0,-19 0,-39 0,-58l-11,-1l0,-16c0,-26 -1,-52 -1,-78l0,-16l15,-2c11,-1 24,-1 35,4l0,0l41,-4l0,19c0,8 0,16 0,24c2,-10 3,-20 5,-31l2,-14l46,0l3,13l0,1c6,-7 14,-11 24,-13c5,-1 9,-1 14,0l0,-3l44,1l4,-6l40,28l-12,14c-6,7 -12,14 -17,22l2,-1zm-62,51c-1,0 -2,0 -3,0s-2,0 -4,0c0,11 0,22 0,32l6,-1c0,-11 0,-21 0,-32l1,1z" fill="#5C4F38"/>
   <path id="svg_77" d="m434,122c-2,1 -5,1 -8,2c-3,0 -6,0 -8,0c0,15 0,29 0,44l16,-3c1,-14 0,-28 0,-42l0,-1zm3,-93l0,-5l37,1l0,8l1,-1l7,-10l32,22l-8,10c-7,8 -13,16 -20,25c4,5 8,10 12,15l21,0l2,9c7,32 14,63 21,95l3,15l-41,0l-3,-22l-3,0l-3,25l-36,1c-7,7 -16,10 -27,10c-8,0 -14,-4 -19,-8l-27,1l-3,-8c-1,-2 -1,-3 -2,-5l-19,1l0,2l-20,1l0,8l-34,2l-3,-8c-1,-2 -1,-3 -2,-5l-38,1l0,-13c0,-21 0,-42 0,-63l-10,-1l0,-11c0,-26 -1,-52 -1,-79l0,-11l11,-1c11,-1 22,-1 32,3c1,1 2,1 4,2l0,-1l35,-3l0,13c0,14 0,29 0,44l7,0c3,-16 6,-33 8,-49l2,-10l38,0l2,9c1,4 2,8 3,13c5,-11 14,-18 27,-21c6,-1 11,-1 16,1c0,0 1,0 1,1l-3,-3z" fill="#FEFEFE"/>
   <path id="svg_78" d="m264,40c11,-1 20,0 26,2c7,3 10,9 10,19s-3,16 -11,19c12,2 16,9 13,21c-2,7 -6,12 -14,14l4,0l22,58c0,-9 0,-30 -1,-63l-2,0c-1,-28 -1,-51 -2,-68l11,-1c0,27 0,45 0,56l22,-1l0,13l-16,0c0,24 0,56 0,94l-14,1c-5,-13 -13,-33 -25,-60c0,18 0,34 0,48l-14,0c0,-18 0,-43 -1,-75c-3,0 -7,0 -10,0c0,-25 -1,-52 -1,-79l3,2zm85,73c-1,26 -1,53 0,83l-16,0c1,-24 1,-53 0,-85l14,0c4,-21 8,-45 13,-73l18,0c4,19 9,42 15,69l13,0c0,25 0,57 0,98l-14,1c-5,-13 -13,-33 -25,-60c0,18 0,34 0,48l-14,0c0,-19 0,-45 -1,-78l18,1l22,58c0,-9 0,-30 -1,-63l-10,0l-2,-17l-18,-1l-3,20l-10,0l1,-1zm112,1c2,44 0,71 -5,82c-5,12 -13,17 -25,16c-11,-1 -18,-11 -20,-32l16,-3c0,15 4,21 12,19c7,-2 10,-31 7,-87l4,-1c0,-21 0,-45 0,-72l12,0l0,35c9,-13 16,-24 23,-34l11,8c-12,15 -20,26 -25,32c9,12 16,21 21,27l17,0c6,26 13,57 21,95l-16,0l-3,-22l-24,-1l-3,26l-15,0c5,-25 10,-54 15,-88c-9,-13 -17,-22 -22,-30l-1,29l0,1zm27,47l22,0c-4,-17 -9,-31 -13,-40l-9,40zm-212,-109l1,21c10,-1 15,-4 15,-11s-5,-10 -16,-10zm-1,33l0,20c12,-1 19,-4 19,-10s-6,-9 -19,-10zm87,-4l17,0c-3,-13 -7,-24 -10,-31l-7,30l0,1zm71,-14c-1,-13 -5,-18 -11,-15s-10,9 -10,20c-1,11 1,18 5,23c4,4 8,6 12,5s6,-7 6,-18l11,1c1,3 0,9 -3,17s-8,12 -17,13s-16,-4 -20,-14c-5,-10 -6,-22 -4,-35s9,-21 21,-24c12,-2 20,6 23,25l-12,4l-1,-2z" fill="#373435"/>
   <path id="svg_79" d="m265,106c3,-1 6,-1 10,-2l0,2c9,-1 14,-2 17,-5c4,-1 8,-2 12,-3c0,1 0,3 -1,4c-2,7 -6,12 -14,14l4,0l1,2c-6,1 -12,2 -18,3l0,-3c-3,0 -7,0 -10,0l0,-13l-1,1zm47,-10l10,-2c0,1 0,3 0,4l22,-1l0,13l-16,0l0,2c-5,1 -9,1 -14,2l0,-4l-2,0c0,-5 0,-10 0,-15l0,1zm40,-8c12,-2 24,-5 36,-7c2,8 4,17 6,26l13,0l0,3c-1,-1 -6,-2 -14,-2c-3,0 -7,0 -11,0l-2,-14l-18,-1l-2,16c-4,0 -8,1 -12,1c1,-7 3,-14 4,-22zm48,-10l11,-2c0,9 1,15 5,18c4,4 8,6 12,5s6,-7 6,-18l11,1c1,2 0,6 -1,11c-10,6 -18,12 -23,18c-7,-1 -12,-5 -16,-14c-3,-6 -4,-13 -5,-20l0,1zm50,-10l12,-2l0,5c1,-2 3,-4 4,-6c5,-1 11,-2 16,-3c-5,6 -9,12 -12,16l2,2c-8,3 -15,6 -22,10c0,-7 0,-14 0,-22zm-4,58c4,-1 9,-3 15,-4c1,16 1,29 0,40l-15,0c0,-10 0,-22 0,-36zm37,-10c8,-2 17,-5 26,-7c4,16 7,34 12,54c-16,0 -31,0 -46,-1c3,-14 5,-30 8,-46zm-77,46c-4,0 -9,0 -13,0c0,-10 0,-25 -1,-44c8,-2 13,-5 14,-6c0,14 0,31 0,51l0,-1zm-18,0c-5,0 -9,0 -13,0c-2,-5 -4,-11 -7,-16c0,6 0,11 0,16c-5,0 -9,0 -13,0c0,-10 0,-22 -1,-35c7,-2 14,-3 20,-5l15,39l-1,1zm-40,1c-5,0 -10,0 -14,0c0,-10 0,-20 0,-31c5,-1 10,-2 15,-3c0,11 0,22 0,34l-1,0zm-20,1c-5,0 -9,0 -13,1c0,-7 0,-16 0,-28c5,-1 9,-2 14,-3c0,9 0,19 0,30l-1,0zm-17,1c-4,0 -9,1 -13,1c-3,-6 -5,-13 -8,-20c0,7 0,14 0,20c-5,0 -9,1 -13,2c0,-7 0,-15 0,-24c9,-2 17,-3 25,-5l10,26l-1,0zm28,-53c-2,0 -3,0 -5,1l0,-1l5,0zm149,50l22,0c-4,-17 -9,-31 -13,-40l-9,40z" fill="#AB3235"/>
   <g id="_294148520">
    <polygon id="svg_80" points="610,201 615,204 632,179 629,175 609,182 605,196 " fill="#201E1E"/>
    <polygon id="svg_81" points="535,158 554,126 594,150 616,180 605,198 583,178 " fill="#373535"/>
    <polygon id="svg_82" points="612,186 605,198 583,178 527,152 550,132 590,156 " fill="#201E1E"/>
    <path id="svg_83" d="m561,89c-16,-4 -31,-16 -48,-2l-12,-10c66,-32 87,19 60,12z" fill="#373535"/>
    <path id="svg_84" d="m507,74c39,-19 67,-15 67,5c1,5 -3,8 -11,7c-16,-4 -33,-13 -51,-1l-5,-9l-1,-2l1,0z" fill="#201E1E"/>
    <polygon id="svg_85" points="512,87 511,93 501,92 494,84 495,79 504,74 " fill="#F2BBA1"/>
    <polygon id="svg_86" points="500,77 504,74 512,85 508,91 503,89 507,86 503,79 " fill="#EEAC95"/>
    <path id="svg_87" d="m563,76l-39,74l57,-5c0,0 -2,-55 -1,-60c2,-3 5,-11 5,-11l-12,-7l-10,10l0,-1z" fill="#201E1E"/>
    <path id="svg_88" d="m559,82l-35,71c37,-6 24,-5 35,-35c5,-14 14,-28 16,-29c2,-3 5,-11 5,-11l-9,-6l-12,13l-1,-2l1,-1z" fill="#373535"/>
    <polygon id="svg_89" points="561,79 571,137 566,138 556,78 " fill="#AB3235"/>
    <g id="_236709904">
     <path id="svg_90" d="m562,36c-10,2 -34,5 -43,12l-11,-3c9,-7 44,-11 51,-13l-1,2l3,2l1,0z" fill="#ED3237"/>
     <path id="svg_91" d="m562,36c-6,-6 -33,-13 -55,-8l14,-6c11,3 37,7 41,14l-2,3l2,-3z" fill="#ED3237"/>
     <path id="svg_92" d="m598,18c20,1 15,22 19,41c5,22 6,26 -13,31c-19,4 -45,-10 -50,-32c-3,-14 6,-31 19,-39c7,-4 15,-1 23,0l2,-1z" fill="#373535"/>
     <path id="svg_93" d="m598,18c20,1 15,22 19,41c2,10 4,17 2,20l-2,1c-17,4 -40,-9 -44,-28c-3,-12 6,-29 18,-34c2,-1 8,1 8,1l-1,-1z" fill="#201E1E"/>
     <path id="svg_94" d="m616,50c0,2 1,5 1,7c1,2 2,8 2,11c-9,3 -9,3 -18,-3c-3,-4 -6,-16 -2,-22c10,-2 17,7 17,7z" fill="#EEAC95"/>
     <path id="svg_95" d="m559,32l53,-6c1,2 2,7 3,12l-58,0c1,-3 2,-6 2,-6z" fill="#ED3237"/>
     <path id="svg_96" d="m557,37l57,-5c1,2 1,5 1,8l-59,0l1,-3z" fill="#AB3235"/>
     <path id="svg_97" d="m616,67c0,2 -2,3 -5,4c-2,1 -5,-1 -8,-3s-6,-14 -1,-17c7,-2 7,2 13,4l0,3c1,2 1,8 1,10l0,-1z" fill="#F2BBA1"/>
     <ellipse id="svg_98" ry="4.718" rx="3.145" cy="38.439489" cx="620.029325" fill="#201E1E" transform="matrix(0.9776,-0.2104,0.2104,0.9776,-2.6413,152.5149) "/>
     <ellipse id="svg_99" ry="0.786" rx="1.573" cy="-8.754789" cx="766.855349" fill="#FEFEFE" transform="matrix(-0.2148,-0.9767,0.9767,-0.2148,785.4361,804.6656) "/>
     <polygon id="svg_100" points="602,52 612,52 615,55 602,55 " fill="#201E1E"/>
    </g>
    <path id="svg_101" d="m572,74c20,13 33,13 54,6l5,11c-9,5 -18,9 -30,12c-31,7 -43,-3 -47,-10c-7,-11 10,-22 19,-17l-1,-2z" fill="#373535"/>
    <path id="svg_102" d="m630,87c-10,2 -19,4 -29,4l-8,-1c-2,1 -14,-7 -25,-10c-8,-3 -14,6 -17,4c1,-8 14,-16 21,-10c20,13 33,13 54,6l3,4l1,2l0,1z" fill="#201E1E"/>
    <g id="_236712376">
     <polygon id="svg_103" points="642,92 632,91 626,80 626,80 626,78 632,71 637,70 644,81 " fill="#F2BBA1"/>
     <polygon id="svg_104" points="626,80 630,74 636,75 645,83 642,92 632,91 " fill="#EEAC95"/>
    </g>
    <g id="svg_105">
     <polygon id="svg_106" points="477,161 471,158 456,195 462,198 481,185 " fill="#201E1E"/>
     <polygon id="svg_107" points="535,130 570,130 508,194 483,187 473,161 500,165 " fill="#201E1E"/>
     <polygon id="svg_108" points="483,181 472,159 499,163 535,130 555,127 505,188 " fill="#373535"/>
    </g>
    <polygon id="svg_109" points="536,125 580,128 581,142 531,128 " fill="#ED3237"/>
    <polygon id="svg_110" points="580,133 581,143 531,128 534,128 " fill="#AB3235"/>
   </g>
  </g>
 </g>
</svg>