<svg width="750" height="508" xmlns="http://www.w3.org/2000/svg">
 <defs>
  <style type="text/css">
   <![CDATA[
    .str0 {stroke:#BCC264;stroke-width:0.900001}
    .fil4 {fill:#001C1E}
    .fil7 {fill:#0A0B06}
    .fil5 {fill:#0B3029}
    .fil8 {fill:#131C17}
    .fil6 {fill:#280D12}
    .fil3 {fill:#A2DAA9}
    .fil2 {fill:#BCC264}
    .fil1 {fill:#EBEC90}
    .fil12 {fill:#FEFEFE;fill-rule:nonzero}
    .fil10 {fill:#3E4095;fill-opacity:0.501961}
    .fil9 {fill:#84716B;fill-opacity:0.501961}
    .fil11 {fill:#A8518A;fill-opacity:0.501961}
    .fil0 {fill:url(#id0)}
   ]]>
  </style>
 </defs>
 <g>
  <title>background</title>
  <rect x="-1" y="-1" width="752" height="510" id="canvas_background" fill="#ffff56"/>
 </g>
 <g>
  <title>Layer 1</title>
  <g stroke="null" id="Capa_x0020_1">
   <metadata stroke="null" transform="translate(-30,45) translate(0,-223) translate(-6,193) translate(-1,0) translate(2,-35) translate(31,27) translate(-10,-368) translate(8,371) translate(-8.000038146972656,9.000020027160645) scale(1.009320855140686,1) translate(8.000038146972656,-9.000020027160645) translate(743.0739135742188,9.000020027160645) scale(0.9907651543617249,1) translate(-743.0739135742188,-9.000020027160645) translate(-1.0000249147415161,518) scale(1,1.0157171487808228) translate(1.0000249147415161,-518) translate(-1.0000249147415161,0.9845177531242371) scale(1,0.988394558429718) translate(1.0000249147415161,-0.9845177531242371) translate(-1.0000249147415161,509.9960632324219) scale(1,1.0058708190917969) translate(1.0000249147415161,-509.9960632324219) " id="CorelCorpID_0Corel-Layer"/>
   <g stroke="null" id="_301819400">
    <rect stroke="null" class="fil0" width="749.50099" height="508.91087" id="svg_1" y="-0.982171" x="-1.000015"/>
    <polygon stroke="null" class="fil1" points="-1.0000247955322266,27.516848674007633 250.0828094482422,56.01584719281527 -1.0000247955322266,56.01584719281527 " id="svg_2"/>
    <polygon stroke="null" class="fil2" points="-1.0000247955322266,98.76435936012422 206.61175537109375,138.45939760212786 -1.0000247955322266,138.45939760212786 " id="svg_3"/>
    <polygon stroke="null" class="fil2 str0" points="343.7704772949219,93.67523870934383 171.38525390625,115.04951781555428 310.7923583984375,125.22772074618842 515.4061889648438,115.04951781555428 " id="svg_4"/>
    <polygon stroke="null" class="fil1" points="748.5009155273438,24.463370911609672 497.418212890625,56.01584719281527 748.5009155273438,56.01584719281527 " id="svg_5"/>
    <polygon stroke="null" class="fil2" points="748.5009155273438,98.76435936012422 540.8892211914062,138.45939760212786 748.5009155273438,138.45939760212786 " id="svg_6"/>
   </g>
   <path stroke="null" class="fil3" d="m748.500973,259.580199c0,0 -20.986029,12.213852 -28.481038,38.677218c-7.495009,26.463366 -21.735529,9.160399 -35.976048,17.302977c-14.240519,9.160389 -9.743509,-5.089115 -24.733528,23.409893c-14.990019,28.499008 -31.479048,45.801985 -38.224557,31.552481c-7.495009,-14.249504 -32.228538,-42.748512 -46.469057,-33.588123c-13.491019,9.160399 -56.212576,24.427724 -53.964066,26.463366c2.2485,2.035642 -21.735529,26.463366 -32.228548,23.409903c-10.493009,-3.053463 -50.216567,-19.338619 -53.214566,-20.35644c-6.74551,-2.035642 -13.491019,-3.053463 -19.487029,-5.089105l0.7495,-12.213862l15.739519,2.035642l-13.491019,-15.267325c0,0 11.242519,0 10.493019,0c-1.499,0 -13.491019,-10.17822 -13.491019,-10.17822l3.74751,0l-6.74551,-16.285146l-4.49701,15.267325l3.7475,1.017821l-10.493009,7.124757c0,0 8.244509,2.035642 6.74551,2.035642c-0.7495,0 -3.74751,2.035642 -6.74551,5.089105l-2.998,-11.196031l4.497,1.017821l0,-15.267325l-8.994009,7.124747l1.499,5.089105l-8.244509,-2.035642l0.7495,6.106936l-7.495009,-1.017821l5.24651,0l-10.493019,-11.196041l6.74551,1.017821l-10.493009,-22.392082l-8.244509,21.374261l5.2465,3.053463l-7.495009,5.089115l-7.495009,-15.267335l-8.994009,15.267335c0,0 8.244509,0 6.74551,1.017821c-1.499,1.017821 -9.743509,7.124747 -9.743509,7.124747c0,0 9.743509,0 7.495009,1.017821c-2.24851,1.017821 -13.491019,11.196041 -13.491019,11.196041l0.7495,1.017821c-38.224547,-2.035642 -14.240519,22.392082 -71.952095,42.748512c-10.493019,3.053463 -34.477048,-21.374251 -32.228548,-23.409893c2.24851,-2.035652 -41.222547,-17.302977 -54.713566,-26.463366c-13.491019,-9.160399 -39.723557,19.338609 -47.218567,33.588113c-7.495009,14.249504 -8.244509,-5.089105 -23.234528,-33.588113c-1.499,-3.053473 -2.998,-5.089115 -4.49701,-7.124757l2.99801,-5.089105l11.242509,9.160389l-5.2465,-19.338609l5.99601,4.071284l-3.74751,-10.17821l4.49701,2.035642l1.499,-18.320798l-11.242519,6.106936l2.24851,7.124747l-10.493019,-3.053463l4.49701,8.142578c0,0 -5.99601,-2.035642 -11.992019,-3.053463l-0.7495,-3.053473l4.497,2.035642l1.49901,-18.320788l-11.242519,6.106936l2.2485,7.124747l-10.493009,-3.053463l4.497,8.142568c0,0 -20.236519,-6.106926 -19.487019,-5.089105c0.7495,1.017821 16.489019,15.267325 16.489019,15.267325l-1.499,3.053463c-3.74751,0 -8.244509,0 -12.741519,-3.053463c-2.998,-2.035642 -5.99601,-2.035642 -8.244509,-3.053463l0,-2.035642l13.491019,2.035642l-10.493019,-14.249504l6.74551,0l-6.74551,-8.142578l4.49701,-1.017821l-4.49701,-17.302967l-8.244509,12.213862l4.49701,5.089105l-10.493019,3.053463l6.74551,5.089115c0,0 -20.236529,6.106926 -18.737519,7.124747c1.499,1.017821 20.236519,4.071294 20.236519,4.071294l-0.7495,4.071284c-9.743509,0 -17.988019,4.071284 -23.984028,-15.267325c-8.244509,-26.463366 -29.230538,-38.677228 -29.230538,-38.677228l0,248.348503l374.750495,0l4.49701,0l370.253485,0l0,-248.348503l-1.499,-4.071284zm-655.813366,58.015837c4.49701,4.071284 8.994009,8.142568 8.994009,8.142568l-2.998,6.106936c-2.2485,-3.053463 -5.24651,-5.089115 -7.495009,-6.106936l-2.998,-11.196041l3.7475,3.053473l0.7495,0zm319.287419,47.837617c-8.994009,-2.035642 -17.238519,-4.071284 -24.733528,-6.106926l1.499,-6.106936l0,0l10.493019,5.089115l-2.24851,-5.089115l7.495009,0l0.74951,0l0,0l7.495009,0l-0.74951,13.231683l0,-1.017821zm-15.739519,-15.267325l-0.7495,-2.035642l2.2485,1.017821l-1.499,1.017821zm-13.491019,8.142578c-2.2485,-1.017821 -4.497,-1.017821 -6.74551,-2.035642l0,-3.053473l8.994019,0l-2.24851,5.089115zm-24.733528,-25.445545l-1.499,1.017821l9.743509,3.053463l-5.24651,3.053463l-6.7455,-6.106926l3.7475,-1.017821zm3.7475,15.267325l4.49701,2.035642l-1.499,5.089105c-1.499,0 -2.99801,-1.017821 -4.49701,-1.017821l-2.998,-5.089105l3.7475,-1.017821l0.7495,0z" id="svg_7"/>
   <polygon stroke="null" class="fil4" points="541.6387329101562,376.629703796003 546.1356811523438,401.0573724114802 541.6387329101562,400.0395912567619 546.8851318359375,405.1287426042836 549.1337280273438,420.39601246640086 544.63671875,421.4138243178604 549.88330078125,423.44950941426214 553.630615234375,441.77030692098197 545.3861694335938,439.73465252132155 543.8871459960938,443.80589992715977 555.1296997070312,451.94848682906013 560.376220703125,483.5009611917194 540.8892211914062,479.42968308913987 542.38818359375,485.5366155913798 562.624755859375,493.67917179653887 564.8731689453125,507.9287218974205 516.9052734375,507.9287218974205 523.6507568359375,469.2515031810617 537.1416015625,464.1623825302813 537.1416015625,460.0910430342192 525.8991088867188,461.10888558242004 529.6466674804688,440.7524643727811 540.8892211914062,433.6277200190816 540.1397094726562,427.52078751684166 531.1456909179688,432.60990816762205 533.3942260742188,422.4316668660613 540.1397094726562,417.3425769120222 540.1397094726562,410.2177711648401 534.8931884765625,412.2534255645005 538.6407470703125,395.9683131541824 541.6387329101562,392.9148469030624 540.8892211914062,389.86134995520115 539.3902587890625,389.86134995520115 " id="svg_8"/>
   <path stroke="null" class="fil5" d="m546.885207,405.128702l0,0l0.7495,2.035642l-6.74551,7.124757l0,-3.053463l-5.2465,2.035642l0.7495,-4.071294l11.242509,-4.071284l-0.7495,0zm-1.499,16.285146l5.24651,3.053463l0,2.035652l-9.743519,7.124747l-0.7495,-5.089105l-8.994009,5.089105l0.7495,-3.053463l7.495009,-2.035642l-6.74551,0l0.7495,-4.071284l11.992019,-3.053473zm7.495009,13.231683l1.499,7.124757l-8.244509,-1.017821l-1.499,3.053463l1.499,1.017821l-12.741519,4.071284l23.984038,9.160399l1.499,7.124747l-11.992019,1.017831l14.240519,8.142568l1.499,7.124757l-22.485028,-4.071294l3.74751,3.053473l0.7495,5.089105l10.493009,4.071284l10.493019,8.142578l0.7495,6.106926l-22.485028,-3.053463l11.992009,7.124757l-15.739519,0l-18.737519,-13.231683l0.7495,-5.089115l19.487019,0l-17.238519,-13.231683l1.499,-6.106926l0,0l14.240519,-1.017821l-4.497,-4.071294l2.998,-1.017821l0,-4.071284l-8.244509,1.017821l-2.2485,-2.035642l0.7495,-4.071284l18.737519,3.053463l-17.238519,-9.160399l1.499,-7.124747l7.495009,-2.035642l-3.7475,-1.017831l6.74551,-4.071284l12.741509,0l-2.2485,0z" id="svg_9"/>
   <polygon stroke="null" class="fil6" points="539.3902587890625,478.4119019344216 541.6387329101562,478.4119019344216 541.6387329101562,507.9287218974205 538.6407470703125,507.9287218974205 " id="svg_10"/>
   <polygon stroke="null" class="fil4" points="597.101806640625,376.629703796003 593.354248046875,401.0573724114802 597.8512573242188,400.0395912567619 592.604736328125,405.1287426042836 589.606689453125,420.39601246640086 594.8533325195312,421.4138243178604 588.8573608398438,423.44950941426214 585.8592529296875,441.77030692098197 594.1038208007812,439.73465252132155 595.6028442382812,443.80589992715977 584.3602294921875,451.94848682906013 579.11376953125,483.5009611917194 598.600830078125,479.42968308913987 597.101806640625,485.5366155913798 576.865234375,493.67917179653887 574.6166381835938,507.9287218974205 622.5848388671875,507.9287218974205 615.08984375,469.2515031810617 602.3482055664062,464.1623825302813 602.3482055664062,460.0910430342192 613.5908813476562,461.10888558242004 609.8433227539062,440.7524643727811 598.600830078125,433.6277200190816 599.3502807617188,427.52078751684166 608.3443603515625,432.60990816762205 606.0957641601562,422.4316668660613 598.600830078125,417.3425769120222 599.3502807617188,410.2177711648401 604.5968627929688,412.2534255645005 600.8492431640625,395.9683131541824 597.8512573242188,392.9148469030624 598.600830078125,389.86134995520115 600.0997924804688,389.86134995520115 " id="svg_11"/>
   <path stroke="null" class="fil5" d="m592.604763,405.128702l0,0l-0.7495,2.035642l6.74551,7.124757l0,-3.053463l5.24651,2.035642l-0.7495,-4.071294l-11.242519,-4.071284l0.7495,0zm1.49901,16.285146l-5.24651,3.053463l0,2.035652l9.743509,7.124747l0.74951,-5.089105l8.994009,5.089105l-0.7495,-3.053463l-7.495009,-2.035642l6.74551,0l-0.74951,-4.071284l-11.992009,-3.053473zm-7.495009,13.231683l-1.49901,7.124757l8.244519,-1.017821l1.499,3.053463l-1.499,1.017821l12.741509,4.071284l-23.984028,9.160399l-1.499,7.124747l11.992019,1.017831l-14.240519,8.142568l-1.49901,7.124757l22.485038,-4.071294l-3.74751,3.053473l-0.7495,5.089105l-10.493019,4.071284l-10.493009,8.142578l-0.7495,6.106926l22.485028,-3.053463l-11.992019,7.124757l15.739519,0l18.737529,-13.231683l-0.7495,-5.089115l-19.487029,0l17.238529,-13.231683l-1.49901,-6.106926l0,0l-14.240519,-1.017821l4.49701,-4.071294l-2.998,-1.017821l0,-4.071284l8.244509,1.017821l2.2485,-2.035642l-0.7495,-4.071284l-18.737529,3.053463l17.238529,-9.160399l-1.499,-7.124747l-7.495009,-2.035642l3.7475,-1.017831l-6.74551,-4.071284l-12.741519,0l2.24851,0z" id="svg_12"/>
   <polygon stroke="null" class="fil6" points="600.0997924804688,478.4119019344216 597.101806640625,478.4119019344216 597.101806640625,507.9287218974205 600.8492431640625,507.9287218974205 " id="svg_13"/>
   <polygon stroke="null" class="fil4" points="661.5587768554688,376.629703796003 665.306396484375,401.0573724114802 660.809326171875,400.0395912567619 666.0558471679688,405.1287426042836 669.0538330078125,420.39601246640086 663.807373046875,421.4138243178604 669.0538330078125,423.44950941426214 672.80126953125,441.77030692098197 664.5567016601562,439.73465252132155 663.0578002929688,443.80589992715977 674.3003540039062,451.94848682906013 679.5469360351562,483.5009611917194 660.0599365234375,479.42968308913987 661.5587768554688,485.5366155913798 681.7953491210938,493.67917179653887 684.0438842773438,507.9287218974205 636.0758056640625,507.9287218974205 642.8213500976562,469.2515031810617 656.3123168945312,464.1623825302813 656.3123168945312,460.0910430342192 645.0698852539062,461.10888558242004 648.8174438476562,440.7524643727811 660.0599365234375,433.6277200190816 659.3103637695312,427.52078751684166 650.3162841796875,432.60990816762205 652.5648803710938,422.4316668660613 659.3103637695312,417.3425769120222 659.3103637695312,410.2177711648401 654.0637817382812,412.2534255645005 657.8113403320312,395.9683131541824 660.809326171875,392.9148469030624 660.0599365234375,389.86134995520115 658.5608520507812,389.86134995520115 " id="svg_14"/>
   <path stroke="null" class="fil5" d="m666.055869,405.128702l0,0l0.7495,2.035642l-6.74551,7.124757l0,-3.053463l-5.24651,2.035642l0.7495,-4.071294l11.242519,-4.071284l-0.7495,0zm-1.49901,16.285146l5.24651,3.053463l0,2.035652l-9.743509,7.124747l-0.7495,-5.089105l-8.994019,5.089105l0.74951,-3.053463l7.495009,-2.035642l-6.74551,0l0.7495,-4.071284l11.992009,-3.053473zm7.495009,13.231683l1.49901,7.124757l-8.244509,-1.017821l-1.49901,3.053463l1.49901,1.017821l-12.741519,4.071284l23.984028,9.160399l1.499,7.124747l-11.992009,1.017831l14.240519,8.142568l1.499,7.124757l-22.485028,-4.071294l3.7475,3.053473l0.7495,5.089105l10.493019,4.071284l10.493009,8.142578l0.7495,6.106926l-22.485028,-3.053463l11.992019,7.124757l-15.739519,0l-18.737529,-13.231683l0.7495,-5.089115l19.487029,0l-17.238519,-13.231683l1.499,-6.106926l0,0l14.240519,-1.017821l-4.49701,-4.071294l2.99801,-1.017821l0,-4.071284l-8.244519,1.017821l-2.2485,-2.035642l0.7495,-4.071284l18.737529,3.053463l-17.238529,-9.160399l1.49901,-7.124747l7.495009,-2.035642l-3.74751,-1.017831l6.74551,-4.071284l12.741519,0l-2.2485,0l-0.00001,0z" id="svg_15"/>
   <polygon stroke="null" class="fil6" points="658.5608520507812,478.4119019344216 660.809326171875,478.4119019344216 660.809326171875,507.9287218974205 657.8113403320312,507.9287218974205 " id="svg_16"/>
   <polygon stroke="null" class="fil4" points="716.2724609375,376.629703796003 712.52490234375,401.0573724114802 717.0219116210938,400.0395912567619 711.7754516601562,405.1287426042836 708.77734375,420.39601246640086 714.0238037109375,421.4138243178604 708.0278930664062,423.44950941426214 705.030029296875,441.77030692098197 713.2744750976562,439.73465252132155 714.7733764648438,443.80589992715977 703.5308837890625,451.94848682906013 698.284423828125,483.5009611917194 717.7713623046875,479.42968308913987 716.2724609375,485.5366155913798 696.0358276367188,493.67917179653887 693.7874145507812,507.9287218974205 741.7554321289062,507.9287218974205 734.2604370117188,469.2515031810617 721.5188598632812,464.1623825302813 721.5188598632812,460.0910430342192 732.7615356445312,461.10888558242004 729.0140380859375,440.7524643727811 717.7713623046875,433.6277200190816 718.5208740234375,427.52078751684166 727.5150146484375,432.60990816762205 725.2664184570312,422.4316668660613 718.5208740234375,417.3425769120222 718.5208740234375,410.2177711648401 723.7673950195312,412.2534255645005 720.0199584960938,395.9683131541824 717.0219116210938,392.9148469030624 717.7713623046875,389.86134995520115 719.2705078125,389.86134995520115 " id="svg_17"/>
   <path stroke="null" class="fil5" d="m711.775425,405.128702l0,0l-0.7495,2.035642l6.74551,7.124757l0,-3.053463l5.24651,2.035642l-0.74951,-4.071294l-11.242509,-4.071284l0.7495,0zm1.499,16.285146l-5.2465,3.053463l0,2.035652l9.743509,7.124747l0.7495,-5.089105l8.994009,5.089105l-0.7495,-3.053463l-7.495009,-2.035642l6.74551,0l-0.7495,-4.071284l-11.992019,-3.053473zm-7.495009,13.231683l-1.499,7.124757l8.244509,-1.017821l1.499,3.053463l-1.499,1.017821l12.741519,4.071284l-23.984028,9.160399l-1.499,7.124747l11.992009,1.017831l-14.240519,8.142568l-1.499,7.124757l22.485028,-4.071294l-3.7475,3.053473l-0.7495,5.089105l-10.493019,4.071284l-10.493009,8.142578l-0.74951,6.106926l22.485038,-3.053463l-11.992019,7.124757l15.739519,0l18.737529,-13.231683l-0.7495,-5.089115l-19.487029,0l17.238519,-13.231683l-1.499,-6.106926l0,0l-14.240519,-1.017821l4.49701,-4.071294l-2.99801,-1.017821l0,-4.071284l8.244509,1.017821l2.24851,-2.035642l-0.7495,-4.071284l-18.737529,3.053463l17.238519,-9.160399l-1.499,-7.124747l-7.495009,-2.035642l3.74751,-1.017831l-6.74551,-4.071284l-12.741519,0l2.2485,0z" id="svg_18"/>
   <polygon stroke="null" class="fil6" points="719.2705078125,478.4119019344216 717.0219116210938,478.4119019344216 717.0219116210938,507.9287218974205 720.0199584960938,507.9287218974205 " id="svg_19"/>
   <polygon stroke="null" class="fil4" points="477.93109130859375,376.629703796003 474.1835632324219,401.0573724114802 478.6806945800781,400.0395912567619 473.4341125488281,405.1287426042836 470.4361572265625,420.39601246640086 475.6825256347656,421.4138243178604 469.6866455078125,423.44950941426214 466.6885986328125,441.77030692098197 474.9330749511719,439.73465252132155 476.43212890625,443.80589992715977 465.1895751953125,451.94848682906013 459.1935119628906,483.5009611917194 479.43017578125,479.42968308913987 477.93109130859375,485.5366155913798 457.6945495605469,493.67917179653887 455.446044921875,507.9287218974205 503.4141540527344,507.9287218974205 495.9191589355469,469.2515031810617 483.1775817871094,464.1623825302813 483.1775817871094,460.0910430342192 494.4201354980469,461.10888558242004 490.6727294921875,440.7524643727811 479.43017578125,433.6277200190816 480.17962646484375,427.52078751684166 489.1737060546875,432.60990816762205 486.9250793457031,422.4316668660613 479.43017578125,417.3425769120222 480.17962646484375,410.2177711648401 485.4261169433594,412.2534255645005 481.6786193847656,395.9683131541824 478.6806945800781,392.9148469030624 479.43017578125,389.86134995520115 480.92913818359375,389.86134995520115 " id="svg_20"/>
   <path stroke="null" class="fil5" d="m473.434111,405.128702l0,0l-0.7495,2.035642l6.74551,7.124757l0,-3.053463l5.24651,2.035642l-0.74951,-4.071294l-11.242509,-4.071284l0.7495,0zm1.499,16.285146l-5.24651,3.053463l0,2.035652l9.743519,7.124747l0.7495,-5.089105l8.994009,5.089105l-0.7495,-3.053463l-7.495009,-2.035642l6.74551,0l-0.7495,-4.071284l-11.992019,-3.053473zm-7.495009,13.231683l-1.499,7.124757l8.244509,-1.017821l1.499,3.053463l-1.499,1.017821l12.741519,4.071284l-23.984028,9.160399l-1.49901,7.124747l11.992019,1.017831l-14.240519,8.142568l-1.499,7.124757l22.485028,-4.071294l-3.74751,3.053473l-0.7495,5.089105l-10.493009,4.071284l-10.493019,8.142578l-0.7495,6.106926l22.485028,-3.053463l-11.992009,7.124757l15.739519,0l18.737519,-13.231683l-0.7495,-5.089115l-19.487019,0l17.238519,-13.231683l-1.499,-6.106926l0,0l-14.240519,-1.017821l4.497,-4.071294l-2.998,-1.017821l0,-4.071284l8.244509,1.017821l2.2485,-2.035642l-0.7495,-4.071284l-18.737519,3.053463l17.238519,-9.160399l-1.499,-7.124747l-7.495009,-2.035642l3.7475,-1.017831l-6.7455,-4.071284l-12.741519,0l2.2485,0z" id="svg_21"/>
   <polygon stroke="null" class="fil6" points="480.92913818359375,478.4119019344216 477.93109130859375,478.4119019344216 477.93109130859375,507.9287218974205 481.6786193847656,507.9287218974205 " id="svg_22"/>
   <polygon stroke="null" class="fil4" points="422.468017578125,376.629703796003 426.965087890625,401.0573724114802 422.468017578125,400.0395912567619 427.714599609375,405.1287426042836 429.9630126953125,420.39601246640086 425.466064453125,421.4138243178604 430.7125244140625,423.44950941426214 433.7105407714844,441.77030692098197 426.2155456542969,439.73465252132155 424.716552734375,443.80589992715977 435.9590759277344,451.94848682906013 441.2055969238281,483.5009611917194 421.7185363769531,479.42968308913987 423.2175598144531,485.5366155913798 443.4540710449219,493.67917179653887 445.7025451660156,507.9287218974205 396.98504638671875,507.9287218974205 404.4800109863281,469.2515031810617 417.9710693359375,464.1623825302813 417.9710693359375,460.0910430342192 406.7285461425781,461.10888558242004 410.4760437011719,440.7524643727811 421.7185363769531,433.6277200190816 420.9690246582031,427.52078751684166 411.9750061035156,432.60990816762205 414.22357177734375,422.4316668660613 420.9690246582031,417.3425769120222 420.9690246582031,410.2177711648401 415.7225646972656,412.2534255645005 419.47003173828125,395.9683131541824 422.468017578125,392.9148469030624 421.7185363769531,389.86134995520115 420.21954345703125,389.86134995520115 " id="svg_23"/>
   <path stroke="null" class="fil5" d="m427.714555,405.128702l0,0l0.7495,2.035642l-6.74551,7.124757l0,-3.053463l-5.24651,2.035642l0.7495,-4.071294l11.242519,-4.071284l-0.7495,0zm-1.49901,16.285146l5.24651,3.053463l0,2.035652l-9.743509,7.124747l-0.7495,-5.089105l-8.994019,5.089105l0.74951,-3.053463l7.495009,-2.035642l-6.74551,0l0.7495,-4.071284l11.992009,-3.053473zm7.495009,13.231683l1.49901,7.124757l-8.244509,-1.017821l-1.49901,3.053463l1.49901,1.017821l-12.741519,4.071284l23.984028,9.160399l1.499,7.124747l-11.992009,1.017831l14.240519,8.142568l1.499,7.124757l-22.485028,-4.071294l3.7475,3.053473l0.7495,5.089105l10.493019,4.071284l10.493009,8.142578l0.7495,6.106926l-22.485028,-3.053463l11.992019,7.124757l-15.739519,0l-18.737529,-13.231683l0.7495,-5.089115l19.487029,0l-17.238519,-13.231683l1.499,-6.106926l0,0l14.240519,-1.017821l-4.49701,-4.071294l2.99801,-1.017821l0,-4.071284l-8.244509,1.017821l-2.24851,-2.035642l0.7495,-4.071284l18.737529,3.053463l-17.238519,-9.160399l1.499,-7.124747l7.495009,-2.035642l-3.74751,-1.017831l6.74551,-4.071284l12.741519,0l-2.2485,0l-0.00001,0z" id="svg_24"/>
   <polygon stroke="null" class="fil6" points="420.21954345703125,478.4119019344216 422.468017578125,478.4119019344216 422.468017578125,507.9287218974205 419.47003173828125,507.9287218974205 " id="svg_25"/>
   <polygon stroke="null" class="fil4" points="358.7604675292969,376.629703796003 355.0129699707031,401.0573724114802 359.5099792480469,400.0395912567619 354.2634582519531,405.1287426042836 351.2654724121094,420.39601246640086 356.5119323730469,421.4138243178604 350.51593017578125,423.44950941426214 347.5179443359375,441.77030692098197 355.762451171875,439.73465252132155 357.261474609375,443.80589992715977 346.01898193359375,451.94848682906013 340.0229187011719,483.5009611917194 360.2594909667969,479.42968308913987 358.7604675292969,485.5366155913798 338.5239562988281,493.67917179653887 336.27545166015625,507.9287218974205 384.2434997558594,507.9287218974205 376.7484436035156,469.2515031810617 364.0069580078125,464.1623825302813 364.0069580078125,460.0910430342192 375.24945068359375,461.10888558242004 371.5019836425781,440.7524643727811 360.2594909667969,433.6277200190816 361.0090026855469,427.52078751684166 370.00299072265625,432.60990816762205 367.7544250488281,422.4316668660613 360.2594909667969,417.3425769120222 361.0090026855469,410.2177711648401 365.5059509277344,412.2534255645005 362.5079650878906,395.9683131541824 359.5099792480469,392.9148469030624 360.2594909667969,389.86134995520115 361.7584533691406,389.86134995520115 " id="svg_26"/>
   <path stroke="null" class="fil5" d="m354.263449,405.128702l0,0l-0.7495,2.035642l6.74551,7.124757l0,-3.053463l5.24651,2.035642l-0.7495,-4.071294l-11.242519,-4.071284l0.7495,0zm1.49901,16.285146l-5.24651,3.053463l0,2.035652l9.743509,7.124747l0.74951,-5.089105l8.994009,5.089105l-0.7495,-3.053463l-7.495009,-2.035642l6.74551,0l-0.74951,-4.071284l-11.992009,-3.053473zm-7.495009,13.231683l-1.499,7.124757l8.244509,-1.017821l1.499,3.053463l-1.499,1.017821l12.741509,4.071284l-23.984028,9.160399l-1.499,7.124747l11.992019,1.017831l-14.240519,8.142568l-1.49901,7.124757l22.485028,-4.071294l-3.7475,3.053473l-0.7495,5.089105l-10.493019,4.071284l-10.493009,8.142578l-0.7495,6.106926l22.485028,-3.053463l-11.992019,7.124757l15.739519,0l18.737529,-13.231683l-0.7495,-5.089115l-19.487029,0l17.238529,-13.231683l-1.49901,-6.106926l0,0l-14.240519,-1.017821l4.49701,-4.071294l-2.998,-1.017821l0,-4.071284l8.244509,1.017821l2.2485,-2.035642l-0.7495,-4.071284l-18.737529,3.053463l17.238529,-9.160399l-1.49901,-7.124747l-7.495009,-2.035642l3.74751,-1.017831l-6.74551,-4.071284l-12.741519,0l2.24851,0z" id="svg_27"/>
   <polygon stroke="null" class="fil6" points="361.0090026855469,478.4119019344216 358.7604675292969,478.4119019344216 358.7604675292969,507.9287218974205 362.5079650878906,507.9287218974205 " id="svg_28"/>
   <polygon stroke="null" class="fil4" points="303.29736328125,376.629703796003 307.79443359375,401.0573724114802 303.29736328125,400.0395912567619 308.54388427734375,405.1287426042836 310.7923583984375,420.39601246640086 306.29541015625,421.4138243178604 311.5419006347656,423.44950941426214 314.5398864746094,441.77030692098197 307.0448913574219,439.73465252132155 305.5458984375,443.80589992715977 316.7884216308594,451.94848682906013 322.034912109375,483.5009611917194 302.54791259765625,479.42968308913987 304.0469055175781,485.5366155913798 324.283447265625,493.67917179653887 326.53192138671875,507.9287218974205 277.81439208984375,507.9287218974205 285.3094177246094,469.2515031810617 298.8004150390625,464.1623825302813 298.8004150390625,460.0910430342192 287.5578308105469,461.10888558242004 291.30535888671875,440.7524643727811 301.7983703613281,433.6277200190816 301.7983703613281,427.52078751684166 292.8043518066406,432.60990816762205 295.0528564453125,422.4316668660613 301.7983703613281,417.3425769120222 301.7983703613281,410.2177711648401 296.5519104003906,412.2534255645005 299.5498962402344,395.9683131541824 303.29736328125,392.9148469030624 302.54791259765625,389.86134995520115 301.0488586425781,389.86134995520115 " id="svg_29"/>
   <path stroke="null" class="fil5" d="m308.543893,405.128702l0,0l0.7495,2.035642l-6.74551,7.124757l0,-3.053463l-5.2465,2.035642l0.7495,-4.071294l11.242509,-4.071284l-0.7495,0zm-1.499,16.285146l5.24651,3.053463l0,2.035652l-9.743519,7.124747l-0.7495,-5.089105l-8.994009,5.089105l0.7495,-3.053463l7.495009,-2.035642l-6.74551,0l0.7495,-4.071284l11.992019,-3.053473zm7.495009,13.231683l1.499,7.124757l-8.244509,-1.017821l-1.499,3.053463l1.499,1.017821l-12.741519,4.071284l23.984038,9.160399l1.499,7.124747l-11.992019,1.017831l14.240519,8.142568l1.499,7.124757l-22.485028,-4.071294l3.74751,3.053473l0.7495,5.089105l10.493009,4.071284l10.493019,8.142578l0.7495,6.106926l-22.485028,-3.053463l11.992009,7.124757l-15.739519,0l-18.737519,-13.231683l0.7495,-5.089115l19.487019,0l-17.238519,-13.231683l1.499,-6.106926l0,0l14.240519,-1.017821l-4.497,-4.071294l2.998,-1.017821l0,-4.071284l-8.244509,1.017821l-2.2485,-2.035642l0.7495,-4.071284l18.737519,3.053463l-17.238519,-9.160399l1.499,-7.124747l7.495009,-2.035642l-3.7475,-1.017831l6.74551,-4.071284l12.741509,0l-2.2485,0z" id="svg_30"/>
   <polygon stroke="null" class="fil6" points="301.0488586425781,478.4119019344216 303.29736328125,478.4119019344216 303.29736328125,507.9287218974205 300.2994079589844,507.9287218974205 " id="svg_31"/>
   <polygon stroke="null" class="fil4" points="34.97602462768555,376.629703796003 39.47305679321289,401.0573724114802 34.97602462768555,400.0395912567619 40.2225341796875,405.1287426042836 42.47102355957031,420.39601246640086 37.97403335571289,421.4138243178604 43.22055435180664,423.44950941426214 46.21855926513672,441.77030692098197 37.97403335571289,439.73465252132155 37.22453689575195,443.80589992715977 48.46704864501953,451.94848682906013 53.713565826416016,483.5009611917194 34.22652816772461,479.42968308913987 34.97602462768555,485.5366155913798 55.96205520629883,493.67917179653887 58.210567474365234,507.9287218974205 9.492993354797363,507.9287218974205 16.98800277709961,469.2515031810617 30.479026794433594,464.1623825302813 29.729530334472656,460.0910430342192 19.23651885986328,461.10888558242004 22.98402214050293,440.7524643727811 33.47703170776367,433.6277200190816 32.727542877197266,427.52078751684166 24.48300552368164,432.60990816762205 26.731517791748047,422.4316668660613 33.47703170776367,417.3425769120222 33.47703170776367,410.2177711648401 28.230510711669922,412.2534255645005 31.228519439697266,395.9683131541824 34.97602462768555,392.9148469030624 34.22652816772461,389.86134995520115 32.727542877197266,389.86134995520115 " id="svg_32"/>
   <path stroke="null" class="fil5" d="m40.222541,405.128702l0,0l0.7495,2.035642l-6.74551,7.124757l0,-3.053463l-5.24651,2.035642l0.74951,-4.071294l11.242509,-4.071284l-0.7495,0zm-1.499,16.285146l5.2465,3.053463l0,2.035652l-9.743509,7.124747l-0.7495,-5.089105l-8.994009,5.089105l0.7495,-3.053463l7.495009,-2.035642l-6.74551,0l0.7495,-4.071284l11.992019,-3.053473zm7.495009,13.231683l1.499,7.124757l-8.244509,-1.017821l-1.499,3.053463l1.499,1.017821l-12.741519,4.071284l23.984028,9.160399l1.499,7.124747l-11.992009,1.017831l14.240519,8.142568l1.499,7.124757l-22.485028,-4.071294l3.7475,3.053473l0.74951,5.089105l10.493009,4.071284l10.493019,8.142578l0.7495,6.106926l-22.485028,-3.053463l11.992009,7.124757l-15.739519,0l-18.737529,-13.231683l0.74951,-5.089115l19.487019,0l-17.238519,-13.231683l1.499,-6.106926l0,0l14.240519,-1.017821l-4.49701,-4.071294l2.99801,-1.017821l0,-4.071284l-8.244509,1.017821l-2.24851,-2.035642l0.74951,-4.071284l18.737519,3.053463l-17.238519,-9.160399l1.499,-7.124747l7.495009,-2.035642l-3.74751,-1.017831l6.74551,-4.071284l12.741519,0l-2.2485,0z" id="svg_33"/>
   <polygon stroke="null" class="fil6" points="32.727542877197266,478.4119019344216 34.97602462768555,478.4119019344216 34.97602462768555,507.9287218974205 31.978046417236328,507.9287218974205 " id="svg_34"/>
   <polygon stroke="null" class="fil4" points="97.93412017822266,376.629703796003 94.18661499023438,401.0573724114802 98.68363189697266,400.0395912567619 93.43712615966797,405.1287426042836 90.43909454345703,420.39601246640086 95.68562316894531,421.4138243178604 89.68961334228516,423.44950941426214 86.69161224365234,441.77030692098197 94.9361343383789,439.73465252132155 95.68562316894531,443.80589992715977 85.19258880615234,451.94848682906013 79.19659423828125,483.5009611917194 98.68363189697266,479.42968308913987 97.93412017822266,485.5366155913798 77.69758605957031,493.67917179653887 74.69959259033203,507.9287218974205 123.41716766357422,507.9287218974205 115.92217254638672,469.2515031810617 103.1806411743164,464.1623825302813 103.1806411743164,460.0910430342192 114.42314910888672,461.10888558242004 110.6756362915039,440.7524643727811 99.4331283569336,433.6277200190816 100.18262481689453,427.52078751684166 108.42713165283203,432.60990816762205 106.92815399169922,422.4316668660613 99.4331283569336,417.3425769120222 99.4331283569336,410.2177711648401 104.67963409423828,412.2534255645005 101.68164825439453,395.9683131541824 98.68363189697266,392.9148469030624 99.4331283569336,389.86134995520115 100.93212127685547,389.86134995520115 " id="svg_35"/>
   <path stroke="null" class="fil5" d="m93.437107,405.128702l0,0l-0.7495,2.035642l6.74551,7.124757l0,-3.053463l5.24651,2.035642l-0.7495,-4.071294l-11.242519,-4.071284l0.7495,0zm1.499,16.285146l-5.2465,3.053463l0,2.035652l9.743509,7.124747l0.7495,-5.089105l8.994019,5.089105l-0.74951,-3.053463l-7.495009,-2.035642l6.74551,0l-0.7495,-4.071284l-11.992009,-3.053473l-0.00001,0zm-7.494999,13.231683l-1.49901,7.124757l8.244509,-1.017821l1.49901,3.053463l-1.49901,1.017821l12.741519,4.071284l-23.984028,9.160399l-1.499,7.124747l11.992009,1.017831l-14.240519,8.142568l-1.499,7.124757l22.485028,-4.071294l-3.7475,3.053473l-0.7495,5.089105l-10.493019,4.071284l-10.493009,8.142578l-0.7495,6.106926l22.485028,-3.053463l-11.992019,7.124757l15.739519,0l18.737529,-13.231683l-0.7495,-5.089115l-19.487029,0l17.238519,-13.231683l-1.499,-6.106926l0,0l-14.240519,-1.017821l4.49701,-4.071294l-2.99801,-1.017821l0,-4.071284l8.244519,1.017821l2.2485,-2.035642l-0.7495,-4.071284l-18.737529,3.053463l17.238529,-9.160399l-1.49901,-7.124747l-7.495009,-2.035642l3.74751,-1.017831l-6.74551,-4.071284l-12.741519,0l2.2485,0l0.00001,0z" id="svg_36"/>
   <polygon stroke="null" class="fil6" points="100.18262481689453,478.4119019344216 97.93412017822266,478.4119019344216 97.93412017822266,507.9287218974205 101.68164825439453,507.9287218974205 " id="svg_37"/>
   <polygon stroke="null" class="fil4" points="176.63172912597656,376.629703796003 181.1287078857422,401.0573724114802 176.63172912597656,400.0395912567619 181.87823486328125,405.1287426042836 184.1267547607422,420.39601246640086 179.6297149658203,421.4138243178604 184.87620544433594,423.44950941426214 187.874267578125,441.77030692098197 179.6297149658203,439.73465252132155 178.8802490234375,443.80589992715977 190.12274169921875,451.94848682906013 195.3692626953125,483.5009611917194 175.88223266601562,479.42968308913987 176.63172912597656,485.5366155913798 197.61776733398438,493.67917179653887 199.8662872314453,507.9287218974205 151.148681640625,507.9287218974205 158.64373779296875,469.2515031810617 172.1347198486328,464.1623825302813 171.38525390625,460.0910430342192 160.89219665527344,461.10888558242004 164.63970947265625,440.7524643727811 175.1327362060547,433.6277200190816 175.1327362060547,427.52078751684166 166.1387176513672,432.60990816762205 168.38720703125,422.4316668660613 175.1327362060547,417.3425769120222 175.1327362060547,410.2177711648401 169.88624572753906,412.2534255645005 172.8842315673828,395.9683131541824 176.63172912597656,392.9148469030624 175.88223266601562,389.86134995520115 174.38323974609375,389.86134995520115 " id="svg_38"/>
   <path stroke="null" class="fil5" d="m181.878231,405.128702l0,0l0.7495,2.035642l-6.74551,7.124757l0,-3.053463l-5.24651,2.035642l0.7495,-4.071294l11.242519,-4.071284l-0.7495,0zm-1.49901,16.285146l5.24651,3.053463l0,2.035652l-9.743509,7.124747l-0.7495,-5.089105l-8.994019,5.089105l0.74951,-3.053463l7.495009,-2.035642l-6.74551,0l0.7495,-4.071284l11.992009,-3.053473zm7.495009,13.231683l1.49901,7.124757l-8.244509,-1.017821l-1.49901,3.053463l1.49901,1.017821l-12.741519,4.071284l23.984028,9.160399l1.499,7.124747l-11.992009,1.017831l14.240519,8.142568l1.499,7.124757l-22.485028,-4.071294l3.7475,3.053473l0.7495,5.089105l10.493019,4.071284l10.493009,8.142578l0.7495,6.106926l-22.485028,-3.053463l11.992019,7.124757l-15.739519,0l-18.737529,-13.231683l0.7495,-5.089115l19.487029,0l-17.238519,-13.231683l1.499,-6.106926l0,0l14.240519,-1.017821l-4.49701,-4.071294l2.99801,-1.017821l0,-4.071284l-8.244519,1.017821l-2.2485,-2.035642l0.7495,-4.071284l18.737529,3.053463l-17.238529,-9.160399l1.49901,-7.124747l7.495009,-2.035642l-3.74751,-1.017831l6.74551,-4.071284l12.741519,0l-2.2485,0l-0.00001,0z" id="svg_39"/>
   <polygon stroke="null" class="fil6" points="174.38323974609375,478.4119019344216 176.63172912597656,478.4119019344216 176.63172912597656,507.9287218974205 173.63369750976562,507.9287218974205 " id="svg_40"/>
   <polygon stroke="null" class="fil4" points="239.58981323242188,376.629703796003 235.84234619140625,401.0573724114802 240.33929443359375,400.0395912567619 235.09280395507812,405.1287426042836 232.09483337402344,420.39601246640086 237.34130859375,421.4138243178604 231.3453369140625,423.44950941426214 228.34732055664062,441.77030692098197 236.59181213378906,439.73465252132155 238.09075927734375,443.80589992715977 226.84829711914062,451.94848682906013 220.852294921875,483.5009611917194 241.0888214111328,479.42968308913987 239.58981323242188,485.5366155913798 219.35325622558594,493.67917179653887 217.1048126220703,507.9287218974205 265.07281494140625,507.9287218974205 257.5778503417969,469.2515031810617 244.83633422851562,464.1623825302813 244.83633422851562,460.0910430342192 256.0788269042969,461.10888558242004 252.331298828125,440.7524643727811 241.0888214111328,433.6277200190816 241.83828735351562,427.52078751684166 250.83233642578125,432.60990816762205 248.5838623046875,422.4316668660613 241.0888214111328,417.3425769120222 241.83828735351562,410.2177711648401 246.3353271484375,412.2534255645005 243.33731079101562,395.9683131541824 240.33929443359375,392.9148469030624 241.0888214111328,389.86134995520115 242.58779907226562,389.86134995520115 " id="svg_41"/>
   <path stroke="null" class="fil5" d="m235.092797,405.128702l0,0l-0.7495,2.035642l6.74551,7.124757l0,-3.053463l5.2465,2.035642l-0.7495,-4.071294l-11.242509,-4.071284l0.7495,0zm1.499,16.285146l-5.24651,3.053463l0,2.035652l9.743519,7.124747l0.7495,-5.089105l8.994009,5.089105l-0.7495,-3.053463l-7.495009,-2.035642l6.74551,0l-0.7495,-4.071284l-11.992019,-3.053473zm-7.495009,13.231683l-1.499,7.124757l8.244509,-1.017821l1.499,3.053463l-1.499,1.017821l12.741519,4.071284l-23.984038,9.160399l-1.499,7.124747l11.992019,1.017831l-14.240519,8.142568l-1.499,7.124757l22.485028,-4.071294l-3.74751,3.053473l-0.7495,5.089105l-10.493009,4.071284l-10.493019,8.142578l-0.7495,6.106926l22.485028,-3.053463l-11.992009,7.124757l15.739519,0l18.737519,-13.231683l-0.7495,-5.089115l-19.487019,0l17.238519,-13.231683l-1.499,-6.106926l0,0l-14.240519,-1.017821l4.497,-4.071294l-2.998,-1.017821l0,-4.071284l8.244509,1.017821l2.2485,-2.035642l-0.7495,-4.071284l-18.737519,3.053463l17.238519,-9.160399l-1.499,-7.124747l-7.495009,-2.035642l3.7475,-1.017831l-6.74551,-4.071284l-12.741509,0l2.2485,0z" id="svg_42"/>
   <polygon stroke="null" class="fil6" points="241.83828735351562,478.4119019344216 239.58981323242188,478.4119019344216 239.58981323242188,507.9287218974205 243.33731079101562,507.9287218974205 " id="svg_43"/>
   <g stroke="null" id="_298022272">
    <path stroke="null" class="fil7" d="m128.663655,-0.982166c2.99801,54.962374 8.244509,152.67326 5.99601,162.851469c-2.2485,14.249504 0,52.926732 2.2485,83.461382c2.24851,30.53466 12.741519,173.0297 13.491019,211.706927c0,17.302967 2.2485,35.623755 3.74751,50.89109l-53.214576,0c-2.2485,-55.980205 -5.99601,-167.940595 -7.495009,-185.243562c-2.2485,-23.409903 -3.7475,-177.100983 -4.497,-206.617812c0,-13.231683 -1.49901,-65.140594 -3.74751,-116.031684l41.972057,0l1.499,-1.017821l0,0.00001z" id="svg_44"/>
    <path stroke="null" class="fil8" d="m144.403174,507.928703c-0.7495,-27.481187 -2.998,-134.352472 -2.998,-153.691091c-0.7495,-22.392072 -2.2485,-44.784154 -4.49701,-71.24752c-2.2485,-26.463366 -3.7475,-149.619797 -5.996,-175.065342c-0.7495,-12.213852 -2.99801,-62.087121 -5.24651,-109.924748l-10.493019,0c2.24851,26.463366 3.74751,51.908911 4.49701,69.211878c0.7495,45.801985 2.2485,164.887122 7.495009,231.045536c5.99601,67.176236 8.244509,142.49505 8.244509,206.617812l0,2.035642l8.994009,0l0,1.017831z" id="svg_45"/>
    <path stroke="null" class="fil8" d="m97.184617,-0.982166c4.497,70.229699 12.741519,183.207909 12.741519,186.261372c0,5.089115 -2.99801,85.497024 -5.99601,112.978211c-2.99801,27.481187 2.998,96.693065 4.497,120.102968c1.49901,15.267325 2.99801,53.944553 3.74751,89.568318l14.240519,0c-1.499,-50.89109 -2.998,-103.817822 -2.998,-126.209904c0.7495,-50.89108 -7.495009,-85.497024 -7.495009,-101.78217c0,-16.285146 -2.99801,-145.548513 -2.99801,-156.744544c0,-6.106936 -2.2485,-65.140594 -5.24651,-124.174252l-11.242509,0l0.7495,0z" id="svg_46"/>
    <path stroke="null" class="fil8" d="m97.184617,-0.982166c4.497,70.229699 12.741519,183.207909 12.741519,186.261372c0,5.089115 -2.99801,85.497024 -5.99601,112.978211c-2.99801,27.481187 2.998,96.693065 4.497,120.102968c1.49901,15.267325 2.99801,53.944553 3.74751,89.568318l14.240519,0c-1.499,-50.89109 -2.998,-103.817822 -2.998,-126.209904c0.7495,-50.89108 -7.495009,-85.497024 -7.495009,-101.78217c0,-16.285146 -2.99801,-145.548513 -2.99801,-156.744544c0,-6.106936 -2.2485,-65.140594 -5.24651,-124.174252l-11.242509,0l0.7495,0z" id="svg_47"/>
    <path stroke="null" class="fil8" d="m94.186607,-0.982166c2.99801,84.479203 6.74551,182.190088 5.99601,206.617812c-1.499,44.784154 -2.2485,163.869301 -2.2485,172.011868c0,5.089115 4.49701,80.407919 7.495009,130.281188l-3.74751,0c-2.2485,-55.980195 -5.996,-167.940595 -7.495009,-185.243562c-2.2485,-23.409903 -3.7475,-177.100983 -4.497,-206.617812c0,-13.231683 -1.499,-65.140594 -3.74751,-116.031674l7.495009,0l0.7495,-1.017831l0,0.00001z" id="svg_48"/>
    <path stroke="null" class="fil7" d="m44.71955,-0.982166c1.499,54.962374 3.7475,152.67326 2.2485,162.851469c-0.7495,14.249504 0,52.926732 0.7495,83.461382c0.7495,30.53466 5.24651,173.0297 5.99601,211.706927c0,17.302967 0.7495,35.623755 1.499,50.89109l-22.485028,0c-0.7495,-55.980205 -2.2485,-167.940595 -2.99801,-185.243562c-0.7495,-23.409903 -1.499,-177.100983 -2.2485,-206.617812c0,-13.231683 -0.7495,-65.140594 -1.499,-116.031684l17.988019,0l0.74951,-1.017821l0,0.00001z" id="svg_49"/>
    <path stroke="null" class="fil8" d="m52.21456,507.928703c0,-27.481187 -1.49901,-134.352472 -1.49901,-153.691091c0,-22.392072 -0.7495,-44.784154 -2.2485,-71.24752c-0.7495,-26.463366 -1.499,-149.619797 -2.2485,-175.065342c-0.7495,-12.213852 -1.499,-62.087121 -2.2485,-109.924748l-4.49701,0c0.7495,26.463366 1.499,51.908911 1.499,69.211878c0.7495,45.801985 0.7495,164.887122 2.99801,231.045536c2.2485,67.176236 3.7475,142.49505 3.7475,206.617812l0,2.035642l3.74751,0l0.7495,1.017831z" id="svg_50"/>
    <path stroke="null" class="fil8" d="m31.978031,-0.982166c2.2485,70.229699 5.2465,183.207909 5.2465,186.261372c0,5.089115 -1.499,85.497024 -2.2485,112.978211c-1.499,27.481187 1.499,96.693065 2.2485,120.102968c0.74951,15.267325 1.49901,53.944553 1.49901,89.568318l5.996,0c-0.7495,-50.89109 -1.499,-103.817822 -1.499,-126.209904c0.7495,-50.89108 -2.998,-85.497024 -2.998,-101.78217c0,-16.285146 -1.499,-145.548513 -1.499,-156.744544c0,-6.106936 -0.7495,-65.140594 -2.24851,-124.174252l-5.2465,0l0.7495,0z" id="svg_51"/>
    <path stroke="null" class="fil8" d="m31.978031,-0.982166c2.2485,70.229699 5.2465,183.207909 5.2465,186.261372c0,5.089115 -1.499,85.497024 -2.2485,112.978211c-1.499,27.481187 1.499,96.693065 2.2485,120.102968c0.74951,15.267325 1.49901,53.944553 1.49901,89.568318l5.996,0c-0.7495,-50.89109 -1.499,-103.817822 -1.499,-126.209904c0.7495,-50.89108 -2.998,-85.497024 -2.998,-101.78217c0,-16.285146 -1.499,-145.548513 -1.499,-156.744544c0,-6.106936 -0.7495,-65.140594 -2.24851,-124.174252l-5.2465,0l0.7495,0z" id="svg_52"/>
    <path stroke="null" class="fil8" d="m30.479031,-0.982166c1.499,84.479203 2.998,182.190088 2.2485,206.617812c-0.7495,44.784154 -0.7495,163.869301 -0.7495,172.011868c0,5.089115 2.2485,80.407919 2.998,130.281188l-1.499,0c-0.7495,-55.980195 -2.2485,-167.940595 -2.998,-185.243562c-0.7495,-23.409903 -1.49901,-177.100983 -2.24851,-206.617812c0,-13.231683 -0.7495,-65.140594 -1.499,-116.031674l2.998,0l0.74951,-1.017831l0,0.00001z" id="svg_53"/>
    <path stroke="null" class="fil7" d="m597.851273,-0.982166c-1.499,54.962374 -3.7475,152.67326 -1.499,162.851469c3.74751,14.249504 1.499,52.926732 0,83.461382c-2.2485,30.53466 -8.994009,173.0297 -8.244509,211.706927c0,17.302967 -1.499,35.623755 -2.998,50.89109l62.208576,0c0,-55.980205 0.7495,-167.940595 2.2485,-185.243562c1.49901,-23.409903 -1.499,-177.100983 -2.2485,-206.617812c0,-13.231683 0,-65.140594 0,-116.031684l-49.467067,0l0,-1.017821l0,0.00001z" id="svg_54"/>
    <path stroke="null" class="fil8" d="m596.352273,507.928703c0,-27.481187 -1.499,-134.352472 -1.499,-153.691091c0,-22.392072 1.499,-44.784154 2.998,-71.24752c2.24851,-26.463366 -0.7495,-149.619797 0.7495,-175.065342c0.74951,-12.213852 1.49901,-62.087121 2.24851,-109.924748l11.992009,0c-1.499,26.463366 -2.998,51.908911 -2.2485,69.211878c0.7495,45.801985 3.74751,164.887122 -0.7495,231.045536c-4.49701,67.176236 -5.24651,142.49505 -2.998,206.617812l0,2.035642l-10.493019,0l0,1.017831z" id="svg_55"/>
    <path stroke="null" class="fil8" d="m634.576821,-0.982166c-2.998,70.229699 -8.994009,183.207909 -8.994009,186.261372c0,5.089115 5.99601,85.497024 10.493019,112.978211c4.497,27.481187 0,96.693065 -1.499,120.102968c-0.74951,15.267325 -1.49901,53.944553 -1.49901,89.568318l-17.238519,0c0,-50.89109 0,-103.817822 -0.7495,-126.209904c-2.99801,-50.89108 5.99601,-85.497024 5.2465,-101.78217c-0.7495,-16.285146 -1.499,-145.548513 -2.2485,-156.744544c0,-6.106936 0.7495,-65.140594 1.499,-124.174252l13.491019,0l1.49901,0l-0.00001,0z" id="svg_56"/>
    <path stroke="null" class="fil8" d="m634.576821,-0.982166c-2.998,70.229699 -8.994009,183.207909 -8.994009,186.261372c0,5.089115 5.99601,85.497024 10.493019,112.978211c4.497,27.481187 0,96.693065 -1.499,120.102968c-0.74951,15.267325 -1.49901,53.944553 -1.49901,89.568318l-17.238519,0c0,-50.89109 0,-103.817822 -0.7495,-126.209904c-2.99801,-50.89108 5.99601,-85.497024 5.2465,-101.78217c-0.7495,-16.285146 -1.499,-145.548513 -2.2485,-156.744544c0,-6.106936 0.7495,-65.140594 1.499,-124.174252l13.491019,0l1.49901,0l-0.00001,0z" id="svg_57"/>
    <path stroke="null" class="fil8" d="m638.32433,-0.982166c-0.7495,84.479203 -1.499,182.190088 0.7495,206.617812c2.998,44.784154 8.994009,163.869301 8.994009,172.011868c0,5.089115 -2.2485,80.407919 -4.497,130.281188l3.7475,0c0,-55.980195 0.7495,-167.940595 2.2485,-185.243562c1.49901,-23.409903 -1.499,-177.100983 -2.2485,-206.617812c0,-13.231683 0,-65.140594 0,-116.031674l-8.994009,0l0,-1.017831l0,0.00001z" id="svg_58"/>
    <path stroke="null" class="fil7" d="m695.286407,-0.982166c-1.499,54.962374 -3.74751,152.67326 -2.24851,162.851469c0.74951,14.249504 0,52.926732 -0.7495,83.461382c-0.7495,30.53466 -5.2465,173.0297 -5.996,211.706927c0,17.302967 -0.74951,35.623755 -1.49901,50.89109l22.485038,0c0.7495,-55.980205 2.2485,-167.940595 2.998,-185.243562c0.7495,-23.409903 1.499,-177.100983 2.2485,-206.617812c0,-13.231683 0.7495,-65.140594 1.499,-116.031684l-17.988019,0l-0.7495,-1.017821l0,0.00001z" id="svg_59"/>
    <path stroke="null" class="fil8" d="m688.540897,507.928703c0,-27.481187 1.499,-134.352472 1.499,-153.691091c0,-22.392072 0.7495,-44.784154 2.2485,-71.24752c0.74951,-26.463366 1.49901,-149.619797 2.24851,-175.065342c0.7495,-12.213852 1.499,-62.087121 2.2485,-109.924748l4.49701,0c-0.7495,26.463366 -1.49901,51.908911 -1.49901,69.211878c-0.7495,45.801985 -0.7495,164.887122 -2.998,231.045536c-2.2485,67.176236 -3.7475,142.49505 -3.7475,206.617812l0,2.035642l-3.74751,0l-0.7495,1.017831z" id="svg_60"/>
    <path stroke="null" class="fil8" d="m708.777426,-0.982166c-2.24851,70.229699 -5.24651,183.207909 -5.24651,186.261372c0,5.089115 1.499,85.497024 2.2485,112.978211c1.49901,27.481187 -1.499,96.693065 -2.2485,120.102968c-0.7495,15.267325 -1.499,53.944553 -1.499,89.568318l-5.99601,0c0.7495,-50.89109 1.499,-103.817822 1.499,-126.209904c-0.7495,-50.89108 2.99801,-85.497024 2.99801,-101.78217c0,-16.285146 1.499,-145.548513 1.499,-156.744544c0,-6.106936 0.7495,-65.140594 2.2485,-124.174252l5.24651,0l-0.7495,0z" id="svg_61"/>
    <path stroke="null" class="fil8" d="m708.777426,-0.982166c-2.24851,70.229699 -5.24651,183.207909 -5.24651,186.261372c0,5.089115 1.499,85.497024 2.2485,112.978211c1.49901,27.481187 -1.499,96.693065 -2.2485,120.102968c-0.7495,15.267325 -1.499,53.944553 -1.499,89.568318l-5.99601,0c0.7495,-50.89109 1.499,-103.817822 1.499,-126.209904c-0.7495,-50.89108 2.99801,-85.497024 2.99801,-101.78217c0,-16.285146 1.499,-145.548513 1.499,-156.744544c0,-6.106936 0.7495,-65.140594 2.2485,-124.174252l5.24651,0l-0.7495,0z" id="svg_62"/>
    <path stroke="null" class="fil8" d="m710.276426,-0.982166c-1.499,84.479203 -2.998,182.190088 -2.2485,206.617812c0.7495,44.784154 0.7495,163.869301 0.7495,172.011868c0,5.089115 -2.24851,80.407919 -2.99801,130.281188l1.49901,0c0.7495,-55.980195 2.2485,-167.940595 2.998,-185.243562c0.7495,-23.409903 1.499,-177.100983 2.2485,-206.617812c0,-13.231683 0.7495,-65.140594 1.499,-116.031674l-2.998,0l-0.7495,-1.017831l0,0.00001z" id="svg_63"/>
   </g>
  </g>
  <g stroke="null" id="Capa_x0020_2" transform="rotate(-0.10085763782262802 374.4991455077964,255.01673889159068) ">
   <metadata stroke="null" transform="translate(-0.0008786188554950058,8.382855867239414e-7) translate(0.000006186535756569356,0.0070396410301327705) translate(0.000007803996595612261,0.008803002536296844) translate(7,-251) translate(-3,-196) translate(-7,79) translate(11,370) translate(758.0000610351562,1) scale(1.0133534669876099,1) translate(-758.0000610351562,-1) translate(-0.988539457321167,1.0088030099868774) scale(0.9894621968269348,1) translate(0.988539457321167,-1.0088030099868774) translate(-0.9990612268447876,510.0158996582031) scale(1,1.0019612312316895) translate(0.9990612268447876,-510.0158996582031) " id="CorelCorpID_1Corel-Layer"/>
   <polygon stroke="null" class="fil9" points="511.18179960380075,0.017576703897020707 750.000952435832,0.017576703897020707 750.000952435832,510.0159004964887 533.711889935832,510.0159004964887 510.430884076457,10.21756637478461 " id="svg_64"/>
   <polygon stroke="null" class="fil10" points="510.430884076457,0.017576703897020707 263.35059232841013,0.017576703897020707 231.0574709905195,510.0159004964887 533.711889935832,510.0159004964887 " id="svg_65"/>
   <polygon stroke="null" class="fil11" points="-1.002612279553432,0.017576703897020707 263.35059232841013,0.017576703897020707 231.0574709905195,510.0159004964887 -1.002612279553432,510.0159004964887 " id="svg_66"/>
   <polygon stroke="null" class="fil11" points="27.53553457389353,63.25733268643012 237.81653471122263,52.03736961269965 223.54741544852732,233.59678733730902 40.30257291923044,250.93675315762152 " id="svg_67"/>
   <path stroke="null" class="fil12" d="m74.097731,123.437157l11.265053,40.799861c0,-6.119979 0,-22.439924 -0.751004,-47.939837l7.510035,0c0,17.339941 0,40.799861 0,70.379761l-7.510035,0c-3.004014,-9.179969 -6.759032,-23.45992 -12.76706,-42.839854c0,12.239958 0,24.479917 0,34.679882l-7.510035,0c0,-13.259955 0,-31.619893 0,-56.099809l9.012042,1.019997l0.751004,0zm28.538134,-4.079986c-0.751004,19.379934 -0.751004,38.759868 0,60.179795l-8.261039,0c0.751004,-17.339941 0.751004,-37.739872 0,-60.179795l8.261039,0zm12.76706,58.139802l-10.51405,-57.119806l7.510035,-2.039993l7.510035,44.879847l8.261039,-45.899844l9.012042,2.039993l-13.518064,58.139802l-8.261039,0zm24.032113,-58.139802c7.510035,0 15.020071,-1.019997 21.779103,-1.019997l0,14.279951c-4.506021,0 -9.763046,-1.019997 -14.269067,-1.019997l0,18.359938l12.76706,0l-0.751004,10.199965c-3.755018,0 -7.510035,0 -11.265053,0l0,13.259955l13.518064,0l0,12.239958c-6.759032,0 -14.269067,0 -21.028099,0c0.751004,-20.399931 0,-42.839854 0,-66.299775l-0.751004,0zm25.53412,64.259782c-0.751004,-26.51991 -0.751004,-46.919841 -0.751004,-63.239785l7.510035,-1.019997c0,24.479917 0,41.819858 0,52.019823l15.020071,-1.019997l0,12.239958l-21.779103,1.019997zm34.546163,-63.239785c0,19.379934 -0.751004,38.759868 -0.751004,57.119806l-6.759032,0c0,-13.259955 0,-29.579899 0,-47.939837l-3.755018,0l0,-9.179969l10.51405,0l0.751004,0z" id="svg_68"/>
   <polygon stroke="null" class="fil10" points="282.12573881278513,63.25733268643012 492.4066836370039,52.03736961269965 478.13770170341013,233.59678733730902 294.8927676213789,250.93675315762152 " id="svg_69"/>
   <path stroke="null" class="fil12" d="m321.177905,124.457154l11.265053,40.799861c0,-6.119979 0,-22.439924 -0.751004,-47.939837l7.510035,0c0,17.339941 0,40.799861 0,70.379761l-7.510035,0c-3.004014,-9.179969 -6.759032,-23.45992 -12.76706,-42.839854c0,12.239958 0,24.479917 0,34.679882l-7.510035,0c0,-13.259955 0,-31.619893 0,-56.099809l9.012042,1.019997l0.751004,0zm28.538134,-4.079986c-0.751004,19.379934 -0.751004,38.759868 0,60.179795l-8.261039,0c0.751004,-17.339941 0.751004,-37.739872 0,-60.179795l8.261039,0zm12.76706,58.139802l-10.51405,-57.119806l7.510035,-2.039993l7.510035,44.879847l8.261039,-45.899844l9.012042,2.039993l-13.518064,58.139802l-8.261039,0zm24.032113,-58.139802c7.510035,0 15.020071,-1.019997 21.779103,-1.019997l0,14.279951c-4.506021,0 -9.763046,-1.019997 -14.269067,-1.019997l0,18.359938l12.76706,0l-0.751004,10.199965c-3.755018,0 -7.510035,0 -11.265053,0l0,13.259955l13.518064,0l0,12.239958c-6.759032,0 -14.269067,0 -21.028099,0c0.751004,-20.399931 0,-42.839854 0,-66.299775l-0.751004,0zm25.53412,64.259782c-0.751004,-26.51991 -0.751004,-46.919841 -0.751004,-63.239785l7.510035,-1.019997c0,24.479917 0,41.819858 0,52.019823l15.020071,-1.019997l0,12.239958l-21.779103,1.019997zm24.783117,-49.97983c0,-7.139976 1.502007,-12.239958 4.506021,-16.319945c3.755018,-4.079986 7.510035,-5.099983 12.016057,-3.05999c4.506021,2.039993 6.759032,8.159972 6.759032,18.359938c0,10.199965 -5.257025,21.419927 -14.269067,32.639889l15.020071,1.019997l0,10.199965l-22.530106,-1.019997l-0.751004,-10.199965c9.763046,-11.219962 15.020071,-20.399931 15.771074,-28.559903c0.751004,-8.159972 -0.751004,-12.239958 -3.755018,-12.239958c-3.004014,0 -5.257025,3.05999 -5.257025,11.219962l-6.759032,-1.019997l-0.751004,-1.019997z" id="svg_70"/>
   <polygon stroke="null" class="fil9" points="518.6917483342695,63.25733268643012 728.2217776311445,52.03736961269965 714.7037112248945,233.59678733730902 531.4588992131758,250.93675315762152 " id="svg_71"/>
   <path stroke="null" class="fil12" d="m556.993015,125.47715l11.265053,40.799861c0,-6.119979 0,-22.439924 -0.751004,-47.939837l7.510035,0c0,17.339941 0,40.799861 0,70.379761l-7.510035,0c-3.004014,-9.179969 -6.759032,-23.45992 -12.76706,-42.839854c0,12.239958 0,24.479917 0,34.679882l-7.510035,0c0,-13.259955 0,-31.619893 0,-56.099809l9.012042,1.019997l0.751004,0zm28.538134,-4.079986c-0.751004,19.379934 -0.751004,38.759868 0,60.179795l-8.261039,0c0.751004,-17.339941 0.751004,-37.739872 0,-60.179795l8.261039,0zm12.76706,58.139802l-10.51405,-57.119806l7.510035,-2.039993l7.510035,44.879847l8.261039,-45.899844l9.012042,2.039993l-13.518064,58.139802l-8.261039,0zm24.032113,-58.139802c7.510035,0 15.020071,-1.019997 21.779103,-1.019997l0,14.279951c-4.506021,0 -9.763046,-1.019997 -14.269067,-1.019997l0,18.359938l12.76706,0l-0.751004,10.199965c-3.755018,0 -7.510035,0 -11.265053,0l0,13.259955l13.518064,0l0,12.239958c-6.759032,0 -14.269067,0 -21.028099,0c0.751004,-20.399931 0,-42.839854 0,-66.299775l-0.751004,0zm25.53412,64.259782c-0.751004,-26.51991 -0.751004,-46.919841 -0.751004,-63.239785l7.510035,-1.019997c0,24.479917 0,41.819858 0,52.019823l15.020071,-1.019997l0,12.239958l-21.779103,1.019997zm24.032113,-21.419927l7.510035,-2.039993c0,7.139976 1.502007,11.219962 5.257025,11.219962c3.755018,0 5.257025,-3.05999 6.008028,-9.179969c0,-6.119979 -3.004014,-10.199965 -9.763046,-11.219962l0,-8.159972c5.257025,0 7.510035,-3.05999 8.261039,-10.199965c0,-6.119979 -1.502007,-9.179959 -4.506021,-10.199965c-3.755018,0 -5.257025,3.06 -5.257025,10.199965l-7.510035,-2.039993c0.751004,-10.199965 3.755018,-16.319945 9.012042,-18.359938c5.257025,-2.039993 9.012042,0 12.016057,4.079986c3.004014,4.079986 4.506021,9.179969 3.755018,15.299948c0,6.119979 -2.253011,11.219962 -5.257025,14.279951c4.506021,3.05999 6.759032,9.179969 6.008028,17.339941c-0.751004,8.159972 -3.004014,13.259955 -8.261039,15.299948c-4.506021,2.039993 -9.012042,1.019997 -12.016057,-1.019997c-3.004014,-3.05999 -5.257025,-8.159972 -5.257025,-16.319945l0,1.019997z" id="svg_72"/>
  </g>
 </g>
</svg>